<?xml version="1.0" standalone="no"?>
<!DOCTYPE svg PUBLIC "-//W3C//DTD SVG 20010904//EN"
 "http://www.w3.org/TR/2001/REC-SVG-20010904/DTD/svg10.dtd">
<svg version="1.0" xmlns="http://www.w3.org/2000/svg"
 width="2000.000000pt" height="2000.000000pt" viewBox="0 0 2000.000000 2000.000000"
 preserveAspectRatio="xMidYMid meet">
<metadata>
Created by potrace 1.13, written by Peter Selinger 2001-2015
</metadata>
<g transform="translate(0.000000,2000.000000) scale(0.100000,-0.100000)"
fill="#000000" stroke="none">
<path d="M9785 19133 c-33 -2 -134 -10 -225 -19 -611 -57 -1202 -200 -1764
-425 -273 -110 -653 -303 -921 -467 -744 -456 -1400 -1089 -1895 -1827 -210
-313 -461 -789 -598 -1135 -311 -785 -456 -1586 -439 -2420 7 -294 13 -378 48
-660 255 -2045 1556 -3859 3414 -4761 700 -340 1367 -525 2180 -606 253 -25
808 -25 1060 0 1093 109 2030 440 2910 1027 492 329 961 756 1340 1220 671
823 1117 1797 1300 2839 140 801 124 1575 -50 2386 -284 1323 -1030 2551
-2080 3425 -1117 929 -2535 1439 -3975 1428 -135 -1 -272 -3 -305 -5z m730
-388 c1302 -125 2540 -664 3514 -1529 615 -547 1195 -1431 1515 -2312 276
-759 416 -1643 357 -2259 -72 -754 -241 -1405 -531 -2045 -333 -733 -848
-1454 -1360 -1900 -1055 -920 -2328 -1445 -3714 -1530 -386 -24 -964 42 -1486
171 -243 60 -641 191 -865 283 -720 299 -1414 754 -1916 1255 -676 677 -1229
1644 -1498 2621 -159 576 -239 1207 -212 1659 85 1408 663 2768 1616 3801 379
411 1029 879 1630 1175 747 367 1496 565 2375 629 97 7 413 -4 575 -19z"/>
<path d="M9585 18674 c-82 -9 -151 -20 -153 -25 -2 -5 -20 -9 -40 -10 -40 0
-263 -36 -247 -39 6 -1 -52 -12 -129 -26 -76 -13 -144 -28 -150 -32 -6 -5 -51
-17 -101 -27 -49 -10 -92 -21 -95 -25 -3 -4 -41 -15 -85 -25 -44 -9 -93 -23
-110 -30 -16 -8 -57 -21 -90 -31 -33 -9 -62 -20 -65 -24 -3 -4 -39 -17 -80
-29 -41 -13 -79 -26 -85 -31 -5 -4 -35 -15 -65 -25 -30 -10 -57 -21 -60 -25
-3 -4 -30 -15 -60 -25 -30 -9 -64 -23 -75 -29 -11 -7 -44 -21 -72 -31 -29 -11
-53 -23 -53 -27 0 -4 -5 -8 -12 -8 -13 0 -300 -140 -308 -150 -3 -3 -25 -14
-50 -24 -25 -10 -52 -23 -60 -30 -8 -7 -49 -29 -90 -50 -41 -21 -82 -44 -90
-51 -8 -7 -31 -21 -50 -30 -19 -10 -37 -21 -40 -25 -3 -4 -24 -17 -47 -29 -24
-12 -43 -25 -43 -30 0 -4 -18 -16 -40 -26 -22 -10 -40 -21 -40 -24 0 -4 -20
-17 -45 -31 -25 -14 -45 -28 -45 -32 0 -3 -8 -9 -18 -12 -10 -4 -27 -14 -38
-24 -29 -25 -95 -75 -127 -95 -16 -10 -37 -26 -48 -35 -10 -9 -31 -27 -46 -39
-148 -118 -183 -147 -214 -178 -19 -19 -41 -35 -47 -35 -7 0 -12 -6 -12 -14 0
-8 -13 -23 -29 -32 -17 -10 -28 -21 -25 -26 3 -4 1 -8 -5 -8 -6 0 -51 -39
-100 -87 -49 -49 -98 -95 -108 -104 -48 -44 -279 -316 -360 -425 -12 -16 -43
-57 -70 -92 -26 -35 -52 -71 -58 -81 -5 -9 -27 -40 -47 -68 -21 -28 -38 -56
-38 -62 0 -6 -4 -11 -9 -11 -5 0 -19 -19 -31 -42 -12 -24 -30 -52 -40 -63 -10
-11 -21 -30 -25 -42 -3 -13 -11 -23 -16 -23 -5 0 -13 -10 -18 -22 -5 -13 -21
-40 -36 -62 -37 -54 -85 -146 -85 -162 0 -8 -4 -14 -8 -14 -5 0 -19 -24 -33
-52 -13 -29 -27 -55 -30 -58 -9 -7 -146 -290 -154 -317 -3 -13 -10 -23 -15
-23 -4 0 -11 -12 -15 -27 -3 -16 -19 -55 -34 -88 -16 -33 -34 -78 -41 -100 -7
-22 -16 -42 -20 -45 -3 -3 -14 -31 -24 -62 -10 -32 -21 -58 -26 -58 -4 0 -18
-37 -30 -82 -13 -46 -27 -85 -31 -88 -4 -3 -15 -37 -25 -75 -9 -39 -20 -72
-24 -75 -4 -3 -17 -48 -30 -100 -12 -52 -26 -99 -30 -105 -4 -5 -16 -48 -25
-95 -10 -47 -22 -90 -26 -95 -4 -6 -17 -66 -30 -135 -12 -69 -25 -129 -29
-135 -5 -5 -16 -71 -25 -145 -10 -74 -21 -144 -26 -155 -33 -74 -59 -699 -40
-970 15 -218 30 -365 40 -390 5 -11 16 -80 26 -154 9 -74 21 -142 26 -150 5
-9 18 -67 28 -128 11 -62 24 -121 30 -130 5 -10 17 -56 26 -103 9 -47 20 -89
25 -95 4 -5 18 -53 30 -105 13 -52 26 -97 30 -100 4 -3 13 -30 20 -60 7 -30
18 -64 23 -75 6 -11 10 -24 9 -29 -2 -4 2 -13 7 -20 5 -6 17 -37 26 -68 9 -32
20 -60 25 -63 4 -3 16 -31 26 -63 10 -31 21 -59 24 -62 4 -3 13 -23 20 -45 7
-22 23 -60 35 -85 12 -25 30 -69 39 -97 10 -29 22 -53 27 -53 5 0 9 -5 9 -11
0 -13 140 -302 150 -309 4 -3 17 -27 29 -55 12 -27 26 -52 32 -55 5 -4 11 -17
14 -30 2 -12 11 -30 20 -40 8 -9 15 -20 15 -25 0 -4 18 -36 40 -71 22 -35 40
-68 40 -74 0 -6 7 -13 15 -16 8 -3 17 -16 21 -27 3 -12 14 -31 24 -42 10 -11
28 -39 40 -62 12 -24 26 -43 30 -43 5 0 11 -9 15 -19 3 -11 21 -39 40 -63 19
-23 35 -47 35 -51 0 -5 20 -34 45 -65 25 -32 93 -118 152 -192 59 -74 125
-157 147 -184 58 -70 316 -329 348 -350 15 -10 26 -22 23 -26 -2 -4 7 -12 20
-18 14 -7 25 -17 25 -24 0 -7 9 -18 19 -23 11 -6 50 -37 88 -70 38 -33 86 -73
107 -90 21 -16 49 -40 62 -52 14 -13 28 -23 32 -23 4 0 23 -14 42 -30 19 -16
38 -30 42 -30 4 0 13 -7 22 -15 23 -23 101 -81 127 -95 13 -7 26 -16 29 -20 6
-7 177 -120 253 -166 26 -16 65 -40 85 -53 53 -34 165 -91 180 -91 6 0 12 -4
12 -9 0 -5 20 -17 45 -28 25 -10 45 -21 45 -24 0 -4 26 -17 58 -30 31 -13 63
-29 70 -36 7 -7 31 -18 52 -24 22 -7 40 -16 40 -20 0 -4 29 -18 65 -31 36 -12
65 -26 65 -30 0 -3 24 -14 53 -24 28 -9 61 -23 72 -30 11 -6 46 -20 78 -30 31
-10 57 -21 57 -25 0 -3 29 -15 64 -25 36 -10 62 -22 60 -26 -3 -4 1 -8 8 -8
18 0 152 -42 158 -50 3 -4 34 -14 70 -24 36 -9 79 -23 95 -31 17 -7 57 -18 90
-25 33 -7 65 -16 70 -20 6 -5 57 -18 115 -30 58 -12 114 -26 125 -31 19 -9 73
-20 345 -69 58 -11 139 -23 180 -26 41 -4 77 -10 80 -14 28 -40 1190 -38 1190
2 0 4 17 8 38 8 50 0 302 38 327 49 11 5 67 17 125 26 58 10 107 20 110 24 3
3 57 16 120 29 63 13 119 27 125 31 5 5 44 16 85 26 41 10 77 21 80 24 3 4 30
13 60 20 30 7 73 22 95 31 22 10 70 26 107 36 37 10 65 21 63 25 -3 3 25 14
60 24 36 9 65 20 65 24 0 4 26 15 58 25 31 10 66 23 77 30 11 7 43 21 70 31
28 10 52 21 55 25 3 3 33 17 68 29 34 13 62 27 62 30 0 4 23 15 50 25 28 10
50 21 50 25 0 4 23 15 50 25 28 10 56 24 63 30 7 6 31 20 55 30 23 11 42 22
42 26 0 3 17 12 38 19 20 8 44 19 52 26 8 7 31 20 50 29 19 9 51 26 70 38 74
45 145 92 150 98 3 4 20 15 38 24 30 15 168 110 199 136 7 6 28 20 48 31 19
12 35 25 35 29 0 5 8 11 18 14 10 4 27 14 38 24 10 10 35 29 54 42 19 14 43
32 52 40 10 8 30 25 45 37 86 69 93 76 241 211 229 209 416 411 562 606 19 26
40 52 45 59 50 60 115 152 239 339 151 226 147 219 284 478 19 36 43 83 53
105 11 22 24 47 29 55 6 8 14 25 19 36 5 12 25 55 44 95 19 41 47 101 62 134
15 33 35 78 46 101 10 22 19 46 19 53 0 7 11 35 25 63 14 27 25 54 25 59 0 4
11 32 24 61 13 29 32 80 41 113 10 33 21 65 26 70 4 6 15 42 25 80 9 39 20 72
24 75 4 3 18 50 30 105 13 55 26 105 30 110 4 6 15 48 25 95 9 47 21 93 26
102 5 10 18 73 30 140 11 68 24 130 29 140 5 9 16 81 26 160 9 78 20 152 25
163 39 93 39 1086 -1 1180 -4 11 -15 85 -24 163 -10 79 -21 151 -26 160 -4 10
-18 75 -30 147 -13 71 -26 136 -31 145 -4 8 -15 51 -25 95 -9 44 -20 85 -24
90 -4 6 -17 55 -30 110 -12 55 -26 102 -30 105 -4 3 -15 36 -24 75 -10 38 -21
74 -26 80 -4 5 -16 39 -25 75 -10 36 -24 76 -30 90 -7 14 -17 36 -22 50 -6 14
-19 45 -31 70 -11 25 -25 63 -32 85 -7 22 -19 51 -26 65 -22 41 -80 172 -95
213 -7 20 -16 37 -19 37 -4 0 -12 17 -18 39 -7 21 -19 44 -27 51 -8 7 -15 16
-15 21 0 11 -41 99 -52 114 -4 6 -24 42 -44 80 -107 205 -97 188 -240 405 -27
41 -52 82 -57 90 -4 8 -21 33 -38 55 -16 22 -42 58 -57 80 -60 89 -191 257
-291 374 -58 68 -122 142 -141 165 -19 22 -39 43 -43 44 -4 2 -51 46 -104 98
-53 52 -100 94 -105 94 -5 0 -6 5 -3 10 3 6 2 10 -4 10 -5 0 -51 39 -103 86
-51 48 -104 94 -118 103 -13 9 -34 25 -46 36 -37 34 -178 142 -244 187 -14 10
-43 31 -65 47 -22 17 -57 40 -77 51 -21 11 -38 24 -38 29 0 4 -12 13 -27 20
-16 7 -64 36 -108 65 -124 82 -181 116 -192 116 -6 0 -16 7 -23 15 -7 8 -30
20 -51 27 -22 6 -39 14 -39 18 0 4 -24 17 -52 31 -29 13 -55 27 -58 30 -5 6
-251 127 -340 166 -25 12 -70 32 -100 46 -30 13 -73 30 -95 37 -22 7 -42 16
-45 20 -3 4 -30 15 -60 25 -30 9 -73 25 -95 35 -22 11 -61 24 -87 31 -27 6
-48 15 -48 19 0 4 -33 16 -72 25 -40 10 -75 21 -78 25 -3 4 -50 18 -105 31
-55 13 -102 26 -105 30 -3 4 -41 14 -85 24 -44 9 -89 20 -100 25 -25 12 -227
50 -261 50 -14 0 -23 4 -20 8 3 5 -57 16 -132 26 -75 10 -146 22 -157 26 -85
36 -927 52 -1210 24z m800 -54 c194 -13 346 -30 370 -39 11 -5 79 -16 150 -25
72 -10 134 -21 140 -27 5 -5 20 -9 33 -9 32 0 222 -38 247 -50 11 -5 47 -14
80 -20 33 -7 74 -18 90 -25 17 -7 70 -23 120 -35 49 -12 94 -25 100 -29 5 -5
35 -14 65 -21 30 -7 64 -18 75 -24 11 -7 43 -18 70 -25 28 -7 68 -20 90 -31
22 -10 58 -24 80 -30 22 -7 56 -21 75 -31 19 -11 39 -19 44 -19 5 0 37 -13 70
-29 34 -16 84 -39 111 -51 114 -52 321 -154 335 -166 8 -6 34 -17 57 -23 23
-7 45 -16 48 -21 3 -5 25 -19 48 -30 99 -48 273 -155 372 -229 22 -17 56 -40
75 -51 19 -11 53 -34 75 -51 22 -16 51 -37 65 -47 69 -47 222 -168 388 -307
256 -214 595 -590 784 -870 15 -22 41 -58 57 -80 17 -22 34 -47 38 -55 7 -14
53 -85 129 -199 16 -24 34 -52 40 -62 6 -11 17 -27 25 -36 8 -10 23 -34 32
-53 10 -19 37 -69 61 -109 24 -41 42 -81 39 -88 -3 -7 0 -13 7 -13 6 0 9 -4 6
-9 -3 -5 1 -12 10 -15 8 -3 13 -10 10 -15 -3 -5 1 -11 9 -15 8 -3 12 -12 9
-21 -3 -8 -1 -15 6 -15 6 0 8 -4 5 -10 -3 -5 -2 -10 4 -10 6 0 8 -6 5 -14 -3
-7 1 -16 9 -19 8 -3 20 -26 27 -51 7 -25 16 -46 19 -46 4 0 13 -17 20 -37 15
-41 73 -172 95 -213 7 -14 19 -43 26 -65 7 -22 26 -68 41 -102 16 -34 29 -67
29 -73 0 -6 6 -21 14 -33 7 -12 21 -51 31 -87 9 -36 21 -69 25 -75 5 -5 16
-39 25 -75 9 -36 22 -78 30 -95 7 -16 21 -66 30 -110 10 -44 21 -84 25 -90 4
-5 15 -46 24 -90 10 -44 21 -87 25 -95 5 -9 18 -74 31 -145 12 -72 26 -137 30
-147 5 -9 16 -81 26 -160 9 -78 20 -152 24 -163 14 -33 30 -236 37 -455 6
-206 -17 -611 -37 -649 -5 -9 -16 -81 -25 -159 -9 -79 -20 -151 -25 -160 -5
-10 -18 -72 -29 -140 -12 -67 -25 -130 -30 -140 -5 -9 -17 -55 -26 -102 -10
-47 -21 -89 -25 -95 -4 -5 -15 -46 -25 -90 -9 -44 -23 -93 -30 -110 -8 -16
-21 -59 -30 -95 -9 -36 -20 -69 -25 -75 -4 -5 -17 -44 -30 -85 -12 -41 -25
-79 -30 -85 -4 -5 -13 -28 -20 -50 -7 -21 -24 -60 -36 -86 -13 -26 -24 -53
-24 -60 0 -7 -9 -31 -19 -53 -53 -112 -89 -195 -102 -228 -7 -21 -16 -38 -19
-38 -4 0 -13 -19 -20 -42 -7 -24 -20 -48 -28 -55 -8 -6 -11 -16 -7 -22 3 -6 1
-11 -5 -11 -6 0 -8 -4 -5 -10 3 -5 1 -10 -5 -10 -7 0 -9 -7 -6 -15 3 -9 -1
-18 -9 -21 -8 -4 -12 -10 -9 -15 3 -5 -2 -12 -10 -15 -9 -3 -13 -10 -10 -15 3
-5 1 -9 -3 -9 -5 0 -9 -9 -10 -20 -1 -16 -21 -55 -68 -131 -5 -9 -22 -38 -38
-65 -15 -27 -35 -61 -45 -75 -9 -14 -30 -46 -46 -70 -17 -24 -59 -88 -95 -142
-127 -190 -157 -233 -201 -289 -25 -32 -61 -78 -80 -103 -109 -145 -323 -388
-431 -490 -110 -104 -456 -391 -535 -445 -13 -8 -68 -48 -124 -88 -55 -40
-126 -91 -158 -112 -31 -22 -79 -55 -107 -74 -27 -20 -63 -41 -80 -47 -16 -7
-38 -19 -47 -27 -19 -16 -61 -40 -135 -77 -29 -15 -55 -30 -58 -35 -2 -4 -20
-11 -39 -14 -19 -4 -39 -13 -45 -20 -6 -7 -33 -21 -59 -31 -26 -10 -54 -23
-62 -30 -8 -6 -31 -18 -50 -25 -19 -7 -42 -19 -50 -25 -8 -7 -37 -21 -65 -31
-27 -10 -63 -26 -80 -35 -16 -9 -41 -20 -55 -24 -14 -4 -32 -13 -40 -20 -8 -7
-38 -20 -66 -29 -28 -9 -68 -25 -90 -36 -21 -11 -45 -20 -54 -20 -8 0 -32 -9
-52 -19 -20 -11 -64 -27 -99 -36 -35 -9 -68 -20 -74 -25 -5 -4 -39 -16 -75
-25 -36 -9 -78 -23 -95 -30 -16 -7 -55 -18 -85 -25 -30 -7 -60 -16 -65 -21 -6
-4 -62 -18 -125 -31 -63 -13 -117 -26 -120 -30 -3 -4 -51 -15 -105 -24 -55 -9
-107 -20 -117 -24 -19 -11 -292 -50 -342 -50 -19 0 -37 -4 -40 -9 -11 -17
-305 -36 -556 -36 -244 0 -515 17 -549 35 -9 5 -65 14 -126 20 -60 6 -141 18
-180 25 -38 8 -122 23 -185 35 -63 12 -117 25 -120 29 -3 4 -54 17 -115 30
-60 12 -114 26 -120 31 -5 4 -37 13 -70 20 -33 7 -73 18 -90 25 -16 7 -57 21
-90 30 -33 9 -64 20 -70 24 -5 5 -39 16 -75 25 -36 10 -74 23 -85 30 -11 7
-40 18 -65 25 -25 7 -54 18 -65 25 -11 7 -45 21 -75 31 -30 10 -62 23 -70 30
-8 7 -33 18 -55 25 -22 7 -47 18 -55 25 -8 6 -37 20 -65 30 -27 10 -57 23 -65
30 -8 7 -30 17 -49 24 -19 6 -42 17 -50 25 -9 7 -37 21 -63 31 -26 10 -53 24
-59 31 -6 7 -26 16 -45 20 -19 3 -37 10 -39 14 -3 5 -29 20 -58 34 -48 24 -73
38 -197 111 -90 52 -121 72 -143 91 -24 21 -120 88 -170 118 -18 11 -58 40
-89 65 -31 25 -78 62 -105 81 -326 236 -618 520 -886 860 -58 74 -118 149
-132 166 -14 18 -31 43 -38 56 -6 13 -29 46 -50 73 -41 54 -133 190 -157 234
-8 15 -26 43 -40 61 -30 42 -40 57 -122 199 -33 56 -78 149 -77 158 0 3 -6 10
-15 15 -9 5 -14 13 -11 19 4 5 2 9 -4 9 -6 0 -8 6 -5 14 3 7 -2 16 -11 20 -9
3 -13 10 -10 16 3 5 1 10 -5 10 -6 0 -8 5 -5 10 3 6 1 10 -5 10 -6 0 -8 5 -5
10 3 6 2 10 -4 10 -6 0 -8 6 -5 14 3 7 -2 20 -10 29 -9 9 -16 20 -16 25 0 13
-41 106 -49 112 -4 3 -16 30 -28 60 -28 73 -70 175 -94 227 -10 24 -19 46 -19
50 0 5 -7 22 -16 38 -9 17 -25 59 -35 95 -11 36 -26 76 -33 90 -7 14 -19 50
-26 80 -7 30 -16 60 -20 65 -5 6 -18 48 -29 95 -12 47 -26 94 -31 105 -6 11
-17 54 -25 95 -9 41 -22 93 -30 115 -8 22 -22 85 -31 140 -9 55 -20 105 -24
110 -5 6 -16 71 -25 145 -10 74 -21 144 -26 155 -17 43 -50 455 -50 640 1 191
32 598 50 640 5 11 16 81 26 155 9 74 20 140 25 145 4 6 17 66 29 135 13 69
26 129 30 135 4 5 16 48 26 95 10 46 22 91 26 100 5 8 18 53 30 100 11 47 24
90 29 95 4 6 13 35 20 65 7 30 18 64 24 75 7 11 21 49 30 85 10 35 27 80 37
99 10 20 19 39 19 43 0 4 11 31 24 60 13 29 27 64 31 78 4 14 20 52 36 85 15
33 31 72 34 88 4 15 11 27 15 27 4 0 18 28 31 63 12 34 27 65 31 68 5 3 10 16
11 27 1 12 5 22 10 22 4 0 5 5 2 10 -3 6 -1 10 5 10 6 0 8 5 5 10 -3 6 1 13 9
16 9 3 13 10 10 15 -3 5 0 9 6 9 7 0 10 7 6 15 -3 8 -1 15 5 15 6 0 7 5 4 10
-3 6 -1 10 5 10 6 0 9 4 5 9 -3 5 -1 12 4 16 5 3 21 29 35 58 15 28 39 75 55
102 17 28 37 64 45 81 8 17 22 36 30 44 9 7 16 17 16 22 0 6 13 27 29 47 15
20 34 48 42 63 8 15 33 54 57 88 23 34 42 65 42 67 0 3 17 28 37 56 21 28 43
59 48 69 32 55 294 384 393 493 256 281 617 588 949 808 56 38 105 72 108 78
4 5 23 18 43 29 20 12 57 34 82 50 25 17 65 40 90 53 45 23 75 40 141 84 19
12 44 23 55 23 10 0 30 7 44 14 38 22 297 150 365 181 33 15 76 35 95 45 19
10 53 23 75 30 22 7 49 19 60 25 11 7 38 18 60 25 22 7 45 16 50 20 6 5 44 18
85 30 41 11 83 26 94 32 10 5 42 17 70 25 28 8 65 20 81 28 17 7 66 21 110 30
44 10 85 21 90 25 6 4 46 15 90 24 44 10 87 21 96 26 20 10 143 36 219 46 30
4 60 10 65 15 11 8 207 39 252 39 16 0 33 4 39 9 8 9 253 35 404 44 127 8 375
6 505 -3z"/>
<path d="M10150 18263 c0 -4 -62 -8 -138 -8 -75 1 -151 -2 -169 -6 -18 -4 -36
-2 -42 4 -7 7 -11 8 -11 1 0 -6 -6 -11 -12 -11 -38 -1 -209 -15 -248 -20 -25
-4 -63 -7 -85 -7 -22 -1 -43 -4 -46 -9 -5 -7 -78 -18 -126 -19 -13 0 -23 -3
-23 -7 0 -5 -18 -7 -40 -7 -22 1 -40 -1 -40 -5 0 -3 -6 -6 -12 -7 -16 -1 -57
-9 -83 -15 -78 -20 -118 -27 -123 -22 -3 2 -10 1 -16 -4 -6 -6 -23 -12 -36
-14 -14 -2 -32 -7 -40 -10 -16 -7 -93 -26 -125 -31 -11 -2 -22 -5 -25 -6 -3
-2 -9 -4 -15 -5 -5 -1 -18 -5 -27 -8 -25 -10 -47 -16 -53 -17 -3 0 -21 -7 -41
-15 -20 -8 -40 -12 -45 -9 -5 3 -9 0 -9 -6 0 -6 -4 -9 -9 -5 -5 3 -12 1 -15
-4 -4 -5 -24 -12 -46 -16 -22 -4 -40 -11 -40 -15 0 -5 -9 -7 -20 -5 -11 2 -20
-1 -20 -7 0 -5 -7 -8 -15 -4 -8 3 -15 1 -15 -4 0 -6 -9 -10 -20 -10 -11 0 -20
-5 -20 -11 0 -5 -8 -10 -17 -9 -26 3 -63 -11 -63 -22 0 -6 -7 -8 -15 -4 -8 3
-15 1 -15 -4 0 -6 -9 -10 -20 -10 -11 0 -20 -4 -20 -9 0 -5 -10 -11 -22 -14
-49 -12 -123 -43 -131 -55 -5 -7 -12 -10 -17 -7 -5 3 -11 1 -15 -5 -3 -5 -15
-10 -26 -10 -10 0 -19 -4 -19 -9 0 -5 -12 -12 -27 -16 -42 -10 -153 -66 -153
-77 0 -5 -4 -7 -9 -4 -5 3 -25 -5 -45 -19 -20 -14 -48 -28 -62 -31 -14 -4 -28
-13 -31 -20 -3 -8 -13 -14 -23 -14 -11 0 -22 -5 -25 -10 -4 -6 -11 -8 -16 -5
-5 4 -9 -1 -9 -10 0 -9 -4 -14 -8 -11 -5 3 -33 -10 -63 -29 -29 -19 -57 -35
-62 -35 -4 0 -32 -18 -62 -40 -30 -22 -59 -40 -65 -40 -5 0 -10 -4 -10 -9 0
-5 -14 -14 -30 -20 -17 -5 -33 -17 -36 -26 -3 -8 -12 -15 -20 -15 -8 0 -14 -4
-14 -10 0 -5 -7 -10 -15 -10 -8 0 -15 -4 -15 -10 0 -5 -7 -10 -15 -10 -7 0
-19 -8 -24 -17 -6 -10 -11 -15 -11 -11 0 4 -9 0 -21 -10 -11 -9 -33 -27 -47
-39 -15 -13 -32 -23 -39 -23 -6 0 -18 -8 -25 -18 -7 -9 -29 -29 -48 -43 -19
-15 -45 -37 -57 -48 -13 -12 -23 -19 -23 -15 0 3 -7 1 -15 -6 -8 -7 -12 -17
-8 -23 3 -5 2 -7 -3 -4 -6 3 -33 -15 -61 -41 -28 -26 -62 -55 -75 -65 -53 -40
-195 -173 -265 -248 -18 -19 -37 -38 -42 -44 -30 -30 -113 -121 -137 -150 -15
-19 -32 -32 -36 -29 -4 3 -8 -1 -8 -8 0 -8 -9 -21 -20 -31 -12 -10 -18 -23
-14 -30 4 -6 4 -9 -1 -5 -9 8 -35 -15 -35 -31 0 -6 -4 -11 -8 -11 -5 0 -15
-11 -22 -25 -7 -13 -17 -22 -22 -19 -4 3 -8 -1 -8 -9 0 -7 -11 -24 -25 -37
-13 -12 -22 -27 -19 -31 3 -5 1 -9 -5 -9 -5 0 -18 -13 -27 -29 -10 -17 -21
-28 -26 -25 -4 3 -8 -2 -8 -10 0 -9 -9 -26 -20 -38 -44 -50 -50 -59 -50 -74 0
-8 -4 -12 -10 -9 -5 3 -10 2 -10 -4 0 -6 -18 -36 -40 -68 -22 -32 -46 -66 -53
-77 -6 -10 -18 -24 -25 -32 -7 -7 -13 -17 -13 -21 0 -4 -27 -51 -60 -104 -32
-53 -59 -102 -59 -108 0 -7 -4 -10 -9 -7 -5 4 -12 -8 -16 -25 -4 -17 -13 -33
-21 -36 -8 -3 -12 -9 -9 -13 3 -4 -6 -23 -19 -43 -22 -33 -36 -62 -36 -79 0
-5 -9 -17 -19 -27 -10 -10 -22 -33 -26 -50 -4 -17 -10 -29 -15 -26 -4 3 -11
-7 -14 -23 -4 -15 -25 -63 -47 -107 -21 -44 -41 -91 -44 -103 -2 -13 -23 -61
-45 -109 -56 -116 -63 -133 -66 -168 -1 -16 -15 -57 -30 -90 -27 -62 -42 -103
-50 -143 -3 -13 -14 -47 -24 -75 -11 -29 -20 -61 -20 -72 0 -12 -4 -25 -10
-31 -5 -5 -12 -25 -14 -44 -3 -19 -5 -35 -6 -35 -1 0 -3 -7 -5 -15 -11 -43
-24 -98 -29 -120 -3 -14 -9 -40 -15 -57 -5 -18 -7 -33 -4 -33 3 0 0 -6 -6 -14
-7 -8 -11 -20 -10 -28 2 -7 -1 -31 -5 -53 -11 -53 -15 -73 -21 -115 -3 -19 -9
-57 -15 -85 -5 -27 -12 -77 -16 -110 -8 -71 -9 -77 -17 -135 -4 -25 -10 -81
-13 -125 -3 -44 -8 -100 -10 -125 -13 -160 -6 -666 11 -775 6 -34 14 -117 19
-190 2 -27 8 -80 15 -118 6 -37 13 -79 15 -95 2 -15 6 -43 10 -62 3 -19 8 -46
10 -60 14 -78 90 -385 96 -388 4 -2 6 -12 3 -22 -3 -11 0 -20 6 -20 5 0 8 -7
5 -15 -4 -8 -2 -21 4 -28 5 -6 12 -25 16 -42 15 -68 40 -145 48 -145 4 0 5 -7
2 -15 -4 -8 -2 -21 4 -28 6 -7 16 -34 22 -60 7 -26 17 -47 22 -47 5 0 6 -9 3
-20 -4 -11 -2 -20 4 -20 6 0 11 -6 11 -12 0 -17 37 -111 95 -243 14 -33 30
-69 35 -80 7 -18 44 -101 73 -162 6 -13 14 -23 19 -23 4 0 8 -9 8 -19 0 -11 4
-22 9 -26 5 -3 12 -18 16 -34 3 -16 12 -32 20 -34 7 -3 16 -19 20 -36 4 -17
10 -33 15 -36 5 -3 23 -34 40 -68 18 -34 38 -69 46 -78 8 -8 14 -23 14 -32 0
-9 4 -17 8 -17 5 0 19 -19 32 -42 13 -24 34 -57 47 -74 13 -17 23 -36 23 -42
0 -7 5 -12 10 -12 6 0 10 -6 10 -13 0 -7 10 -23 23 -37 12 -14 28 -37 34 -52
7 -16 17 -28 22 -28 5 0 14 -13 21 -30 7 -16 15 -30 19 -30 4 0 15 -15 26 -32
10 -18 29 -44 42 -58 13 -14 23 -28 23 -32 0 -6 18 -29 68 -85 12 -14 22 -30
22 -35 0 -5 5 -6 10 -3 6 3 10 0 10 -7 0 -8 12 -27 28 -44 15 -16 39 -46 54
-65 14 -19 61 -70 102 -113 42 -43 76 -83 76 -88 0 -5 5 -6 10 -3 6 3 10 1 10
-4 0 -10 155 -171 163 -171 2 0 36 -32 75 -71 40 -39 72 -69 72 -66 0 4 18
-11 40 -33 22 -22 40 -36 40 -32 0 4 10 -4 23 -18 18 -21 85 -76 175 -145 7
-5 21 -17 31 -25 9 -9 33 -26 52 -38 19 -12 43 -30 53 -41 10 -11 22 -18 26
-16 4 3 10 -2 14 -10 3 -8 12 -15 21 -15 8 0 15 -4 15 -8 0 -5 16 -17 35 -28
19 -10 35 -22 35 -26 0 -5 7 -8 15 -8 9 0 18 -7 21 -15 4 -8 10 -13 14 -10 5
3 14 0 22 -7 7 -7 29 -22 48 -32 19 -11 38 -24 42 -30 3 -5 13 -11 21 -12 8
-1 33 -16 57 -33 24 -17 48 -31 55 -31 7 0 20 -9 30 -20 10 -11 21 -17 26 -15
4 3 13 -1 21 -8 11 -11 25 -19 56 -29 4 -1 15 -9 25 -18 10 -8 21 -16 25 -16
25 -5 52 -18 52 -25 0 -4 18 -14 40 -20 22 -7 45 -18 51 -26 6 -7 15 -13 20
-13 5 0 44 -17 87 -37 42 -21 82 -38 88 -39 6 -1 27 -9 45 -17 42 -18 68 -27
73 -24 2 1 13 -7 25 -17 12 -11 21 -15 21 -11 0 4 8 1 18 -7 9 -8 42 -23 72
-32 149 -47 264 -89 268 -98 2 -4 9 -5 16 -2 6 2 32 -3 56 -12 25 -9 58 -18
73 -20 15 -2 38 -9 50 -16 12 -7 33 -14 47 -15 22 -3 29 -5 50 -12 7 -3 75
-19 155 -37 63 -14 86 -19 135 -28 8 -1 29 -6 45 -10 17 -3 46 -9 65 -12 33
-5 59 -9 105 -18 33 -7 117 -18 160 -21 22 -2 40 -4 40 -5 0 -1 20 -3 45 -5
25 -3 65 -7 90 -11 25 -3 70 -7 100 -10 82 -7 710 -10 710 -4 0 3 35 7 78 9
140 4 152 5 152 11 0 3 18 5 40 5 22 0 40 2 40 5 0 3 10 6 23 6 12 1 38 4 57
8 19 4 51 9 70 11 48 5 109 14 145 20 17 3 44 7 60 10 51 8 89 16 105 22 8 3
24 7 36 8 11 2 38 8 60 14 43 11 91 21 114 24 8 1 17 5 20 9 3 4 19 9 35 12
17 3 45 10 63 15 17 5 32 8 32 5 0 -3 10 1 23 8 26 14 21 13 75 23 23 4 42 11
42 16 0 5 8 9 18 9 9 0 62 17 117 36 55 20 123 44 150 54 46 16 92 35 182 76
17 8 38 14 46 14 9 0 19 5 22 10 4 6 10 8 15 5 5 -3 12 -1 15 5 9 15 157 84
173 82 6 -2 12 2 12 8 0 5 6 10 13 10 7 0 19 6 26 13 6 6 15 12 19 13 16 1 92
39 92 46 0 3 16 12 35 18 19 6 35 16 35 21 0 5 6 9 14 9 7 0 25 9 39 20 14 11
30 20 35 20 10 0 105 59 129 80 7 5 19 10 28 10 8 0 15 4 15 10 0 5 11 12 25
16 14 3 31 14 38 24 7 10 21 20 32 22 11 2 19 10 17 17 -1 7 2 10 7 7 5 -3 14
1 21 9 7 8 17 15 22 15 5 0 23 13 41 30 18 16 40 30 50 30 10 0 15 5 12 10 -3
6 1 10 9 10 9 0 16 5 16 10 0 6 7 10 15 10 8 0 15 5 15 10 0 6 5 10 11 10 7 0
31 17 54 38 59 53 84 72 93 72 4 0 30 21 58 48 27 26 67 60 89 76 22 16 69 59
105 95 36 36 82 80 103 97 20 17 33 34 29 38 -4 4 -2 6 3 5 14 -5 65 31 65 46
0 6 16 26 35 44 19 17 35 36 35 42 0 6 5 7 10 4 6 -3 10 -2 10 3 0 13 88 101
94 94 3 -3 6 1 6 10 0 19 35 60 44 51 3 -3 6 0 6 8 0 8 8 22 18 31 9 9 28 32
42 52 14 19 31 36 38 36 8 0 12 6 10 12 -5 15 15 38 32 38 6 0 9 4 5 9 -3 6 0
13 8 18 7 4 20 20 29 34 9 14 23 32 30 40 28 30 69 89 61 89 -4 0 0 5 10 11 9
5 17 17 17 25 0 8 4 13 9 10 5 -3 16 10 25 29 9 19 21 35 26 35 6 0 10 9 10
21 0 11 4 18 9 15 5 -3 12 5 15 19 4 14 11 25 16 25 6 0 10 7 10 15 0 8 4 15
10 15 5 0 12 11 16 25 3 14 10 23 14 20 4 -3 11 6 14 20 4 14 11 25 16 25 6 0
10 7 10 15 0 8 9 24 20 35 12 12 18 25 15 30 -4 6 1 13 9 16 9 3 16 14 16 24
0 9 9 27 20 40 11 13 20 29 20 37 0 8 4 12 10 8 5 -3 14 13 20 35 6 22 15 40
20 40 4 0 11 14 15 31 4 17 13 33 20 35 7 3 15 18 18 33 3 16 12 35 20 43 8 7
22 37 31 66 10 28 22 52 27 52 6 0 8 4 5 9 -4 5 -2 11 2 13 5 1 21 37 37 78
15 41 34 79 42 83 7 4 13 16 13 26 0 10 3 21 8 25 4 4 7 11 8 14 0 4 3 14 6
22 4 8 9 24 14 35 4 11 8 22 8 25 1 3 7 14 13 25 6 11 11 22 11 25 0 3 6 19
12 35 7 17 13 35 14 40 1 6 10 27 19 49 9 21 15 42 12 46 -3 4 8 40 25 79 16
39 31 83 33 99 4 26 6 33 23 77 4 11 8 28 9 37 1 9 7 30 13 45 6 15 11 35 11
43 0 15 19 91 29 120 3 8 7 22 8 30 5 27 12 55 15 55 1 0 3 9 5 20 2 11 6 38
10 60 3 22 8 49 9 60 2 11 4 20 5 20 3 0 8 27 15 80 3 22 8 51 11 65 4 14 8
41 9 60 2 19 4 37 5 40 2 3 4 19 5 35 1 17 5 37 8 45 3 8 5 26 3 40 -1 14 0
30 3 35 3 6 7 26 7 45 1 19 5 64 8 100 13 136 21 463 12 478 -3 6 -2 14 4 17
6 4 8 15 5 26 -4 10 -8 76 -11 146 -5 129 -8 173 -18 273 -4 30 -8 80 -11 110
-3 30 -8 69 -10 85 -3 17 -7 48 -10 70 -2 22 -9 55 -14 73 -5 18 -8 39 -5 47
3 7 0 16 -5 20 -6 3 -9 10 -7 14 3 4 1 23 -4 42 -5 19 -12 50 -14 70 -3 20
-11 63 -20 95 -8 32 -17 78 -21 101 -4 24 -11 45 -15 48 -5 3 -7 12 -4 19 3 8
0 17 -5 21 -6 3 -9 11 -5 16 3 5 0 17 -7 25 -6 8 -9 17 -6 21 4 3 3 11 -1 17
-5 6 -19 50 -32 99 -12 48 -26 87 -30 87 -5 0 -6 9 -3 20 3 11 0 20 -6 20 -6
0 -11 9 -11 20 0 19 -23 88 -39 120 -5 9 -12 30 -16 49 -4 18 -13 44 -21 59
-8 15 -14 33 -14 40 0 6 -4 12 -10 12 -5 0 -10 8 -10 18 0 10 -3 22 -7 26 -4
3 -8 14 -9 24 -2 20 -26 85 -34 92 -3 3 -14 25 -24 50 -10 25 -34 76 -54 115
-46 93 -48 95 -63 130 -7 17 -21 42 -30 56 -10 14 -21 38 -25 53 -3 15 -13 30
-20 33 -8 3 -14 13 -14 22 0 9 -9 27 -20 41 -11 14 -20 31 -20 38 0 6 -4 12
-8 12 -5 0 -14 16 -22 35 -8 19 -17 35 -21 35 -4 0 -10 8 -13 18 -7 20 -10 24
-101 167 -38 61 -79 121 -92 134 -13 13 -23 30 -23 38 0 8 -4 11 -10 8 -5 -3
-10 -1 -10 5 0 14 -92 140 -102 140 -5 0 -8 6 -8 13 0 6 -13 26 -28 43 -15 18
-49 60 -77 94 -27 34 -71 85 -97 113 -26 29 -48 56 -48 60 0 5 -4 5 -10 2 -5
-3 -10 -2 -10 4 0 5 -16 26 -35 47 -19 20 -35 41 -35 46 0 5 -4 6 -10 3 -5 -3
-10 -2 -10 3 0 12 -123 137 -132 134 -4 -1 -10 7 -13 18 -4 11 -11 20 -16 20
-5 0 -41 32 -80 70 -39 39 -72 70 -75 70 -2 0 -12 8 -22 18 -37 35 -92 82 -96
82 -2 0 -17 13 -34 28 -16 16 -43 38 -59 50 -137 106 -172 132 -181 132 -5 0
-12 7 -16 15 -3 8 -12 15 -20 15 -8 0 -16 3 -18 8 -1 4 -23 21 -48 37 -25 17
-50 37 -57 45 -7 8 -13 11 -13 7 0 -5 -18 6 -40 23 -22 17 -40 28 -40 24 0 -4
-9 2 -21 14 -11 12 -24 20 -30 17 -5 -4 -9 -2 -9 4 0 9 -28 28 -77 50 -13 6
-23 15 -23 21 0 5 -9 10 -20 10 -11 0 -23 7 -26 15 -4 8 -10 13 -14 10 -4 -3
-24 6 -44 20 -20 13 -36 22 -36 18 0 -3 -8 1 -17 9 -10 8 -34 22 -53 32 -19 9
-42 21 -50 25 -20 12 -253 126 -260 127 -3 0 -12 3 -20 6 -8 4 -24 9 -35 14
-11 4 -24 8 -28 8 -4 1 -11 7 -16 14 -4 7 -14 15 -22 16 -8 2 -27 9 -44 15
-16 7 -65 26 -109 42 -43 16 -84 33 -90 36 -6 4 -16 8 -23 9 -7 1 -26 9 -42
17 -17 8 -31 11 -33 7 -2 -5 -20 0 -41 10 -21 10 -41 19 -45 19 -4 1 -20 6
-37 12 -16 7 -43 14 -60 16 -16 3 -46 13 -67 23 -20 10 -38 14 -40 10 -2 -4
-19 0 -38 8 -19 8 -46 16 -59 18 -13 2 -31 6 -40 10 -9 4 -25 8 -37 9 -12 1
-30 5 -40 10 -10 4 -28 9 -39 11 -58 8 -85 13 -94 18 -5 4 -31 9 -57 12 -27 3
-55 9 -64 13 -8 4 -33 9 -54 10 -22 1 -43 4 -48 7 -5 3 -23 7 -41 10 -18 2
-48 6 -67 9 -37 6 -105 15 -130 17 -8 0 -21 5 -27 11 -9 6 -13 6 -13 -2 0 -8
-6 -9 -17 -3 -10 4 -31 8 -48 7 -16 -1 -36 2 -42 8 -9 6 -13 5 -13 -3 0 -10
-3 -10 -15 0 -12 10 -15 10 -15 0 0 -9 -4 -9 -12 -3 -7 6 -31 10 -54 10 -22 0
-46 3 -52 7 -7 4 -12 2 -12 -4 0 -6 -4 -9 -8 -6 -5 3 -71 8 -146 11 -76 2
-142 7 -147 11 -5 3 -9 2 -9 -3z m-1432 -1516 c6 -5 12 -4 12 1 0 5 17 7 38 6
20 -2 69 -6 107 -8 39 -2 70 -5 70 -6 0 -2 105 -10 137 -11 10 0 20 -4 23 -10
4 -5 11 -9 16 -9 6 0 7 5 3 12 -5 7 -3 8 6 3 7 -4 23 -9 34 -11 12 -1 37 -5
56 -9 19 -4 45 -9 58 -10 13 -2 29 -9 37 -15 11 -9 15 -9 15 -1 0 8 6 9 18 2
16 -8 51 -17 115 -26 15 -3 37 -10 48 -16 11 -6 23 -8 26 -5 3 2 27 -4 54 -15
27 -10 53 -18 57 -17 11 3 84 -23 110 -38 14 -9 22 -11 22 -4 0 7 7 4 16 -4 8
-9 21 -17 27 -17 40 -5 55 -8 82 -19 17 -6 31 -10 31 -8 1 2 10 -4 20 -12 21
-17 61 -37 114 -55 28 -10 48 -18 65 -28 11 -6 38 -19 60 -29 22 -10 47 -23
55 -28 8 -6 26 -15 40 -20 14 -6 32 -15 40 -20 8 -6 25 -14 38 -20 12 -5 22
-14 22 -20 0 -5 8 -10 19 -10 10 0 24 -7 31 -15 6 -8 21 -17 33 -21 12 -4 27
-13 35 -20 7 -8 18 -12 23 -9 5 4 9 2 9 -4 0 -5 11 -16 23 -23 58 -32 127 -81
127 -89 0 -5 9 -9 20 -9 11 0 20 -4 20 -9 0 -5 30 -31 68 -57 77 -55 109 -82
169 -140 23 -23 44 -39 47 -37 2 3 12 -7 21 -21 10 -14 21 -23 26 -20 5 3 9 1
9 -4 0 -5 27 -36 60 -68 33 -32 64 -63 70 -69 27 -27 108 -117 130 -145 22
-29 40 -51 82 -100 7 -8 33 -41 57 -75 24 -33 47 -62 51 -65 3 -3 15 -21 26
-40 10 -19 22 -37 25 -40 12 -11 99 -151 99 -160 0 -6 4 -10 9 -10 5 0 13 -10
17 -22 4 -13 20 -42 35 -65 16 -23 29 -48 29 -56 0 -9 3 -17 8 -19 9 -4 73
-133 99 -200 10 -27 21 -48 26 -48 4 0 7 -6 7 -14 0 -8 13 -44 30 -79 31 -66
37 -93 21 -83 -5 4 -11 1 -13 -5 -2 -5 -17 -11 -33 -12 -17 -2 -35 -6 -40 -9
-6 -3 -28 -9 -50 -13 -22 -4 -49 -12 -60 -18 -11 -6 -27 -12 -35 -13 -25 -3
-128 -43 -193 -74 -33 -16 -64 -27 -69 -24 -4 3 -8 0 -8 -5 0 -6 -9 -11 -19
-11 -10 0 -21 -7 -25 -15 -3 -8 -11 -15 -18 -15 -20 -1 -89 -36 -83 -42 3 -3
-6 -9 -21 -12 -26 -7 -70 -34 -111 -70 -13 -11 -23 -16 -23 -12 0 7 -15 -4
-76 -54 -7 -5 -15 -6 -18 -3 -3 4 -6 1 -6 -5 0 -5 -16 -20 -35 -32 -37 -23
-63 -43 -122 -97 -20 -18 -40 -33 -45 -33 -5 0 -7 -3 -5 -7 3 -5 -1 -14 -9
-21 -8 -7 -14 -10 -14 -6 0 4 -9 -1 -20 -11 -11 -10 -20 -22 -20 -26 0 -5 -29
-39 -65 -75 -36 -37 -65 -70 -65 -75 0 -5 -7 -9 -16 -9 -8 0 -12 -5 -9 -10 7
-12 -20 -42 -29 -33 -3 4 -6 -3 -6 -15 0 -12 -6 -22 -12 -22 -13 -1 -58 -63
-58 -80 0 -4 -7 -10 -15 -14 -8 -3 -15 -12 -15 -21 0 -8 -3 -15 -7 -15 -5 0
-17 -18 -27 -40 -11 -22 -23 -40 -28 -40 -4 0 -8 -7 -8 -15 0 -7 -7 -18 -15
-23 -9 -4 -17 -19 -20 -32 -2 -13 -8 -26 -13 -29 -9 -6 -23 -37 -28 -59 -1 -8
-10 -22 -19 -32 -9 -10 -21 -35 -27 -56 -5 -22 -18 -50 -27 -64 -26 -38 -112
-278 -115 -320 -1 -14 -5 -31 -9 -38 -9 -13 -55 -237 -61 -292 -15 -143 -19
-219 -19 -315 1 -130 13 -292 27 -360 1 -5 5 -23 9 -40 3 -16 9 -48 12 -70 8
-58 66 -278 76 -291 5 -6 7 -13 4 -16 -3 -3 1 -18 10 -34 8 -16 15 -35 15 -41
0 -7 5 -13 11 -13 5 0 9 -8 8 -17 -1 -10 3 -29 8 -43 23 -55 74 -159 111 -225
71 -127 84 -150 98 -166 8 -8 14 -20 14 -25 0 -6 8 -19 18 -30 10 -10 27 -34
37 -51 11 -18 23 -33 27 -33 5 0 12 -8 16 -19 8 -21 82 -109 162 -193 30 -32
60 -62 65 -68 30 -33 116 -106 119 -102 3 2 9 -6 16 -17 6 -12 17 -21 25 -21
8 0 15 -4 15 -9 0 -6 30 -31 68 -58 37 -26 70 -52 74 -58 4 -5 12 -10 18 -10
6 0 14 -5 18 -11 4 -6 14 -14 22 -17 8 -4 38 -21 65 -37 28 -17 66 -38 85 -48
19 -9 38 -21 42 -27 4 -5 11 -10 15 -11 29 -3 62 -18 67 -30 3 -8 14 -14 24
-14 10 0 22 -4 27 -8 6 -5 51 -24 100 -42 50 -18 106 -40 125 -48 38 -17 50
-20 92 -27 15 -2 35 -8 45 -13 10 -6 32 -13 48 -16 17 -3 73 -14 126 -25 52
-10 118 -22 145 -25 27 -3 76 -9 109 -13 114 -13 518 -5 544 12 6 3 26 6 46 7
19 1 35 4 35 7 0 3 12 7 28 8 67 4 92 9 92 16 0 5 8 7 18 6 9 -1 20 -1 25 0 4
0 8 1 10 0 1 0 16 5 32 11 31 12 71 22 93 23 6 0 12 3 12 6 0 7 91 36 103 33
4 -1 7 3 7 9 0 5 4 8 8 5 5 -3 20 1 35 9 14 7 28 11 31 7 3 -3 6 -1 6 5 0 10
46 28 63 25 4 -1 7 2 7 8 0 5 9 10 20 10 11 0 20 5 20 10 0 6 9 10 20 10 11 0
20 5 20 10 0 6 3 9 8 9 13 -3 72 23 72 31 0 5 14 11 30 15 17 4 30 10 30 13 0
4 21 18 48 32 26 14 53 30 60 37 7 7 18 13 23 13 11 0 31 15 57 43 9 9 22 17
29 17 7 0 13 5 13 10 0 6 5 10 10 10 6 0 21 11 34 25 13 13 26 22 29 18 4 -3
7 0 7 7 0 7 3 11 6 7 8 -8 33 16 27 26 -2 4 3 7 11 7 9 0 16 4 16 9 0 5 9 13
20 16 11 4 18 11 15 16 -4 5 -2 9 4 9 11 0 162 149 202 199 13 16 27 27 31 25
4 -3 8 4 8 16 0 12 4 19 8 16 5 -3 17 6 27 20 10 14 29 37 42 52 13 15 23 31
23 35 0 5 5 5 10 2 6 -3 10 3 10 14 0 12 5 21 10 21 6 0 10 7 10 16 0 8 4 13
9 10 5 -4 22 14 37 38 16 25 32 42 36 40 4 -3 8 6 8 20 0 16 6 26 15 26 8 0
15 7 15 15 0 8 5 15 10 15 6 0 10 9 10 21 0 11 5 17 10 14 6 -3 10 1 10 9 0 8
7 22 16 30 9 9 17 23 18 32 1 9 7 19 13 22 11 7 56 81 73 120 5 12 15 22 21
22 7 0 9 3 6 7 -4 3 0 17 8 30 9 13 12 23 8 23 -5 0 0 5 10 11 9 5 17 19 17
29 0 10 5 22 10 25 6 4 8 10 5 15 -3 4 2 10 10 14 8 3 15 14 15 25 0 11 5 23
10 26 6 3 10 15 10 25 0 10 6 25 14 33 8 8 38 75 66 148 28 74 62 161 75 194
13 33 23 67 23 75 -1 8 7 32 17 53 10 21 15 41 11 44 -3 3 -1 12 5 20 6 7 8
13 5 13 -4 0 -1 10 5 23 12 21 27 79 33 122 1 11 5 29 9 40 3 11 8 32 11 48 3
15 10 54 16 88 6 33 13 73 15 90 3 16 7 44 10 62 6 30 12 96 19 193 1 22 6 46
10 52 4 7 2 12 -5 12 -8 0 -8 4 1 15 7 8 8 15 3 15 -6 0 -8 15 -4 38 4 20 7
87 7 149 -1 62 3 108 7 104 15 -15 7 -586 -8 -611 -3 -5 -8 -32 -11 -62 -10
-88 -11 -92 -18 -109 -4 -9 -6 -20 -5 -25 4 -15 -14 -110 -25 -135 -4 -9 -6
-20 -5 -25 4 -13 -9 -70 -41 -176 -5 -18 -12 -47 -15 -65 -3 -17 -14 -52 -25
-78 -11 -26 -20 -54 -20 -64 0 -10 -22 -74 -50 -143 -27 -69 -50 -131 -50
-137 0 -6 -4 -11 -9 -11 -5 0 -19 -28 -31 -62 -13 -35 -29 -70 -36 -78 -11
-13 -24 -42 -35 -75 -1 -5 -11 -19 -21 -29 -10 -11 -18 -25 -18 -32 0 -13 -39
-85 -51 -94 -3 -3 -9 -15 -13 -28 -4 -12 -12 -20 -17 -17 -5 4 -9 -3 -9 -14 0
-11 -5 -23 -11 -26 -5 -4 -15 -17 -20 -28 -20 -44 -36 -67 -42 -60 -4 3 -7 -1
-7 -10 0 -9 -10 -27 -23 -41 -12 -13 -29 -37 -37 -53 -8 -15 -21 -32 -27 -36
-7 -4 -13 -15 -13 -23 0 -8 -4 -13 -9 -10 -5 4 -15 -7 -23 -24 -7 -16 -16 -30
-20 -30 -5 0 -8 -6 -8 -12 0 -7 -14 -24 -30 -37 -17 -13 -30 -28 -30 -35 0 -6
-13 -24 -30 -39 -16 -16 -30 -33 -30 -38 0 -6 -4 -7 -10 -4 -5 3 -10 0 -10 -7
0 -7 -15 -27 -32 -44 -18 -18 -45 -46 -60 -63 -16 -17 -28 -29 -28 -26 0 3 -6
0 -14 -7 -8 -7 -12 -16 -10 -20 2 -4 -5 -9 -16 -13 -11 -3 -20 -12 -20 -19 0
-6 -18 -27 -41 -46 -22 -18 -54 -46 -69 -62 -16 -15 -35 -28 -44 -28 -8 0 -18
-9 -21 -21 -4 -11 -9 -18 -12 -15 -8 8 -32 -18 -25 -28 3 -5 -2 -7 -11 -3 -11
4 -17 1 -17 -9 0 -8 -4 -12 -10 -9 -5 3 -10 1 -10 -6 0 -7 -3 -10 -6 -6 -3 3
-19 -10 -36 -29 -16 -19 -34 -31 -39 -28 -5 3 -9 -2 -9 -11 0 -9 -5 -13 -11
-10 -6 4 -18 -1 -28 -11 -9 -11 -38 -32 -64 -48 -26 -17 -47 -34 -47 -38 0 -4
-6 -8 -14 -8 -7 0 -19 -7 -26 -15 -7 -8 -16 -12 -21 -9 -5 3 -12 -1 -15 -10
-5 -12 -74 -53 -81 -48 -2 1 -12 -6 -22 -15 -32 -29 -50 -43 -56 -43 -13 -1
-42 -15 -59 -29 -10 -9 -19 -14 -20 -12 -2 6 -79 -31 -94 -46 -8 -7 -18 -11
-23 -8 -5 4 -9 2 -9 -3 0 -5 -10 -13 -22 -17 -13 -4 -25 -8 -28 -9 -3 -2 -18
-9 -35 -16 -16 -7 -34 -14 -40 -15 -5 -2 -34 -14 -64 -29 -30 -14 -56 -24 -59
-21 -2 2 -26 -7 -53 -21 -27 -13 -49 -21 -49 -18 0 4 -6 2 -12 -4 -7 -6 -30
-13 -50 -17 -21 -4 -38 -11 -38 -17 0 -5 -4 -7 -9 -3 -5 3 -13 1 -16 -5 -4 -6
-15 -8 -26 -5 -11 4 -19 2 -19 -5 0 -7 -8 -10 -20 -7 -11 3 -22 2 -25 -3 -3
-4 -22 -11 -42 -16 -42 -8 -42 -8 -63 -17 -31 -12 -86 -24 -102 -21 -10 1 -18
-2 -18 -6 0 -5 -8 -9 -17 -9 -36 1 -98 -12 -101 -20 -1 -5 -17 -7 -33 -5 -17
2 -36 1 -43 -3 -6 -4 -24 -8 -41 -8 -16 0 -34 -3 -40 -6 -5 -3 -25 -5 -42 -4
-18 1 -33 -1 -33 -4 0 -3 -25 -6 -55 -6 -30 0 -55 -2 -55 -5 0 -3 -63 -5 -140
-5 -77 0 -140 -3 -140 -6 0 -8 -53 -4 -68 5 -7 4 -12 3 -12 -2 0 -10 -50 -9
-68 2 -7 4 -12 2 -12 -4 0 -6 -5 -8 -12 -4 -6 4 -36 8 -67 9 -31 1 -92 6 -136
10 -44 4 -89 9 -100 9 -11 1 -24 4 -30 7 -5 3 -23 6 -40 7 -43 3 -58 7 -72 15
-8 5 -13 3 -13 -3 0 -7 -7 -7 -22 1 -13 7 -36 14 -53 15 -16 2 -41 6 -55 10
-14 3 -34 7 -45 9 -11 2 -21 4 -22 5 -2 2 -7 4 -13 5 -5 1 -13 4 -17 5 -5 1
-12 2 -17 1 -5 -1 -16 1 -25 5 -19 8 -39 14 -66 18 -11 2 -20 4 -20 5 0 2 -8
4 -17 6 -9 2 -31 10 -47 18 -17 8 -31 11 -33 7 -2 -4 -21 0 -43 10 -34 15 -67
29 -85 35 -3 1 -13 5 -22 8 -10 4 -26 10 -35 14 -10 3 -20 7 -23 8 -3 1 -13 5
-22 8 -10 4 -26 10 -35 14 -10 3 -20 7 -23 7 -3 1 -14 7 -25 13 -11 6 -24 12
-30 13 -28 6 -132 55 -210 98 -17 9 -37 18 -45 20 -7 2 -26 12 -42 23 -15 11
-28 17 -28 13 0 -3 -7 0 -16 7 -9 7 -25 18 -35 24 -56 31 -194 120 -197 127
-2 4 -10 8 -17 8 -8 0 -18 6 -22 13 -4 6 -15 17 -24 22 -43 27 -105 69 -115
79 -26 25 -55 46 -62 46 -4 0 -21 15 -39 33 -18 18 -46 44 -63 57 -119 96
-383 362 -413 416 -5 8 -26 34 -48 57 -21 23 -41 50 -45 60 -3 9 -9 17 -13 17
-4 0 -16 16 -27 35 -10 19 -21 35 -24 35 -3 0 -14 16 -24 35 -11 19 -22 35
-25 35 -4 0 -15 17 -26 38 -11 20 -22 39 -25 42 -10 10 -31 45 -36 63 -4 9 -9
17 -13 17 -4 0 -18 22 -32 50 -13 27 -27 50 -30 50 -4 0 -12 15 -20 33 -7 17
-16 34 -19 37 -11 9 -160 315 -160 328 0 6 -4 12 -9 12 -5 0 -12 12 -15 26 -4
14 -16 45 -26 68 -18 39 -69 170 -74 191 -2 6 -8 23 -14 38 -7 15 -15 40 -18
55 -4 15 -10 32 -15 37 -4 6 -33 105 -63 220 -48 184 -68 274 -82 377 -2 16
-8 56 -13 90 -6 35 -13 99 -17 143 -3 44 -7 96 -9 115 -6 53 -5 334 0 430 6
104 34 323 55 420 5 25 16 86 25 135 44 248 43 246 37 80 -7 -220 -7 -630 1
-780 8 -134 11 -179 21 -277 3 -32 8 -84 11 -115 3 -32 8 -71 11 -88 3 -16 7
-43 9 -60 2 -16 4 -30 5 -30 2 0 13 -69 14 -92 0 -13 5 -23 9 -23 5 0 5 -4 2
-10 -7 -11 68 -299 90 -347 8 -17 15 -36 15 -43 0 -7 6 -24 14 -38 7 -15 37
-75 67 -134 29 -60 57 -108 61 -108 4 0 8 -6 8 -14 0 -7 11 -25 25 -40 13 -15
29 -35 34 -44 11 -20 49 -26 68 -10 7 6 13 7 13 4 0 -4 7 0 16 8 8 9 20 14 24
11 5 -3 30 3 54 15 25 11 50 20 55 20 6 0 11 5 11 10 0 6 9 10 20 10 11 0 20
4 20 10 0 5 3 9 8 8 11 -4 90 30 97 42 3 5 15 10 26 10 10 0 19 5 19 10 0 6 6
10 14 10 7 0 19 7 26 15 7 9 15 13 17 11 3 -3 27 11 54 30 27 19 51 34 54 34
3 0 11 5 18 11 11 9 34 24 92 61 11 7 22 15 25 18 3 3 25 21 50 40 57 45 81
66 185 168 47 45 85 79 85 75 0 -5 10 9 23 30 13 21 26 35 30 31 4 -4 7 0 7 9
0 10 5 17 10 17 6 0 10 4 10 10 0 10 20 37 55 74 12 11 24 29 28 39 4 10 11
15 17 12 5 -3 10 3 10 14 0 12 5 21 10 21 6 0 10 7 10 16 0 8 4 13 9 10 5 -3
11 2 15 12 3 9 15 31 26 47 11 17 23 37 26 45 4 8 13 22 21 32 8 9 16 24 17
33 1 9 7 20 13 23 5 4 16 24 22 45 7 20 16 37 20 37 4 0 13 17 20 38 8 20 23
50 33 65 11 15 21 33 22 40 1 12 21 65 37 102 25 57 49 133 49 152 0 12 4 24
9 27 7 5 18 44 26 96 0 3 3 10 7 15 3 6 9 35 13 65 4 30 12 58 17 61 6 4 8 14
5 22 -3 9 -2 31 4 49 5 19 11 63 14 99 3 35 7 78 9 94 5 31 9 143 6 160 -1 6
-1 43 -1 84 1 41 -4 115 -10 165 -6 50 -12 108 -15 130 -2 21 -9 56 -14 77 -6
22 -8 44 -5 49 3 5 1 11 -5 15 -6 4 -8 11 -5 16 4 5 3 15 -2 22 -4 6 -8 17 -9
22 -4 22 -35 141 -41 155 -3 8 -7 20 -8 25 0 6 -6 21 -12 35 -6 14 -14 40 -18
58 -3 17 -11 32 -16 32 -5 0 -9 9 -9 19 0 11 -4 22 -9 26 -5 3 -12 19 -16 35
-4 17 -11 30 -16 30 -5 0 -9 7 -9 15 0 19 -69 163 -81 171 -5 3 -9 12 -9 20 0
8 -8 27 -19 42 -28 42 -54 82 -74 116 -11 17 -37 54 -58 82 -21 28 -39 54 -39
57 0 4 -8 15 -17 25 -10 11 -43 47 -73 82 -94 107 -282 290 -299 290 -4 0 -13
9 -21 20 -8 11 -18 20 -22 20 -4 0 -17 8 -27 18 -37 33 -50 42 -61 42 -6 0
-13 7 -16 15 -4 8 -10 15 -16 15 -5 0 -24 11 -42 25 -18 14 -37 25 -41 25 -5
0 -17 8 -27 17 -16 14 -58 29 -58 20 0 -1 5 -18 10 -37 12 -39 30 -152 35
-220 2 -25 6 -72 9 -105 21 -225 22 -916 1 -1140 -2 -27 -7 -89 -11 -137 -3
-47 -10 -101 -14 -120 l-8 -33 -2 40 c-1 22 -4 85 -6 140 -5 140 -14 312 -19
365 -10 106 -31 256 -39 268 -3 5 -8 31 -11 58 -9 78 -83 344 -120 429 -7 17
-17 41 -23 55 -27 67 -110 229 -144 282 -21 32 -38 61 -38 64 0 16 -128 171
-210 255 -101 102 -135 129 -172 134 -36 5 -99 14 -138 20 -169 27 -576 23
-667 -6 -18 -6 -37 -8 -42 -5 -5 4 -12 2 -16 -4 -4 -6 -10 -8 -13 -6 -4 2 -35
-1 -69 -8 -34 -8 -65 -11 -68 -8 -3 3 -5 0 -5 -5 0 -6 -8 -10 -17 -8 -10 1
-24 -2 -30 -8 -7 -5 -13 -7 -13 -4 0 3 -16 -1 -35 -9 -19 -8 -36 -13 -37 -12
-5 3 -113 -35 -124 -43 -6 -5 -19 -7 -28 -3 -9 3 -16 1 -16 -5 0 -6 -9 -11
-20 -11 -11 0 -20 -4 -20 -9 0 -5 -11 -12 -25 -15 -14 -4 -51 -19 -83 -33 -31
-15 -59 -28 -62 -28 -18 -5 -47 -21 -58 -32 -8 -7 -18 -11 -23 -8 -5 4 -9 1
-9 -4 0 -6 -7 -11 -15 -11 -8 0 -15 -4 -15 -9 0 -5 -12 -12 -26 -15 -14 -4
-35 -16 -47 -27 -12 -11 -42 -31 -67 -46 -25 -14 -57 -37 -72 -50 -14 -14 -31
-22 -37 -19 -6 4 -11 0 -11 -8 0 -9 -5 -16 -11 -16 -10 0 -64 -45 -98 -82 -8
-10 -21 -18 -28 -18 -7 0 -13 -5 -13 -11 0 -5 -4 -8 -8 -5 -5 3 -15 -5 -23
-16 -16 -24 -119 -129 -119 -121 0 2 -7 -2 -15 -11 -8 -8 -15 -18 -15 -22 0
-4 -17 -24 -37 -44 -53 -53 -93 -99 -93 -108 0 -4 -9 -14 -20 -22 -11 -8 -20
-20 -20 -27 0 -7 -4 -13 -10 -13 -5 0 -10 -7 -10 -16 0 -8 -4 -12 -10 -9 -5 3
-10 -1 -10 -9 0 -9 -4 -16 -10 -16 -5 0 -10 -7 -10 -15 0 -8 -7 -15 -15 -15
-8 0 -15 -9 -15 -21 0 -11 -4 -17 -10 -14 -5 3 -10 -3 -10 -14 0 -10 -4 -21
-8 -23 -12 -5 -92 -116 -92 -128 0 -5 -4 -10 -10 -10 -5 0 -10 -7 -10 -15 0
-9 -7 -18 -15 -21 -8 -4 -15 -15 -15 -25 0 -11 -7 -22 -15 -25 -8 -4 -15 -14
-15 -24 0 -10 -6 -25 -14 -32 -7 -8 -17 -24 -20 -36 -4 -12 -11 -22 -16 -22
-5 0 -14 -18 -20 -40 -6 -22 -14 -38 -19 -36 -4 3 -16 -20 -26 -50 -10 -30
-22 -54 -26 -54 -4 0 -11 -10 -14 -22 -4 -13 -13 -36 -20 -53 -7 -16 -16 -38
-19 -48 -3 -10 -10 -15 -16 -12 -5 3 -10 -2 -10 -12 0 -16 -25 -90 -49 -148
-29 -69 -34 -82 -37 -100 -6 -38 -15 -67 -35 -110 -10 -24 -79 -294 -77 -303
1 -4 -1 -14 -5 -22 -9 -24 -19 -73 -19 -97 0 -13 -4 -23 -8 -23 -4 0 -8 -17
-9 -37 -1 -37 -4 -69 -16 -148 -9 -66 -17 -166 -19 -235 0 -36 -5 -68 -11 -72
-6 -5 -4 -12 5 -18 8 -5 10 -10 5 -10 -6 0 -9 -23 -8 -57 5 -105 4 -195 -1
-201 -3 -3 -6 21 -7 54 -2 120 -4 144 -12 144 -5 0 -5 5 -2 10 3 6 8 79 11
163 6 220 10 273 29 382 2 11 6 43 9 72 4 29 11 74 17 100 5 26 12 59 15 73 3
14 7 36 9 50 6 36 25 113 32 130 3 8 5 18 5 22 -1 4 5 25 13 45 8 21 17 51 19
68 5 27 24 81 62 175 12 30 21 64 23 93 1 5 6 5 11 2 6 -3 10 0 10 7 0 23 71
201 91 230 11 15 18 28 14 28 -3 0 2 11 11 25 9 14 12 25 8 25 -5 0 -1 5 9 11
9 5 17 16 17 24 0 7 18 45 40 84 22 39 40 75 40 81 0 6 5 8 10 5 6 -3 10 0 10
8 0 8 6 20 14 26 8 7 18 26 21 42 4 16 10 27 15 24 4 -3 11 6 14 20 4 14 11
25 16 25 6 0 10 5 10 11 0 7 11 22 25 35 14 13 25 30 25 39 0 9 5 13 10 10 6
-3 10 3 10 14 0 12 3 21 8 21 4 0 16 16 26 35 11 19 23 35 28 35 4 0 8 7 8 16
0 8 5 12 10 9 6 -3 10 -1 10 5 0 6 14 24 30 40 17 16 30 31 30 34 0 2 14 18
30 36 17 18 30 39 30 47 0 8 4 12 9 8 5 -3 20 9 32 27 27 38 151 163 226 227
29 25 49 49 46 54 -3 6 -1 7 5 3 7 -4 12 -3 12 2 0 5 11 14 25 20 14 6 25 19
25 28 0 10 3 15 6 11 4 -3 23 9 43 28 20 19 41 35 46 35 6 0 16 9 23 20 7 11
19 20 27 20 8 0 18 6 22 14 11 19 140 105 147 98 3 -3 6 2 6 11 0 11 8 17 25
17 15 0 24 5 23 13 -2 6 3 11 10 9 7 -1 15 5 18 13 4 8 12 15 19 15 7 0 24 9
37 20 14 10 28 16 32 13 3 -3 6 -1 6 5 0 6 9 14 21 17 21 7 82 44 109 67 8 7
15 11 15 8 0 -7 125 55 125 62 0 5 7 8 15 8 9 0 34 9 55 20 22 11 40 17 40 13
0 -5 4 -3 8 3 10 14 84 49 100 46 6 -2 12 2 12 9 0 6 8 9 20 6 11 -3 20 -2 20
3 0 6 14 13 50 24 3 1 11 5 18 10 7 4 19 5 27 2 8 -3 15 -1 15 4 0 6 9 10 20
10 11 0 20 5 20 11 0 6 7 8 16 5 9 -4 22 -2 29 4 11 10 26 14 80 24 6 1 16 5
23 10 7 4 19 5 27 2 7 -2 15 -1 17 4 3 10 152 50 199 53 16 1 29 5 29 10 0 4
3 6 8 5 4 -1 32 2 62 7 66 10 61 10 130 19 30 4 65 8 78 9 12 1 22 4 22 7 0 3
18 5 40 4 22 0 40 2 40 5 0 3 26 6 58 5 31 0 67 2 79 5 34 9 276 7 291 -2z"/>
<path d="M3698 5593 c2 -64 -1 -84 -17 -110 -28 -45 -102 -97 -193 -135 -43
-18 -78 -36 -78 -40 0 -4 12 -11 27 -14 27 -7 27 -7 -12 -21 -22 -8 -123 -36
-225 -63 -193 -50 -300 -86 -300 -100 0 -4 12 -11 28 -14 15 -4 49 -19 76 -32
60 -31 109 -29 210 10 79 31 88 26 84 -38 l-3 -39 -140 -47 c-152 -50 -265
-98 -265 -111 0 -5 15 -9 33 -9 17 0 59 -7 92 -15 84 -20 121 -18 203 9 l72
25 0 -39 c0 -30 -5 -42 -21 -50 -11 -7 -105 -40 -207 -75 -222 -75 -285 -101
-277 -115 3 -5 12 -10 20 -10 7 0 43 -16 79 -35 94 -50 135 -48 224 9 96 63
183 100 193 84 5 -7 27 -71 50 -142 46 -144 49 -133 -41 -167 -94 -35 -103
-35 -133 4 -15 20 -27 38 -27 41 0 2 26 14 58 26 86 32 102 45 102 83 0 39
-34 77 -69 77 -12 0 -31 5 -41 10 -24 13 -70 -4 -70 -25 0 -26 -78 -102 -166
-162 -46 -31 -84 -61 -84 -66 0 -6 17 -7 43 -3 23 4 63 10 90 13 l47 6 0 -44
0 -44 -102 -44 c-57 -24 -170 -77 -251 -118 -135 -67 -168 -93 -117 -93 10 0
49 -16 86 -35 91 -47 119 -46 184 9 45 38 175 116 194 116 8 0 8 -54 0 -102
-6 -36 -13 -42 -128 -112 -153 -93 -194 -113 -258 -130 -29 -7 -54 -18 -56
-24 -2 -6 18 -26 44 -44 26 -18 63 -46 81 -62 28 -24 39 -28 71 -23 20 4 39
12 41 19 9 29 120 117 184 146 4 2 7 -26 7 -62 0 -81 -13 -92 -85 -70 -27 8
-52 11 -57 6 -17 -17 175 -265 202 -260 8 2 24 21 34 42 16 32 21 76 28 240
11 228 -5 192 122 286 33 25 70 60 82 78 23 33 47 120 38 134 -3 4 -50 -22
-105 -59 -54 -36 -101 -64 -103 -62 -2 2 -1 33 3 68 l6 64 118 50 c65 27 120
48 121 46 2 -2 33 -70 69 -152 l65 -147 -78 -118 c-75 -114 -164 -209 -230
-249 -82 -48 41 -51 135 -3 50 25 185 119 262 182 8 7 17 0 29 -24 55 -107
246 -306 377 -391 123 -81 177 -101 269 -102 42 0 80 3 83 7 4 4 -8 45 -28 90
-48 113 -56 148 -64 261 -3 53 -9 97 -13 97 -3 0 -12 -30 -19 -66 -13 -65 -60
-172 -84 -192 -22 -18 -290 227 -384 350 -81 107 -80 93 -23 185 57 93 67 127
51 175 -15 45 -83 100 -118 96 -23 -3 -28 -11 -43 -66 -10 -35 -22 -68 -27
-73 -11 -11 -88 175 -79 190 17 27 149 39 276 26 90 -9 105 1 94 61 -11 59
-33 74 -109 74 l-65 0 7 45 c5 41 3 47 -29 79 -37 37 -80 52 -175 62 -44 5
-63 3 -63 -4 0 -6 37 -51 82 -99 l82 -87 -78 -19 c-90 -22 -88 -23 -107 58 -6
27 -20 74 -31 102 -17 48 -23 54 -61 64 l-42 12 55 14 c41 10 95 12 211 8 159
-7 232 2 242 28 2 7 2 30 -2 52 -5 35 -12 43 -51 63 -24 12 -60 22 -80 22 -19
1 -54 5 -78 9 -34 7 -54 4 -100 -14 -31 -13 -77 -26 -101 -30 l-44 -7 8 48 c4
27 8 49 8 50 1 1 66 21 145 45 86 26 142 48 142 56 0 31 -33 91 -56 101 -20
10 -37 7 -97 -17 -39 -16 -87 -32 -105 -36 l-33 -7 3 54 3 53 50 12 c28 6 79
12 115 12 102 2 203 38 181 65 -5 6 -11 25 -13 41 -3 27 -7 31 -45 36 -38 5
-72 19 -46 19 11 0 218 132 245 157 47 42 -1 100 -125 152 -112 46 -113 46
-109 -46z"/>
<path d="M7606 5650 c-32 -10 -63 -23 -68 -28 -5 -5 15 -18 52 -31 77 -28 131
-80 169 -162 35 -74 64 -180 53 -190 -4 -4 -54 -17 -111 -29 -189 -40 -331
-87 -331 -110 0 -5 34 -28 76 -52 42 -24 85 -49 97 -56 42 -25 168 2 467 100
208 68 236 70 337 24 l55 -26 -49 -56 c-26 -32 -64 -64 -83 -72 l-35 -16 45
-7 c57 -10 117 -3 200 23 41 13 99 21 155 23 135 3 153 19 116 101 -66 144
-182 185 -531 186 l-166 1 9 70 c6 49 6 82 -3 110 -23 79 -145 168 -277 202
-73 19 -104 18 -177 -5z"/>
<path d="M11920 5649 c-19 -11 -48 -25 -63 -32 -16 -6 -30 -22 -34 -36 -5 -20
1 -32 36 -62 l42 -38 2 -283 c1 -156 -2 -309 -6 -340 l-8 -58 -82 -24 c-45
-14 -143 -36 -217 -50 -181 -34 -330 -85 -330 -112 0 -7 24 -29 53 -48 28 -19
65 -51 81 -71 51 -65 124 -93 175 -66 9 6 64 19 122 31 57 11 112 23 123 26
16 5 17 2 11 -28 -13 -58 -95 -260 -147 -358 -143 -272 -303 -451 -521 -582
l-80 -48 71 0 c166 0 273 47 475 210 41 33 77 60 80 60 9 0 56 -117 75 -188
11 -40 28 -82 38 -93 9 -10 49 -35 87 -54 79 -40 97 -37 124 21 15 30 15 41 5
80 -7 26 -15 72 -19 104 -5 54 -9 61 -47 88 -22 16 -75 46 -116 67 -41 20 -77
39 -79 41 -2 2 9 23 26 47 46 63 88 152 129 272 l38 108 18 -39 c157 -343 255
-527 380 -710 l68 -101 74 -7 c104 -9 178 -30 271 -76 91 -44 132 -56 225 -65
l65 -6 -31 28 c-16 15 -82 74 -145 130 -157 139 -467 456 -570 583 -174 213
-276 382 -300 498 -13 63 -10 66 55 76 22 4 95 34 161 67 118 58 207 85 242
72 10 -4 29 -15 42 -25 33 -25 76 -23 95 4 12 16 16 47 16 111 0 85 -1 90 -31
119 -30 30 -31 31 -107 25 -42 -3 -162 -26 -267 -51 -104 -24 -192 -43 -194
-40 -2 2 13 95 33 206 71 397 80 524 42 566 -10 12 -35 22 -62 25 -27 3 -54
13 -68 26 l-22 21 -34 -21z"/>
<path d="M16810 5659 c0 -5 -15 -19 -33 -29 l-34 -20 26 -53 c25 -51 26 -57
26 -252 0 -110 -3 -212 -7 -226 -7 -25 -15 -28 -125 -49 -65 -12 -122 -26
-126 -30 -19 -17 111 -87 178 -97 53 -7 51 0 30 -152 -8 -58 -21 -108 -28
-113 -6 -4 -28 -8 -47 -8 -49 0 -80 -10 -80 -25 0 -25 41 -64 105 -99 61 -35
66 -36 112 -26 26 6 81 24 122 41 41 16 80 28 88 25 31 -12 -3 -149 -73 -289
-38 -74 -100 -167 -113 -167 -4 0 -18 19 -31 43 -58 102 -166 252 -237 327
-94 101 -135 124 -172 101 -12 -8 -9 -16 17 -45 80 -92 123 -169 265 -483 l56
-123 -101 -105 c-55 -58 -137 -133 -181 -166 l-80 -60 -13 30 c-25 60 -100 73
-271 48 -94 -15 -94 -22 -6 93 42 54 71 82 106 99 36 18 47 29 47 47 0 43 -22
72 -81 105 -32 19 -59 37 -59 41 0 3 18 9 40 13 48 8 72 29 68 59 -1 11 9 46
24 76 14 30 33 76 42 102 10 27 32 60 53 78 l36 32 -23 48 c-24 52 -92 130
-113 130 -20 0 -37 -22 -37 -46 0 -20 -10 -25 -87 -42 -128 -30 -187 -40 -288
-52 -175 -20 -385 -88 -385 -124 0 -20 34 -42 95 -62 27 -9 51 -17 52 -18 1
-1 7 -62 14 -136 12 -148 31 -209 78 -255 l29 -26 7 47 c10 69 13 72 62 80 24
3 85 19 134 34 l89 28 21 -35 c19 -31 20 -39 10 -91 -6 -32 -27 -93 -46 -137
-19 -44 -35 -88 -35 -97 0 -12 -24 -24 -89 -45 l-89 -29 -7 50 c-7 58 -32 111
-71 150 -33 33 -118 76 -152 76 l-24 0 26 -30 c26 -32 56 -115 56 -158 0 -34
28 -89 57 -111 13 -11 20 -22 16 -24 -5 -3 -97 -44 -206 -91 -109 -47 -208
-91 -220 -97 l-21 -12 25 -19 c42 -35 119 -69 168 -75 45 -5 54 -2 152 57 157
93 368 195 445 214 77 20 274 34 274 20 0 -5 -21 -20 -47 -34 l-48 -25 57 -3
c120 -6 307 86 580 287 23 17 15 26 143 -164 52 -77 123 -168 158 -203 l63
-62 84 -10 c47 -5 116 -10 153 -10 67 0 203 -36 235 -62 7 -6 15 -8 19 -5 10
11 -140 157 -207 202 -36 23 -108 64 -160 90 -161 80 -246 150 -328 268 l-40
57 135 293 c74 160 152 327 174 371 59 118 51 167 -29 179 -21 4 -56 20 -77
37 -49 39 -86 39 -158 -1 l-57 -31 0 39 c0 42 17 167 26 196 7 23 76 54 214
97 137 42 220 85 220 115 0 35 -20 85 -39 94 -9 5 -72 7 -141 5 l-125 -3 -51
-57 c-28 -31 -55 -55 -61 -53 -15 6 13 132 42 189 44 88 49 128 26 211 -11 40
-27 79 -34 86 -8 8 -40 18 -73 23 -32 4 -71 13 -86 19 -19 7 -28 7 -28 0z
m-685 -1266 c-25 -62 -45 -126 -45 -147 0 -54 -16 -73 -87 -100 -95 -36 -232
-76 -261 -76 l-24 0 7 98 c4 53 8 98 9 98 4 4 354 133 371 137 35 8 37 7 30
-10z"/>
<path d="M15870 5643 c-29 -5 -60 -30 -60 -48 0 -6 11 -17 24 -23 31 -14 36
-44 36 -236 l0 -162 -149 -37 c-83 -20 -157 -37 -165 -37 -35 0 -11 -19 75
-60 69 -33 109 -45 158 -49 l66 -6 3 -88 3 -88 -53 -23 c-29 -13 -129 -51
-223 -84 -93 -33 -186 -67 -205 -76 l-35 -14 30 -12 c17 -6 53 -20 80 -31 82
-31 135 -26 239 25 191 93 363 136 541 136 127 0 165 14 165 60 0 40 -51 97
-99 110 -39 10 -116 2 -229 -26 -35 -9 -65 -14 -67 -12 -3 2 1 44 8 93 12 86
13 88 44 102 18 7 65 20 103 28 82 17 115 32 153 70 34 34 35 62 2 77 -13 6
-27 19 -30 30 -10 28 -60 23 -150 -17 -44 -19 -86 -35 -93 -35 -18 0 -9 57 29
176 49 153 38 188 -74 239 -50 24 -74 27 -127 18z"/>
<path d="M2950 5591 c0 -6 4 -11 9 -11 5 0 43 -32 84 -70 60 -56 83 -87 111
-145 36 -75 56 -95 98 -95 36 0 48 19 48 76 0 72 -33 120 -123 180 -73 48
-227 93 -227 65z"/>
<path d="M7140 5095 c0 -2 9 -23 21 -45 33 -63 21 -208 -25 -298 -37 -72 -27
-179 20 -235 42 -49 89 -80 112 -73 36 12 66 56 78 115 7 32 24 88 39 124 38
95 51 187 31 224 -48 91 -174 193 -238 193 -21 0 -38 -2 -38 -5z"/>
<path d="M7665 4650 c39 -77 67 -196 60 -250 -8 -55 -59 -166 -81 -174 -9 -3
-183 -25 -388 -47 -204 -22 -378 -43 -386 -46 -10 -3 -4 -10 21 -23 45 -24
101 -85 124 -137 17 -40 19 -41 59 -36 23 3 102 21 176 40 74 19 164 37 200
40 l65 6 -57 -62 c-60 -64 -72 -89 -66 -137 3 -27 6 -29 38 -25 123 12 184 4
293 -39 59 -24 107 -46 107 -50 0 -15 -184 -212 -242 -260 -35 -28 -117 -78
-183 -111 l-120 -60 85 6 c132 11 265 41 344 78 77 37 191 123 274 207 29 29
58 50 65 47 32 -12 171 -133 237 -207 63 -70 173 -164 207 -177 6 -3 25 5 41
17 27 20 39 22 126 18 53 -2 96 -1 96 3 0 3 -16 26 -35 51 -68 90 -165 164
-389 298 -121 74 -222 134 -223 135 -2 1 11 27 28 59 17 32 46 99 64 149 l33
92 169 -1 c187 -1 289 -18 368 -59 36 -20 50 -22 71 -15 14 6 36 10 50 10 35
0 51 39 34 80 -28 68 -213 200 -279 200 -14 0 -35 -7 -45 -15 -22 -16 -195
-20 -271 -7 l-40 8 28 27 c67 69 -2 185 -177 296 -61 38 -84 39 -92 6 -4 -18
2 -38 25 -74 31 -48 32 -51 25 -132 -11 -136 -4 -129 -138 -129 l-114 0 29 60
c17 33 42 69 56 80 23 18 25 24 19 64 -15 99 -150 213 -284 241 l-33 7 26 -52z
m313 -596 c28 -4 52 -11 52 -16 0 -14 -84 -141 -103 -156 -14 -12 -30 -9 -109
17 -51 16 -110 33 -131 37 l-39 7 53 53 c46 46 58 54 98 57 86 7 126 7 179 1z"/>
<path d="M3755 2481 c-82 -38 -121 -113 -138 -262 -21 -189 15 -364 89 -429
89 -78 238 -56 295 44 l24 41 3 -57 c3 -50 6 -58 22 -58 19 0 20 8 20 185 l0
185 -125 0 c-118 0 -125 -1 -125 -20 0 -18 8 -20 98 -22 l97 -3 -2 -72 c-2
-83 -31 -162 -71 -193 -65 -52 -158 -45 -210 14 -52 60 -67 122 -67 286 0 160
14 224 63 282 91 108 246 60 270 -84 6 -34 12 -44 30 -46 18 -3 22 1 22 25 0
78 -52 162 -117 189 -46 20 -131 17 -178 -5z"/>
<path d="M17515 2483 c-102 -53 -145 -162 -145 -363 0 -114 14 -199 42 -255
44 -87 93 -118 188 -119 81 -1 131 22 171 77 44 61 60 128 66 267 11 278 -64
411 -231 410 -36 -1 -74 -7 -91 -17z m162 -40 c76 -36 113 -141 113 -323 0
-231 -57 -334 -185 -334 -128 0 -185 103 -185 334 0 127 17 214 53 268 43 66
132 90 204 55z"/>
<path d="M2360 2125 c0 -357 0 -365 20 -365 19 0 20 8 22 318 l3 317 157 -317
c155 -314 157 -318 187 -318 l31 0 0 365 0 365 -25 0 -25 0 -2 -318 -3 -317
-154 317 c-149 307 -155 318 -183 318 l-28 0 0 -365z"/>
<path d="M4900 2125 l0 -365 185 0 c178 0 185 1 185 20 0 18 -8 20 -157 22
l-158 3 0 155 0 155 143 3 c133 2 142 4 142 22 0 18 -9 20 -142 22 l-143 3 -3
138 -3 137 156 0 155 0 0 25 0 25 -180 0 -180 0 0 -365z"/>
<path d="M6080 2125 l0 -365 180 0 c173 0 180 1 180 20 0 19 -7 20 -155 20
l-155 0 0 160 0 160 140 0 c133 0 140 1 140 20 0 19 -7 20 -140 20 l-140 0 0
140 0 140 150 0 150 0 0 25 0 25 -175 0 -175 0 0 -365z"/>
<path d="M8256 2137 c-60 -193 -111 -358 -114 -365 -3 -10 3 -13 23 -10 26 3
30 10 60 108 l31 105 136 3 136 3 6 -28 c4 -16 19 -65 33 -110 23 -75 28 -83
50 -83 19 0 24 4 21 18 -3 9 -51 173 -108 365 l-104 347 -30 0 -31 0 -109
-353z m198 89 c31 -104 56 -193 56 -197 0 -5 -54 -9 -121 -9 -93 0 -120 3
-116 13 2 6 17 53 31 102 68 226 88 287 91 283 2 -2 29 -88 59 -192z"/>
<path d="M9430 2126 l0 -366 25 0 25 0 2 316 3 317 152 -314 c147 -304 153
-314 182 -317 l31 -3 0 365 c0 359 0 366 -20 366 -20 0 -20 -7 -20 -322 0
-177 -3 -318 -7 -314 -5 4 -76 148 -159 319 -148 307 -151 312 -182 315 l-32
3 0 -365z"/>
<path d="M10700 2126 l0 -366 25 0 25 0 2 317 3 316 153 -314 152 -314 35 -3
35 -3 0 365 0 366 -25 0 -25 0 0 -322 c0 -177 -3 -318 -7 -315 -3 4 -74 147
-158 319 -149 308 -151 313 -183 316 l-32 3 0 -365z"/>
<path d="M12870 2465 c0 -25 0 -25 95 -25 l95 0 0 -340 0 -340 25 0 25 0 0
340 0 340 95 0 c95 0 95 0 95 25 l0 25 -215 0 -215 0 0 -25z"/>
<path d="M14207 2483 c-3 -5 -53 -163 -111 -353 -59 -190 -109 -351 -111 -358
-4 -9 3 -12 22 -10 25 3 29 11 60 111 l34 107 133 0 133 0 33 -110 c30 -99 36
-110 57 -110 13 0 23 5 23 10 0 6 -48 170 -107 365 l-106 355 -28 0 c-15 0
-30 -3 -32 -7z m93 -271 c29 -100 51 -184 48 -187 -3 -3 -57 -4 -120 -3 l-114
3 48 160 c26 88 53 178 59 200 8 28 13 35 19 25 4 -8 31 -97 60 -198z"/>
<path d="M15280 2125 l0 -365 25 0 25 0 0 365 0 365 -25 0 -25 0 0 -365z"/>
<path d="M16190 2125 l0 -365 25 0 25 0 0 132 0 131 41 55 c34 45 43 52 54 41
7 -8 58 -92 114 -186 95 -161 104 -173 131 -173 l29 0 -125 211 -125 210 110
148 c61 81 111 151 111 155 0 3 -11 6 -24 6 -20 0 -51 -35 -170 -197 l-146
-196 0 196 0 197 -25 0 -25 0 0 -365z"/>
</g>
</svg>
