<?xml version="1.0" encoding="UTF-8"?>
<svg id="Layer_1" data-name="Layer 1" xmlns="http://www.w3.org/2000/svg" version="1.1" viewBox="0 0 1547.8 1739.5">
  <defs>
    <style>
      .cls-1 {
        fill: #231f20;
      }

      .cls-1, .cls-2 {
        stroke-width: 0px;
      }

      .cls-2 {
        fill: #fff;
      }
    </style>
  </defs>
  <circle class="cls-2" cx="775.5" cy="619.4" r="607.4"/>
  <path class="cls-1" d="M742.5.5c-3.3.2-13.4,1-22.5,1.9-61.1,5.7-120.2,20-176.4,42.5-27.3,11-65.3,30.3-92.1,46.7-74.4,45.6-140,108.9-189.5,182.7-21,31.3-46.1,78.9-59.8,113.5-31.1,78.5-45.6,158.6-43.9,242,.7,29.4,1.3,37.8,4.8,66,25.5,204.5,155.6,385.9,341.4,476.1,70,34,136.7,52.5,218,60.6,25.3,2.5,80.8,2.5,106,0,109.3-10.9,203-44,291-102.7,49.2-32.9,96.1-75.6,134-122,67.1-82.3,111.7-179.7,130-283.9,14-80.1,12.4-157.5-5-238.6-28.4-132.3-103-255.1-208-342.5C1058.8,49.9,917-1.1,773,0c-13.5.1-27.2.3-30.5.5ZM815.5,39.3c130.2,12.5,254,66.4,351.4,152.9,61.5,54.7,119.5,143.1,151.5,231.2,27.6,75.9,41.6,164.3,35.7,225.9-7.2,75.4-24.1,140.5-53.1,204.5-33.3,73.3-84.8,145.4-136,190-105.5,92-232.8,144.5-371.4,153-38.6,2.4-96.4-4.2-148.6-17.1-24.3-6-64.1-19.1-86.5-28.3-72-29.9-141.4-75.4-191.6-125.5-67.6-67.7-122.9-164.4-149.8-262.1-15.9-57.6-23.9-120.7-21.2-165.9,8.5-140.8,66.3-276.8,161.6-380.1,37.9-41.1,102.9-87.9,163-117.5,74.7-36.7,149.6-56.5,237.5-62.9,9.7-.7,41.3.4,57.5,1.9h0Z"/>
  <path class="cls-1" d="M722.5,46.4c-8.2.9-15.1,2-15.3,2.5s-2,.9-4,1c-4,0-26.3,3.6-24.7,3.9.6,0-5.2,1.2-12.9,2.6-7.6,1.3-14.4,2.8-15,3.2-.6.5-5.1,1.7-10.1,2.7-4.9,1-9.2,2.1-9.5,2.5s-4.1,1.5-8.5,2.5c-4.4.9-9.3,2.3-11,3-1.6.8-5.7,2.1-9,3.1-3.3.9-6.2,2-6.5,2.4s-3.9,1.7-8,2.9c-4.1,1.3-7.9,2.6-8.5,3.1-.5.4-3.5,1.5-6.5,2.5s-5.7,2.1-6,2.5-3,1.5-6,2.5c-3,.9-6.4,2.3-7.5,2.9-1.1.7-4.4,2.1-7.2,3.1-2.9,1.1-5.3,2.3-5.3,2.7s-.5.8-1.2.8c-1.3,0-30,14-30.8,15-.3.3-2.5,1.4-5,2.4s-5.2,2.3-6,3-4.9,2.9-9,5-8.2,4.4-9,5.1-3.1,2.1-5,3c-1.9,1-3.7,2.1-4,2.5s-2.4,1.7-4.7,2.9c-2.4,1.2-4.3,2.5-4.3,3s-1.8,1.6-4,2.6-4,2.1-4,2.4-2,1.7-4.5,3.1-4.5,2.8-4.5,3.2-.8.9-1.8,1.2c-1,.4-2.7,1.4-3.8,2.4-2.9,2.5-9.5,7.5-12.7,9.5s-3.7,2.6-4.8,3.5c-1,.9-3.1,2.7-4.6,3.9-14.8,11.8-18.3,14.7-21.4,17.8s-4.1,3.5-4.7,3.5-1.2.6-1.2,1.4-1.3,2.3-2.9,3.2c-1.7,1-2.8,2.1-2.5,2.6.3.4.1.8-.5.8s-5.1,3.9-10,8.7c-4.9,4.9-9.8,9.5-10.8,10.4-4.8,4.4-27.9,31.6-36,42.5-1.2,1.6-4.3,5.7-7,9.2-2.6,3.5-5.2,7.1-5.8,8.1-.5.9-2.7,4-4.7,6.8-2.1,2.8-3.8,5.6-3.8,6.2s-.4,1.1-.9,1.1-1.9,1.9-3.1,4.2c-1.2,2.4-3,5.2-4,6.3s-2.1,3-2.5,4.2c-.3,1.3-1.1,2.3-1.6,2.3s-1.3,1-1.8,2.2c-.5,1.3-2.1,4-3.6,6.2-3.7,5.4-8.5,14.6-8.5,16.2s-.4,1.4-.8,1.4-1.9,2.4-3.3,5.2c-1.3,2.9-2.7,5.5-3,5.8-.9.7-14.6,29-15.4,31.7-.3,1.3-1,2.3-1.5,2.3s-1.1,1.2-1.5,2.7c-.3,1.6-1.9,5.5-3.4,8.8-1.6,3.3-3.4,7.8-4.1,10s-1.6,4.2-2,4.5c-.3.3-1.4,3.1-2.4,6.2-1,3.2-2.1,5.8-2.6,5.8s-1.8,3.7-3,8.2c-1.3,4.6-2.7,8.5-3.1,8.8s-1.5,3.7-2.5,7.5c-.9,3.9-2,7.2-2.4,7.5s-1.7,4.8-3,10c-1.2,5.2-2.6,9.9-3,10.5-.4.5-1.6,4.8-2.5,9.5-1,4.7-2.2,9-2.6,9.5-.4.6-1.7,6.6-3,13.5-1.2,6.9-2.5,12.9-2.9,13.5-.5.5-1.6,7.1-2.5,14.5-1,7.4-2.1,14.4-2.6,15.5-3.3,7.4-5.9,69.9-4,97,1.5,21.8,3,36.5,4,39,.5,1.1,1.6,8,2.6,15.4.9,7.4,2.1,14.2,2.6,15,.5.9,1.8,6.7,2.8,12.8,1.1,6.2,2.4,12.1,3,13,.5,1,1.7,5.6,2.6,10.3s2,8.9,2.5,9.5c.4.5,1.8,5.3,3,10.5,1.3,5.2,2.6,9.7,3,10s1.3,3,2,6,1.8,6.4,2.3,7.5c.6,1.1,1,2.4.9,2.9-.2.4.2,1.3.7,2,.5.6,1.7,3.7,2.6,6.8.9,3.2,2,6,2.5,6.3.4.3,1.6,3.1,2.6,6.3,1,3.1,2.1,5.9,2.4,6.2.4.3,1.3,2.3,2,4.5s2.3,6,3.5,8.5,3,6.9,3.9,9.7c1,2.9,2.2,5.3,2.7,5.3s.9.5.9,1.1c0,1.3,14,30.2,15,30.9.4.3,1.7,2.7,2.9,5.5,1.2,2.7,2.6,5.2,3.2,5.5.5.4,1.1,1.7,1.4,3,.2,1.2,1.1,3,2,4,.8.9,1.5,2,1.5,2.5s1.8,3.6,4,7.1,4,6.8,4,7.4.7,1.3,1.5,1.6,1.7,1.6,2.1,2.7c.3,1.2,1.4,3.1,2.4,4.2s2.8,3.9,4,6.2c1.2,2.4,2.6,4.3,3,4.3s1.1.9,1.5,1.9c.3,1.1,2.1,3.9,4,6.3,1.9,2.3,3.5,4.7,3.5,5.1s2,3.4,4.5,6.5c2.5,3.2,9.3,11.8,15.2,19.2s12.5,15.7,14.7,18.4c5.8,7,31.6,32.9,34.8,35,1.5,1,2.6,2.2,2.3,2.6-.2.4.7,1.2,2,1.8,1.4.7,2.5,1.7,2.5,2.4s.9,1.8,1.9,2.3c1.1.6,5,3.7,8.8,7s8.6,7.3,10.7,9c2.1,1.6,4.9,4,6.2,5.2,1.4,1.3,2.8,2.3,3.2,2.3s2.3,1.4,4.2,3,3.8,3,4.2,3,1.3.7,2.2,1.5c2.3,2.3,10.1,8.1,12.7,9.5,1.3.7,2.6,1.6,2.9,2,.6.7,17.7,12,25.3,16.6,2.6,1.6,6.5,4,8.5,5.3,5.3,3.4,16.5,9.1,18,9.1s1.2.4,1.2.9,2,1.7,4.5,2.8c2.5,1,4.5,2.1,4.5,2.4s2.6,1.7,5.8,3c3.1,1.3,6.3,2.9,7,3.6s3.1,1.8,5.2,2.4c2.2.7,4,1.6,4,2s2.9,1.8,6.5,3.1c3.6,1.2,6.5,2.6,6.5,3s2.4,1.4,5.3,2.4c2.8.9,6.1,2.3,7.2,3,1.1.6,4.6,2,7.8,3,3.1,1,5.7,2.1,5.7,2.5s2.9,1.5,6.4,2.5c3.6,1,6.2,2.2,6,2.6-.3.4,0,.8.8.8,1.8,0,15.2,4.2,15.8,5s3.4,1.4,7,2.4c3.6.9,7.9,2.3,9.5,3.1,1.7.7,5.7,1.8,9,2.5s6.5,1.6,7,2c.6.5,5.7,1.8,11.5,3s11.4,2.6,12.5,3.1c1.9.9,7.3,2,34.5,6.9,5.8,1.1,13.9,2.3,18,2.6,4.1.4,7.7,1,8,1.4,2.8,4,119,3.8,119-.2s1.7-.8,3.8-.8c5,0,30.2-3.8,32.7-4.9,1.1-.5,6.7-1.7,12.5-2.6,5.8-1,10.7-2,11-2.4.3-.3,5.7-1.6,12-2.9s11.9-2.7,12.5-3.1c.5-.5,4.4-1.6,8.5-2.6s7.7-2.1,8-2.4c.3-.4,3-1.3,6-2s7.3-2.2,9.5-3.1c2.2-1,7-2.6,10.7-3.6s6.5-2.1,6.3-2.5c-.3-.3,2.5-1.4,6-2.4,3.6-.9,6.5-2,6.5-2.4s2.6-1.5,5.8-2.5c3.1-1,6.6-2.3,7.7-3s4.3-2.1,7-3.1c2.8-1,5.2-2.1,5.5-2.5.3-.3,3.3-1.7,6.8-2.9,3.4-1.3,6.2-2.7,6.2-3s2.3-1.5,5-2.5c2.8-1,5-2.1,5-2.5s2.3-1.5,5-2.5c2.8-1,5.6-2.4,6.3-3s3.1-2,5.5-3c2.3-1.1,4.2-2.2,4.2-2.6s1.7-1.2,3.8-1.9c2-.8,4.4-1.9,5.2-2.6s3.1-2,5-2.9,5.1-2.6,7-3.8c7.4-4.5,14.5-9.2,15-9.8.3-.4,2-1.5,3.8-2.4,3-1.5,16.8-11,19.9-13.6.7-.6,2.8-2,4.8-3.1,1.9-1.2,3.5-2.5,3.5-2.9s.8-1.1,1.8-1.4c1-.4,2.7-1.4,3.8-2.4,1-1,3.5-2.9,5.4-4.2,1.9-1.4,4.3-3.2,5.2-4,1-.8,3-2.5,4.5-3.7,8.6-6.9,9.3-7.6,24.1-21.1,22.9-20.9,41.6-41.1,56.2-60.6,1.9-2.6,4-5.2,4.5-5.9,5-6,11.5-15.2,23.9-33.9,15.1-22.6,14.7-21.9,28.4-47.8,1.9-3.6,4.3-8.3,5.3-10.5,1.1-2.2,2.4-4.7,2.9-5.5.6-.8,1.4-2.5,1.9-3.6.5-1.2,2.5-5.5,4.4-9.5,1.9-4.1,4.7-10.1,6.2-13.4s3.5-7.8,4.6-10.1c1-2.2,1.9-4.6,1.9-5.3s1.1-3.5,2.5-6.3c1.4-2.7,2.5-5.4,2.5-5.9s1.1-3.2,2.4-6.1,3.2-8,4.1-11.3c1-3.3,2.1-6.5,2.6-7,.4-.6,1.5-4.2,2.5-8,.9-3.9,2-7.2,2.4-7.5s1.8-5,3-10.5c1.3-5.5,2.6-10.5,3-11,.4-.6,1.5-4.8,2.5-9.5.9-4.7,2.1-9.3,2.6-10.2.5-1,1.8-7.3,3-14,1.1-6.8,2.4-13,2.9-14,.5-.9,1.6-8.1,2.6-16,.9-7.8,2-15.2,2.5-16.3,3.9-9.3,3.9-108.6,0-118-.4-1.1-1.5-8.5-2.4-16.3-1-7.9-2.1-15.1-2.6-16-.4-1-1.8-7.5-3-14.7-1.3-7.1-2.6-13.6-3.1-14.5-.4-.8-1.5-5.1-2.5-9.5-.9-4.4-2-8.5-2.4-9-.4-.6-1.7-5.5-3-11-1.2-5.5-2.6-10.2-3-10.5s-1.5-3.6-2.4-7.5c-1-3.8-2.1-7.4-2.6-8-.4-.5-1.6-3.9-2.5-7.5-1-3.6-2.4-7.6-3-9-.7-1.4-1.7-3.6-2.2-5-.6-1.4-1.9-4.5-3.1-7-1.1-2.5-2.5-6.3-3.2-8.5s-1.9-5.1-2.6-6.5c-2.2-4.1-8-17.2-9.5-21.3-.7-2-1.6-3.7-1.9-3.7s-1.2-1.7-1.8-3.9c-.7-2.1-1.9-4.4-2.7-5.1s-1.5-1.6-1.5-2.1c0-1.1-4.1-9.9-5.2-11.4-.4-.6-2.4-4.2-4.4-8-10.7-20.5-9.7-18.8-24-40.5-2.7-4.1-5.2-8.2-5.7-9-.4-.8-2.1-3.3-3.8-5.5-1.6-2.2-4.2-5.8-5.7-8-6-8.9-19.1-25.7-29.1-37.4-5.8-6.8-12.2-14.2-14.1-16.5-1.9-2.2-3.9-4.3-4.3-4.4-.4-.2-5.1-4.6-10.4-9.8s-10-9.4-10.5-9.4-.6-.5-.3-1c.3-.6.2-1-.4-1s-5.1-3.9-10.3-8.6c-5.1-4.8-10.4-9.4-11.8-10.3-1.3-.9-3.4-2.5-4.6-3.6-3.7-3.4-17.8-14.2-24.4-18.7-1.4-1-4.3-3.1-6.5-4.7-2.2-1.7-5.7-4-7.7-5.1-2.1-1.1-3.8-2.4-3.8-2.9s-1.2-1.3-2.7-2c-1.6-.7-6.4-3.6-10.8-6.5-12.4-8.2-18.1-11.6-19.2-11.6s-1.6-.7-2.3-1.5-3-2-5.1-2.7c-2.2-.6-3.9-1.4-3.9-1.8s-2.4-1.7-5.2-3.1c-2.9-1.3-5.5-2.7-5.8-3-.5-.6-25.1-12.7-34-16.6-2.5-1.2-7-3.2-10-4.6-3-1.3-7.3-3-9.5-3.7s-4.2-1.6-4.5-2-3-1.5-6-2.5c-3-.9-7.3-2.5-9.5-3.5-2.2-1.1-6.1-2.4-8.7-3.1-2.7-.6-4.8-1.5-4.8-1.9s-3.3-1.6-7.2-2.5c-4-1-7.5-2.1-7.8-2.5s-5-1.8-10.5-3.1-10.2-2.6-10.5-3-4.1-1.4-8.5-2.4c-4.4-.9-8.9-2-10-2.5-2.5-1.2-22.7-5-26.1-5s-2.3-.4-2-.8c.3-.5-5.7-1.6-13.2-2.6s-14.6-2.2-15.7-2.6c-8.5-3.6-92.7-5.2-121-2.4h0ZM802.5,51.8c19.4,1.3,34.6,3,37,3.9,1.1.5,7.9,1.6,15,2.5,7.2,1,13.4,2.1,14,2.7.5.5,2,.9,3.3.9,3.2,0,22.2,3.8,24.7,5,1.1.5,4.7,1.4,8,2,3.3.7,7.4,1.8,9,2.5,1.7.7,7,2.3,12,3.5,4.9,1.2,9.4,2.5,10,2.9.5.5,3.5,1.4,6.5,2.1s6.4,1.8,7.5,2.4c1.1.7,4.3,1.8,7,2.5,2.8.7,6.8,2,9,3.1,2.2,1,5.8,2.4,8,3,2.2.7,5.6,2.1,7.5,3.1,1.9,1.1,3.9,1.9,4.4,1.9s3.7,1.3,7,2.9c3.4,1.6,8.4,3.9,11.1,5.1,11.4,5.2,32.1,15.4,33.5,16.6.8.6,3.4,1.7,5.7,2.3,2.3.7,4.5,1.6,4.8,2.1s2.5,1.9,4.8,3c9.9,4.8,27.3,15.5,37.2,22.9,2.2,1.7,5.6,4,7.5,5.1s5.3,3.4,7.5,5.1c2.2,1.6,5.1,3.7,6.5,4.7,6.9,4.7,22.2,16.8,38.8,30.7,25.6,21.4,59.5,59,78.4,87,1.5,2.2,4.1,5.8,5.7,8,1.7,2.2,3.4,4.7,3.8,5.5.7,1.4,5.3,8.5,12.9,19.9,1.6,2.4,3.4,5.2,4,6.2.6,1.1,1.7,2.7,2.5,3.6.8,1,2.3,3.4,3.2,5.3,1,1.9,3.7,6.9,6.1,10.9,2.4,4.1,4.2,8.1,3.9,8.8s0,1.3.7,1.3.9.4.6.9,0,1.2,1,1.5c.8.3,1.3,1,1,1.5s0,1.1.9,1.5c.8.3,1.2,1.2.9,2.1-.3.8,0,1.5.6,1.5s.8.4.5,1c-.3.5-.2,1,.4,1s.8.6.5,1.4c-.3.7,0,1.6.9,1.9s2,2.6,2.7,5.1,1.6,4.6,1.9,4.6,1.3,1.7,2,3.7c1.5,4.1,7.3,17.2,9.5,21.3.7,1.4,1.9,4.3,2.6,6.5s2.6,6.8,4.1,10.2c1.6,3.4,2.9,6.7,2.9,7.3s.6,2.1,1.4,3.3c.7,1.2,2.1,5.1,3.1,8.7.9,3.6,2.1,6.9,2.5,7.5.5.5,1.6,3.9,2.5,7.5s2.2,7.8,3,9.5c.7,1.6,2.1,6.6,3,11,1,4.4,2.1,8.4,2.5,9,.4.5,1.5,4.6,2.4,9,1,4.4,2.1,8.7,2.5,9.5.5.9,1.8,7.4,3.1,14.5,1.2,7.2,2.6,13.7,3,14.7.5.9,1.6,8.1,2.6,16,.9,7.8,2,15.2,2.4,16.3,1.4,3.3,3,23.6,3.7,45.5.6,20.6-1.7,61.1-3.7,64.9-.5.9-1.6,8.1-2.5,15.9-.9,7.9-2,15.1-2.5,16-.5,1-1.8,7.2-2.9,14-1.2,6.7-2.5,13-3,14-.5.9-1.7,5.5-2.6,10.2-1,4.7-2.1,8.9-2.5,9.5-.4.5-1.5,4.6-2.5,9-.9,4.4-2.3,9.3-3,11-.8,1.6-2.1,5.9-3,9.5s-2,6.9-2.5,7.5c-.4.5-1.7,4.4-3,8.5-1.2,4.1-2.5,7.9-3,8.5-.4.5-1.3,2.8-2,5-.7,2.1-2.4,6-3.6,8.6-1.3,2.6-2.4,5.3-2.4,6s-.9,3.1-1.9,5.3c-5.3,11.2-8.9,19.5-10.2,22.8-.7,2.1-1.6,3.8-1.9,3.8s-1.3,1.9-2,4.2c-.7,2.4-2,4.8-2.8,5.5-.8.6-1.1,1.6-.7,2.2.3.6,0,1.1-.5,1.1s-.8.4-.5,1c.3.5,0,1-.5,1s-.9.7-.6,1.5c.3.9,0,1.8-.9,2.1-.8.4-1.2,1-.9,1.5s-.2,1.2-1,1.5c-.9.3-1.3,1-1,1.5s0,.9-.3.9-.9.9-1,2c0,1.6-2.1,5.5-6.8,13.1-.5.9-2.2,3.8-3.8,6.5-1.5,2.7-3.5,6.1-4.5,7.5-.9,1.4-3,4.6-4.6,7-1.7,2.4-5.9,8.8-9.5,14.2-12.7,19-15.7,23.3-20.1,28.9-2.5,3.2-6.1,7.8-8,10.3-10.9,14.5-32.3,38.8-43.1,49-11,10.4-45.6,39.1-53.5,44.5-1.3.8-6.8,4.8-12.4,8.8-5.5,4-12.6,9.1-15.8,11.2-3.1,2.2-7.9,5.5-10.7,7.4-2.7,2-6.3,4.1-8,4.7-1.6.7-3.8,1.9-4.7,2.7-1.9,1.6-6.1,4-13.5,7.7-2.9,1.5-5.5,3-5.8,3.5-.2.4-2,1.1-3.9,1.4-1.9.4-3.9,1.3-4.5,2s-3.3,2.1-5.9,3.1-5.4,2.3-6.2,3c-.8.6-3.1,1.8-5,2.5s-4.2,1.9-5,2.5c-.8.7-3.7,2.1-6.5,3.1-2.7,1-6.3,2.6-8,3.5-1.6.9-4.1,2-5.5,2.4s-3.2,1.3-4,2-3.8,2-6.6,2.9-6.8,2.5-9,3.6c-2.1,1.1-4.5,2-5.4,2s-3.2.9-5.2,1.9c-2,1.1-6.4,2.7-9.9,3.6s-6.8,2-7.4,2.5c-.5.4-3.9,1.6-7.5,2.5s-7.8,2.3-9.5,3c-1.6.7-5.5,1.8-8.5,2.5s-6,1.6-6.5,2.1c-.6.4-6.2,1.8-12.5,3.1s-11.7,2.6-12,3-5.1,1.5-10.5,2.4c-5.5.9-10.7,2-11.7,2.4-1.9,1.1-29.2,5-34.2,5s-3.7.4-4,.9c-1.1,1.7-30.5,3.6-55.6,3.6s-51.5-1.7-54.9-3.5c-.9-.5-6.5-1.4-12.6-2-6-.6-14.1-1.8-18-2.5-3.8-.8-12.2-2.3-18.5-3.5s-11.7-2.5-12-2.9-5.4-1.7-11.5-3c-6-1.2-11.4-2.6-12-3.1-.5-.4-3.7-1.3-7-2s-7.3-1.8-9-2.5c-1.6-.7-5.7-2.1-9-3s-6.4-2-7-2.4c-.5-.5-3.9-1.6-7.5-2.5-3.6-1-7.4-2.3-8.5-3s-4-1.8-6.5-2.5-5.4-1.8-6.5-2.5-4.5-2.1-7.5-3.1-6.2-2.3-7-3-3.3-1.8-5.5-2.5-4.7-1.8-5.5-2.5c-.8-.6-3.7-2-6.5-3-2.7-1-5.7-2.3-6.5-3s-3-1.7-4.9-2.4c-1.9-.6-4.2-1.7-5-2.5-.9-.7-3.7-2.1-6.3-3.1s-5.3-2.4-5.9-3.1-2.6-1.6-4.5-2c-1.9-.3-3.7-1-3.9-1.4-.3-.5-2.9-2-5.8-3.4-4.8-2.4-7.3-3.8-19.7-11.1-9-5.2-12.1-7.2-14.3-9.1-2.4-2.1-12-8.8-17-11.8-1.8-1.1-5.8-4-8.9-6.5s-7.8-6.2-10.5-8.1c-32.6-23.6-61.8-52-88.6-86-5.8-7.4-11.8-14.9-13.2-16.6-1.4-1.8-3.1-4.3-3.8-5.6-.6-1.3-2.9-4.6-5-7.3-4.1-5.4-13.3-19-15.7-23.4-.8-1.5-2.6-4.3-4-6.1-3-4.2-4-5.7-12.2-19.9-3.3-5.6-7.8-14.9-7.7-15.8,0-.3-.6-1-1.5-1.5s-1.4-1.3-1.1-1.9c.4-.5.2-.9-.4-.9s-.8-.6-.5-1.4c.3-.7-.2-1.6-1.1-2-.9-.3-1.3-1-1-1.6.3-.5.1-1-.5-1s-.8-.5-.5-1c.3-.6.1-1-.5-1s-.8-.5-.5-1c.3-.6.2-1-.4-1s-.8-.6-.5-1.4c.3-.7-.2-2-1-2.9-.9-.9-1.6-2-1.6-2.5,0-1.3-4.1-10.6-4.9-11.2-.4-.3-1.6-3-2.8-6-2.8-7.3-7-17.5-9.4-22.7-1-2.4-1.9-4.6-1.9-5s-.7-2.2-1.6-3.8c-.9-1.7-2.5-5.9-3.5-9.5-1.1-3.6-2.6-7.6-3.3-9s-1.9-5-2.6-8-1.6-6-2-6.5c-.5-.6-1.8-4.8-2.9-9.5-1.2-4.7-2.6-9.4-3.1-10.5-.6-1.1-1.7-5.4-2.5-9.5-.9-4.1-2.2-9.3-3-11.5s-2.2-8.5-3.1-14-2-10.5-2.4-11c-.5-.6-1.6-7.1-2.5-14.5-1-7.4-2.1-14.4-2.6-15.5-1.7-4.3-5-45.5-5-64,.1-19.1,3.2-59.8,5-64,.5-1.1,1.6-8.1,2.6-15.5.9-7.4,2-14,2.5-14.5.4-.6,1.7-6.6,2.9-13.5,1.3-6.9,2.6-12.9,3-13.5.4-.5,1.6-4.8,2.6-9.5,1-4.6,2.2-9.1,2.6-10,.5-.8,1.8-5.3,3-10,1.1-4.7,2.4-9,2.9-9.5.4-.6,1.3-3.5,2-6.5s1.8-6.4,2.4-7.5c.7-1.1,2.1-4.9,3-8.5,1-3.5,2.7-8,3.7-9.9,1-2,1.9-3.9,1.9-4.3s1.1-3.1,2.4-6,2.7-6.4,3.1-7.8,2-5.2,3.6-8.5c1.5-3.3,3.1-7.2,3.4-8.8.4-1.5,1.1-2.7,1.5-2.7s1.8-2.8,3.1-6.3c1.2-3.4,2.7-6.5,3.1-6.8.5-.3,1-1.6,1.1-2.7.1-1.2.5-2.2,1-2.2s.5-.5.2-1c-.3-.6-.1-1,.5-1s.8-.5.5-1c-.3-.6.1-1.3.9-1.6.9-.3,1.3-1,1-1.5s0-.9.6-.9,1-.7.6-1.5c-.3-.8-.1-1.5.5-1.5s.7-.5.4-1c-.3-.6-.1-1,.5-1s.9-.4.5-.9c-.3-.5-.1-1.2.4-1.6.5-.3,2.1-2.9,3.5-5.8,1.5-2.8,3.9-7.5,5.5-10.2,1.7-2.8,3.7-6.4,4.5-8.1s2.2-3.6,3-4.4c.9-.7,1.6-1.7,1.6-2.2s1.3-2.7,2.9-4.7c1.5-2,3.4-4.8,4.2-6.3s3.3-5.4,5.7-8.8c2.3-3.4,4.2-6.5,4.2-6.7,0-.3,1.7-2.8,3.7-5.6,2.1-2.8,4.3-5.9,4.8-6.9,3.2-5.5,29.4-38.4,39.3-49.3,25.6-28.1,61.7-58.8,94.9-80.8,5.6-3.8,10.5-7.2,10.8-7.8.4-.5,2.3-1.8,4.3-2.9,2-1.2,5.7-3.4,8.2-5,2.5-1.7,6.5-4,9-5.3,4.5-2.3,7.5-4,14.1-8.4,1.9-1.2,4.4-2.3,5.5-2.3s3-.7,4.4-1.4c3.8-2.2,29.7-15,36.5-18.1,3.3-1.5,7.6-3.5,9.5-4.5s5.3-2.3,7.5-3,4.9-1.9,6-2.5c1.1-.7,3.8-1.8,6-2.5s4.5-1.6,5-2c.6-.5,4.4-1.8,8.5-3,4.1-1.1,8.3-2.6,9.4-3.2,1-.5,4.2-1.7,7-2.5s6.5-2,8.1-2.8c1.7-.7,6.6-2.1,11-3,4.4-1,8.5-2.1,9-2.5.6-.4,4.6-1.5,9-2.4,4.4-1,8.7-2.1,9.6-2.6,2-1,14.3-3.6,21.9-4.6,3-.4,6-1,6.5-1.5,1.1-.8,20.7-3.9,25.2-3.9s3.3-.4,3.9-.9c.8-.9,25.3-3.5,40.4-4.4,12.7-.8,37.5-.6,50.5.3h0Z"/>
  <path class="cls-1" d="M779,87.5c0,.4-6.2.8-13.8.8-7.5,0-15.1.2-16.9.6s-3.6.2-4.2-.4c-.7-.7-1.1-.8-1.1,0s-.6,1.1-1.2,1.1c-3.8,0-20.9,1.5-24.8,2-2.5.4-6.3.7-8.5.7-2.2,0-4.3.4-4.6.9-.5.7-7.8,1.8-12.6,1.9-1.3,0-2.3.3-2.3.7s-1.8.7-4,.7c-2.2,0-4,0-4,.5s-.6.6-1.2.7c-1.6,0-5.7.9-8.3,1.5-7.8,2-11.8,2.7-12.3,2.2-.3-.2-1,0-1.6.4-.6.6-2.3,1.2-3.6,1.4-1.4.2-3.2.7-4,1-1.6.7-9.3,2.6-12.5,3.1-1.1.2-2.2.5-2.5.6-.3.2-.9.4-1.5.5-.5,0-1.8.5-2.7.8-2.5,1-4.7,1.6-5.3,1.7-.3,0-2.1.7-4.1,1.5s-4,1.2-4.5.9-.9,0-.9.6-.4.9-.9.5c-.5-.3-1.2,0-1.5.4-.4.5-2.4,1.2-4.6,1.6s-4,1.1-4,1.5-.9.7-2,.5-2,0-2,.7-.7.8-1.5.4c-.8-.3-1.5,0-1.5.4s-.9,1-2,1-2,.5-2,1.1-.8,1-1.7.9c-2.6-.3-6.3,1.1-6.3,2.2s-.7.8-1.5.4c-.8-.3-1.5,0-1.5.4s-.9,1-2,1-2,.4-2,.9-1,1.1-2.2,1.4c-4.9,1.2-12.3,4.3-13.1,5.5-.5.7-1.2,1-1.7.7s-1.1-.1-1.5.5c-.3.5-1.5,1-2.6,1s-1.9.4-1.9.9-1.2,1.2-2.7,1.6c-4.2,1-15.3,6.6-15.3,7.7s-.4.7-.9.4-2.5.5-4.5,1.9-4.8,2.8-6.2,3.1c-1.4.4-2.8,1.3-3.1,2-.3.8-1.3,1.4-2.3,1.4s-2.2.5-2.5,1c-.4.6-1.1.8-1.6.5-.5-.4-.9.1-.9,1s-.4,1.4-.8,1.1c-.5-.3-3.3,1-6.3,2.9-2.9,1.9-5.7,3.5-6.2,3.5s-3.2,1.8-6.2,4-5.9,4-6.5,4-1,.4-1,.9-1.4,1.4-3,2c-1.7.5-3.3,1.7-3.6,2.6-.3.8-1.2,1.5-2,1.5s-1.4.4-1.4,1-.7,1-1.5,1-1.5.4-1.5,1-.7,1-1.5,1-1.9.8-2.4,1.7c-.6,1-1.1,1.5-1.1,1.1s-.9,0-2.1,1c-1.1.9-3.3,2.7-4.7,3.9-1.5,1.3-3.2,2.3-3.9,2.3s-1.8.8-2.5,1.8c-.7.9-2.9,2.9-4.8,4.3-1.9,1.5-4.5,3.7-5.7,4.8-1.3,1.2-2.3,1.9-2.3,1.5s-.7-.1-1.5.6-1.2,1.7-.8,2.3c.3.5.2.7-.3.4-.6-.3-3.3,1.5-6.1,4.1s-6.2,5.5-7.5,6.5c-5.3,4-19.5,17.3-26.5,24.8-1.8,1.9-3.7,3.8-4.2,4.4-3,3-11.3,12.1-13.7,15-1.5,1.9-3.2,3.2-3.6,2.9s-.8.1-.8.8-.9,2.1-2,3.1c-1.2,1-1.8,2.3-1.4,3,.4.6.4.9-.1.5-.9-.8-3.5,1.5-3.5,3.1s-.4,1.1-.8,1.1-1.5,1.1-2.2,2.5c-.7,1.3-1.7,2.2-2.2,1.9-.4-.3-.8.1-.8.9s-1.1,2.4-2.5,3.7c-1.3,1.2-2.2,2.7-1.9,3.1.3.5.1.9-.5.9s-1.8,1.3-2.7,2.9c-1,1.7-2.1,2.8-2.6,2.5-.4-.3-.8.2-.8,1s-.9,2.6-2,3.8c-4.4,5-5,5.9-5,7.4s-.4,1.2-1,.9c-.5-.3-1-.2-1,.4s-1.8,3.6-4,6.8-4.6,6.6-5.3,7.7c-.6,1-1.8,2.4-2.5,3.2-.7.7-1.3,1.7-1.3,2.1s-2.7,5.1-6,10.4c-3.2,5.3-5.9,10.2-5.9,10.8s-.4,1-.9.7c-.5-.4-1.2.8-1.6,2.5s-1.3,3.3-2.1,3.6-1.2.9-.9,1.3-.6,2.3-1.9,4.3c-2.2,3.3-3.6,6.2-3.6,7.9s-.9,1.7-1.9,2.7-2.2,3.3-2.6,5-1,2.9-1.5,2.6c-.4-.3-1.1.7-1.4,2.3-.4,1.5-2.5,6.3-4.7,10.7-2.1,4.4-4.1,9.1-4.4,10.3-.2,1.3-2.3,6.1-4.5,10.9-5.6,11.6-6.3,13.3-6.6,16.8-.1,1.6-1.5,5.7-3,9-2.7,6.2-4.2,10.3-5,14.3-.3,1.3-1.4,4.7-2.4,7.5-1.1,2.9-2,6.1-2,7.2s-.4,2.5-1,3.1-1.2,2.5-1.4,4.4c-.3,1.9-.5,3.5-.6,3.5s-.3.7-.5,1.5c-1.1,4.3-2.4,9.8-2.9,12-.3,1.4-.9,4-1.5,5.7-.5,1.8-.7,3.3-.4,3.3s0,.6-.6,1.4c-.7.8-1.1,2-1,2.8.2.7-.1,3.1-.5,5.3-1.1,5.3-1.5,7.3-2.1,11.5-.3,1.9-.9,5.7-1.5,8.5-.5,2.7-1.2,7.7-1.6,11-.8,7.1-.9,7.7-1.7,13.5-.4,2.5-1,8.1-1.3,12.5s-.8,10-1,12.5c-1.3,16-.6,66.6,1.1,77.5.6,3.4,1.4,11.7,1.9,19,.2,2.7.8,8,1.5,11.8.6,3.7,1.3,7.9,1.5,9.5.2,1.5.6,4.3,1,6.2.3,1.9.8,4.6,1,6,1.4,7.8,9,38.5,9.6,38.8.4.2.6,1.2.3,2.2-.3,1.1,0,2,.6,2s.8.7.5,1.5c-.4.8-.2,2.1.4,2.8.5.6,1.2,2.5,1.6,4.2,1.5,6.8,4,14.5,4.8,14.5s.5.7.2,1.5c-.4.8-.2,2.1.4,2.8s1.6,3.4,2.2,6c.7,2.6,1.7,4.7,2.2,4.7s.6.9.3,2c-.4,1.1-.2,2,.4,2s1.1.6,1.1,1.2c0,1.7,3.7,11.1,9.5,24.3,1.4,3.3,3,6.9,3.5,8,.7,1.8,4.4,10.1,7.3,16.2.6,1.3,1.4,2.3,1.9,2.3s.8.9.8,1.9.4,2.2.9,2.6c.5.3,1.2,1.8,1.6,3.4.3,1.6,1.2,3.2,2,3.4.7.3,1.6,1.9,2,3.6s1,3.3,1.5,3.6,2.3,3.4,4,6.8c1.8,3.4,3.8,6.9,4.6,7.8.8.8,1.4,2.3,1.4,3.2s.4,1.7.8,1.7,1.9,1.9,3.2,4.2c1.3,2.4,3.4,5.7,4.7,7.4s2.3,3.6,2.3,4.2.5,1.2,1,1.2,1,.6,1,1.3,1,2.3,2.3,3.7c1.2,1.4,2.8,3.7,3.4,5.2.7,1.6,1.7,2.8,2.2,2.8s1.4,1.3,2.1,3c.7,1.6,1.5,3,1.9,3s1.5,1.5,2.6,3.2c1,1.8,2.9,4.4,4.2,5.8s2.3,2.8,2.3,3.2c0,.6,1.8,2.9,6.8,8.5,1.2,1.4,2.2,3,2.2,3.5s.5.6,1,.3c.6-.3,1,0,1,.7s1.2,2.7,2.8,4.4c1.5,1.6,3.9,4.6,5.4,6.5,1.4,1.9,6.1,7,10.2,11.3,4.2,4.3,7.6,8.3,7.6,8.8s.5.6,1,.3c.6-.3,1,0,1,.4,0,1,15.5,17.1,16.3,17.1s3.6,3.2,7.5,7.1c4,3.9,7.2,6.9,7.2,6.6s1.8,1.1,4,3.3,4,3.6,4,3.2,1,.4,2.3,1.8c1.8,2.1,8.5,7.6,17.5,14.5.7.5,2.1,1.7,3.1,2.5.9.9,3.3,2.6,5.2,3.8s4.3,3,5.3,4.1,2.2,1.8,2.6,1.6c.4-.3,1,.2,1.4,1,.3.8,1.2,1.5,2.1,1.5s1.5.4,1.5.8,1.6,1.7,3.5,2.8c1.9,1,3.5,2.2,3.5,2.6s.7.8,1.5.8,1.8.7,2.1,1.5c.4.8,1,1.3,1.4,1,.5-.3,1.4,0,2.2.7.7.7,2.9,2.2,4.8,3.2,1.9,1.1,3.8,2.4,4.2,3,.3.5,1.3,1.1,2.1,1.2s3.3,1.6,5.7,3.3,4.8,3.1,5.5,3.1,2,.9,3,2,2.1,1.7,2.6,1.5c.4-.3,1.3,0,2.1.8,1.1,1.1,2.5,1.9,5.6,2.9.4,0,1.5.9,2.5,1.8,1,.8,2.1,1.6,2.5,1.6,2.5.5,5.2,1.8,5.2,2.5s1.8,1.4,4,2c2.2.7,4.5,1.8,5.1,2.6.6.7,1.5,1.3,2,1.3s4.4,1.7,8.7,3.7c4.2,2.1,8.2,3.8,8.8,3.9s2.7.9,4.5,1.7c4.2,1.8,6.8,2.7,7.3,2.4.2,0,1.3.7,2.5,1.7,1.2,1.1,2.1,1.5,2.1,1.1s.8,0,1.8.7c.9.8,4.2,2.3,7.2,3.2,14.9,4.7,26.4,8.9,26.8,9.8.2.4.9.5,1.6.2.6-.2,3.2.3,5.6,1.2,2.5.9,5.8,1.8,7.3,2s3.8.9,5,1.6,3.3,1.4,4.7,1.5c2.2.3,2.9.5,5,1.2.7.3,7.5,1.9,15.5,3.7,6.3,1.4,8.6,1.9,13.5,2.8.8,0,2.9.6,4.5,1,1.7.3,4.6.9,6.5,1.2,3.3.5,5.9.9,10.5,1.8,3.3.7,11.7,1.8,16,2.1,2.2.2,4,.4,4,.5s2,.3,4.5.5c2.5.3,6.5.7,9,1.1,2.5.3,7,.7,10,1,8.2.7,71,1,71,.4s3.5-.7,7.8-.9c14-.4,15.2-.5,15.2-1.1s1.8-.5,4-.5,4-.2,4-.5,1-.6,2.3-.6c1.2,0,3.8-.4,5.7-.8s5.1-.9,7-1.1c4.8-.5,10.9-1.4,14.5-2,1.7-.3,4.4-.7,6-1,5.1-.8,8.9-1.6,10.5-2.2.8-.3,2.4-.7,3.6-.8,1.1-.2,3.8-.8,6-1.4,4.3-1.1,9.1-2.1,11.4-2.4.8,0,1.7-.5,2-.9s1.9-.9,3.5-1.2c1.7-.3,4.5-1,6.3-1.5,1.7-.5,3.2-.8,3.2-.5s1,0,2.3-.8c2.6-1.4,2.1-1.3,7.5-2.3,2.3-.4,4.2-1.1,4.2-1.6s.8-.9,1.8-.9,6.2-1.7,11.7-3.6c5.5-2,12.3-4.4,15-5.4,4.6-1.6,9.2-3.5,18.2-7.6,1.7-.8,3.8-1.4,4.6-1.4s1.9-.5,2.2-1c.4-.6,1-.8,1.5-.5s1.2,0,1.5-.5c.9-1.5,15.7-8.4,17.3-8.2.6.2,1.2-.2,1.2-.8s.6-1,1.3-1,1.9-.6,2.6-1.3c.6-.6,1.5-1.2,1.9-1.3,1.6,0,9.2-3.9,9.2-4.6s1.6-1.2,3.5-1.8,3.5-1.6,3.5-2.1.6-.9,1.4-.9,2.5-.9,3.9-2,3-2,3.5-2c1,0,10.5-5.9,12.9-8,.7-.5,1.9-1,2.8-1s1.5-.4,1.5-1,1.1-1.2,2.5-1.6c1.4-.3,3.1-1.4,3.8-2.4s2.1-2,3.2-2.2,1.9-1,1.7-1.7c0-.7.2-1,.7-.7s1.4,0,2.1-.9,1.7-1.5,2.2-1.5,2.3-1.3,4.1-3c1.8-1.6,4-3,5-3s1.5-.5,1.2-1c-.3-.6,0-1,.9-1s1.6-.5,1.6-1,.7-1,1.5-1,1.5-.5,1.5-1,.5-1,1.1-1,3.1-1.7,5.4-3.8c5.9-5.3,8.4-7.2,9.3-7.2s3-2.1,5.8-4.8c2.7-2.6,6.7-6,8.9-7.6s6.9-5.9,10.5-9.5,8.2-8,10.3-9.7c2-1.7,3.3-3.4,2.9-3.8s-.2-.6.3-.5c1.4.5,6.5-3.1,6.5-4.6s1.6-2.6,3.5-4.4c1.9-1.7,3.5-3.6,3.5-4.2s.5-.7,1-.4c.6.3,1,.2,1-.3,0-1.3,8.8-10.1,9.4-9.4.3.3.6,0,.6-1,0-1.9,3.5-6,4.4-5.1.3.3.6,0,.6-.8s.8-2.2,1.8-3.1c.9-.9,2.8-3.2,4.2-5.2,1.4-1.9,3.1-3.6,3.8-3.6s1.2-.6,1-1.2c-.5-1.5,1.5-3.8,3.2-3.8s.9-.4.5-.9c-.3-.6,0-1.3.8-1.8.7-.4,2-2,2.9-3.4s2.3-3.2,3-4c2.8-3,6.9-8.9,6.1-8.9s0-.5,1-1.1c.9-.5,1.7-1.7,1.7-2.5s.4-1.3.9-1,1.6-1,2.5-2.9,2.1-3.5,2.6-3.5,1-.9,1-2.1.4-1.8.9-1.5,1.2-.5,1.5-1.9c.4-1.4,1.1-2.5,1.6-2.5s1-.7,1-1.5.4-1.5,1-1.5,1.2-1.1,1.6-2.5c.3-1.4,1-2.3,1.4-2s1.1-.6,1.4-2c.4-1.4,1.1-2.5,1.6-2.5s1-.7,1-1.5.9-2.4,2-3.5c1.2-1.2,1.8-2.5,1.5-3-.4-.6,0-1.3.9-1.6.9-.3,1.6-1.4,1.6-2.4s.9-2.7,2-4,2-2.9,2-3.7.4-1.2,1-.8c.5.3,1.4-1.3,2-3.5s1.5-4,2-4,1.1-1.4,1.5-3.1,1.3-3.3,2-3.5c.7-.3,1.5-1.8,1.8-3.3.3-1.6,1.2-3.5,2-4.3.8-.7,2.2-3.7,3.1-6.6,1-2.8,2.2-5.2,2.7-5.2s.8-.4.5-.9c-.4-.5-.2-1.1.2-1.3.5,0,2.1-3.7,3.7-7.8,1.5-4.1,3.4-7.9,4.2-8.3.7-.4,1.3-1.6,1.3-2.6s.3-2.1.8-2.5c.4-.4.7-1.1.8-1.4,0-.4.3-1.4.6-2.2.4-.8.9-2.4,1.4-3.5.4-1.1.8-2.2.8-2.5,0-.3.7-1.4,1.3-2.5s1.1-2.2,1.1-2.5.6-1.9,1.2-3.5c.7-1.7,1.3-3.5,1.4-4,0-.6,1-2.7,1.9-4.9.9-2.1,1.5-4.2,1.2-4.6s.8-4,2.5-7.9c1.6-3.9,3.1-8.3,3.3-9.9.4-2.6.6-3.3,2.3-7.7.4-1.1.8-2.8.9-3.7s.7-3,1.3-4.5,1.1-3.5,1.1-4.3c0-1.5,1.9-9.1,2.9-12,.3-.8.7-2.2.8-3,.5-2.7,1.2-5.5,1.5-5.5s.3-.9.5-2,.6-3.8,1-6c.3-2.2.8-4.9.9-6,.2-1.1.4-2,.5-2,.3,0,.8-2.7,1.5-8,.3-2.2.8-5.1,1.1-6.5.4-1.4.8-4.1.9-6,.2-1.9.4-3.7.5-4,.2-.3.4-1.9.5-3.5,0-1.7.5-3.7.8-4.5s.5-2.6.3-4c0-1.4,0-3,.3-3.5.3-.6.7-2.6.7-4.5,0-1.9.5-6.4.8-10,1.3-13.6,2.1-46.3,1.2-47.8-.3-.6-.2-1.4.4-1.7.6-.4.8-1.5.5-2.6-.4-1-.8-7.6-1.1-14.6-.5-12.9-.8-17.3-1.8-27.3-.4-3-.8-8-1.1-11s-.8-6.9-1-8.5c-.3-1.7-.7-4.8-1-7-.2-2.2-.9-5.5-1.4-7.3s-.8-3.9-.5-4.7c.3-.7,0-1.6-.5-2-.6-.3-.9-1-.7-1.4.3-.4,0-2.3-.4-4.2s-1.2-5-1.4-7c-.3-2-1.1-6.3-2-9.5-.8-3.2-1.7-7.8-2.1-10.1-.4-2.4-1.1-4.5-1.5-4.8-.5-.3-.7-1.2-.4-1.9.3-.8,0-1.7-.5-2.1-.6-.3-.9-1.1-.5-1.6.3-.5,0-1.7-.7-2.5-.6-.8-.9-1.7-.6-2.1.4-.3.3-1.1,0-1.7-.5-.6-1.9-5-3.2-9.9-1.2-4.8-2.6-8.7-3-8.7s-.6-.9-.3-2,0-2-.6-2-1.1-.9-1.1-2c0-1.9-2.3-8.8-3.9-12-.5-.9-1.2-3-1.6-4.9-.4-1.8-1.3-4.4-2.1-5.9s-1.4-3.3-1.4-4-.4-1.2-1-1.2-1-.8-1-1.8-.3-2.2-.7-2.6c-.4-.3-.8-1.4-.9-2.4-.2-2-2.6-8.5-3.4-9.2-.3-.3-1.4-2.5-2.4-5s-3.4-7.6-5.4-11.5c-4.6-9.3-4.8-9.5-6.3-13-.7-1.7-2.1-4.2-3-5.6-1-1.4-2.1-3.8-2.5-5.3-.3-1.5-1.3-3-2-3.3-.8-.3-1.4-1.3-1.4-2.2s-.9-2.7-2-4.1-2-3.1-2-3.8-.4-1.2-.8-1.2-1.4-1.6-2.2-3.5-1.7-3.5-2.1-3.5-1-.8-1.3-1.8c-.7-2-1-2.4-10.1-16.7-3.8-6.1-7.9-12.1-9.2-13.4s-2.3-3-2.3-3.8-.4-1.1-1-.8c-.5.3-1,.1-1-.5,0-1.4-9.2-14-10.2-14s-.8-.6-.8-1.3-1.3-2.6-2.8-4.3c-1.5-1.8-4.9-6-7.7-9.4-2.7-3.4-7.1-8.5-9.7-11.3-2.6-2.9-4.8-5.6-4.8-6s-.4-.5-1-.2c-.5.3-1,.2-1-.4s-1.6-2.6-3.5-4.7c-1.9-2-3.5-4.1-3.5-4.6s-.4-.6-1-.3c-.5.3-1,.2-1-.3,0-1.2-12.3-13.7-13.2-13.4-.4.1-1-.7-1.3-1.8-.4-1.1-1.1-2-1.6-2s-4.1-3.2-8-7c-3.9-3.9-7.2-7-7.5-7s-1.2-.8-2.2-1.8c-3.7-3.5-9.2-8.2-9.6-8.2s-1.7-1.3-3.4-2.8c-1.6-1.6-4.3-3.8-5.9-5-13.7-10.6-17.2-13.2-18.1-13.2s-1.2-.7-1.6-1.5c-.3-.8-1.2-1.5-2-1.5s-1.6-.3-1.8-.8c0-.4-2.3-2.1-4.8-3.7-2.5-1.7-5-3.7-5.7-4.5s-1.3-1.1-1.3-.7-1.8-.6-4-2.3-4-2.8-4-2.4-.9-.2-2.1-1.4c-1.1-1.2-2.4-2-3-1.7-.5.4-.9.2-.9-.4,0-.9-2.8-2.8-7.7-5-1.3-.6-2.3-1.5-2.3-2.1s-.9-1-2-1-2.3-.7-2.6-1.5c-.4-.8-1-1.3-1.4-1s-2.4-.6-4.4-2c-2-1.3-3.6-2.2-3.6-1.8s-.8-.1-1.7-.9c-1-.8-3.4-2.2-5.3-3.2-1.9-.9-4.2-2.1-5-2.5-2-1.2-25.3-12.6-26-12.7-.3,0-1.2-.3-2-.6-.8-.4-2.4-.9-3.5-1.4-1.1-.4-2.4-.8-2.8-.8-.4-.1-1.1-.7-1.6-1.4-.4-.7-1.4-1.5-2.2-1.6-.8-.2-2.7-.9-4.4-1.5-1.6-.7-6.5-2.6-10.9-4.2-4.3-1.6-8.4-3.3-9-3.6-.6-.4-1.6-.8-2.3-.9s-2.6-.9-4.2-1.7c-1.7-.8-3.1-1.1-3.3-.7-.2.5-2,0-4.1-1s-4.1-1.9-4.5-1.9c-.4,0-2-.6-3.7-1.2-1.6-.7-4.3-1.4-6-1.6-1.6-.3-4.6-1.3-6.7-2.3-2-1-3.8-1.4-4-1s-1.9,0-3.8-.8-4.6-1.6-5.9-1.8-3.1-.6-4-1-2.5-.8-3.7-.9-3-.5-4-1c-1-.4-2.8-.9-3.9-1.1-5.8-.8-8.5-1.3-9.4-1.8-.5-.4-3.1-.9-5.7-1.2-2.7-.3-5.5-.9-6.4-1.3-.8-.4-3.3-.9-5.4-1-2.2,0-4.3-.4-4.8-.7s-2.3-.7-4.1-1c-1.8-.2-4.8-.6-6.7-.9-3.7-.6-10.5-1.5-13-1.7-.8,0-2.1-.5-2.7-1.1-.9-.6-1.3-.6-1.3.2s-.6.9-1.7.3c-1-.4-3.1-.8-4.8-.7-1.6,0-3.6-.2-4.2-.8-.9-.6-1.3-.5-1.3.3s-.3,1-1.5,0-1.5-1-1.5,0-.4.9-1.2.3c-.7-.6-3.1-1-5.4-1s-4.6-.3-5.2-.7c-.7-.4-1.2-.2-1.2.4s-.4.9-.8.6c-.5-.3-7.1-.8-14.6-1.1-7.6-.2-14.2-.7-14.7-1.1-.5-.3-.9-.2-.9.3h0ZM635.8,239.1c.6.5,1.2.4,1.2-.1s1.7-.7,3.8-.6c2,.2,6.9.6,10.7.8,3.9.2,7,.5,7,.6,0,.2,10.5,1,13.7,1.1,1,0,2,.4,2.3,1,.4.5,1.1.9,1.6.9s.7-.5.3-1.2c-.5-.7-.3-.8.6-.3.7.4,2.3.9,3.4,1.1,1.2.1,3.7.5,5.6.9s4.5.9,5.8,1c1.3.2,2.9.9,3.7,1.5,1.1.9,1.5.9,1.5.1s.6-.9,1.8-.2c1.6.8,5.1,1.7,11.5,2.6,1.5.3,3.7,1,4.8,1.6s2.3.8,2.6.5c.3-.2,2.7.4,5.4,1.5,2.7,1,5.3,1.8,5.7,1.7,1.1-.3,8.4,2.3,11,3.8,1.4.9,2.2,1.1,2.2.4s.7-.4,1.6.4c.8.9,2.1,1.7,2.7,1.7,4,.5,5.5.8,8.2,1.9,1.7.6,3.1,1,3.1.8,0-.2,1,.4,2,1.2,2.1,1.7,6.1,3.7,11.4,5.5,2.8,1,4.8,1.8,6.5,2.8,1.1.6,3.8,1.9,6,2.9s4.7,2.3,5.5,2.8c.8.6,2.6,1.5,4,2,1.4.6,3.2,1.5,4,2,.8.6,2.5,1.4,3.8,2,1.2.5,2.2,1.4,2.2,2s.8,1,1.9,1,2.4.7,3.1,1.5c.6.8,2.1,1.7,3.3,2.1s2.7,1.3,3.5,2c.7.8,1.8,1.2,2.3.9.5-.4.9-.2.9.4s1.1,1.6,2.3,2.3c5.8,3.2,12.7,8.1,12.7,8.9s.9.9,2,.9,2,.4,2,.9,3,3.1,6.8,5.7c7.7,5.5,10.9,8.2,16.9,14,2.3,2.3,4.4,3.9,4.7,3.7.2-.3,1.2.7,2.1,2.1,1,1.4,2.1,2.3,2.6,2s.9-.1.9.4,2.7,3.6,6,6.8,6.4,6.3,7,6.9c2.7,2.7,10.8,11.7,13,14.5,2.2,2.9,4,5.1,8.2,10,.7.8,3.3,4.1,5.7,7.5,2.4,3.3,4.7,6.2,5.1,6.5.3.3,1.5,2.1,2.6,4,1,1.9,2.2,3.7,2.5,4,1.2,1.1,9.9,15.1,9.9,16s.4,1,.9,1,1.3,1,1.7,2.2c.4,1.3,2,4.2,3.5,6.5,1.6,2.3,2.9,4.8,2.9,5.6s.3,1.7.8,1.9c.9.4,7.3,13.3,9.9,20,1,2.7,2.1,4.8,2.6,4.8s.7.6.7,1.4,1.3,4.4,3,7.9c3.1,6.6,3.7,9.3,2.1,8.3-.5-.4-1.1-.1-1.3.5-.2.5-1.7,1.1-3.3,1.2-1.7.2-3.5.6-4,.9-.6.3-2.8.9-5,1.3s-4.9,1.2-6,1.8-2.7,1.2-3.5,1.3c-2.5.3-12.8,4.3-19.3,7.4-3.3,1.6-6.4,2.7-6.9,2.4-.4-.3-.8,0-.8.5s-.9,1.1-1.9,1.1-2.1.7-2.5,1.5c-.3.8-1.1,1.5-1.8,1.5-2,.1-8.9,3.6-8.3,4.2.3.3-.6.9-2.1,1.2-2.6.7-7,3.4-11.1,7-1.3,1.1-2.3,1.6-2.3,1.2,0-.7-1.5.4-7.6,5.4-.7.5-1.5.6-1.8.3-.3-.4-.6-.1-.6.5s-1.6,2-3.5,3.2c-3.7,2.3-6.3,4.3-12.2,9.7-2,1.8-4,3.3-4.5,3.3s-.7.3-.5.7c.3.5,0,1.4-.9,2.1s-1.4,1-1.4.6-.9,0-2,1.1-2,2.2-2,2.6-2.9,3.9-6.5,7.5c-3.6,3.7-6.5,7-6.5,7.5s-.7.9-1.6.9-1.2.5-.9,1c.7,1.2-2,4.2-2.9,3.3-.3-.4-.6.3-.6,1.5s-.6,2.2-1.2,2.2c-1.3,0-5.8,6.3-5.8,8s-.7,1-1.5,1.4c-.8.3-1.5,1.2-1.5,2.1s-.3,1.5-.7,1.5-1.7,1.8-2.7,4c-1.1,2.2-2.3,4-2.8,4s-.8.7-.8,1.5-.7,1.8-1.5,2.3c-.9.4-1.7,1.9-2,3.2-.2,1.3-.8,2.6-1.3,2.9-.9.6-2.3,3.7-2.8,5.9,0,.8-1,2.2-1.9,3.2s-2.1,3.5-2.7,5.6c-.5,2.2-1.8,5-2.7,6.4-2.6,3.8-11.2,27.8-11.5,32,0,1.4-.5,3.1-.9,3.8-.9,1.3-5.5,23.7-6.1,29.2-1.5,14.3-1.9,21.9-1.9,31.5,0,13,1.3,29.2,2.7,36,0,.5.5,2.3.9,4,.3,1.6.9,4.8,1.2,7,.8,5.8,6.6,27.8,7.6,29.1.5.6.7,1.3.4,1.6s0,1.8,1,3.4c.8,1.6,1.5,3.5,1.5,4.1s.5,1.3,1.1,1.3.9.8.8,1.7c0,1,.3,2.9.8,4.3,2.3,5.5,7.4,15.9,11.1,22.5,7.1,12.7,8.4,15,9.8,16.6.8.8,1.4,2,1.4,2.5s.8,1.9,1.8,3c1,1,2.7,3.4,3.7,5.1,1.1,1.8,2.3,3.3,2.7,3.3s1.2.8,1.6,1.9c.8,2.1,8.2,10.9,16.2,19.3,3,3.2,6,6.2,6.5,6.8,3,3.3,11.6,10.6,11.9,10.2.3-.2.9.6,1.6,1.7.6,1.2,1.7,2.1,2.5,2.1s1.5.4,1.5.9,3,3.1,6.8,5.8c3.7,2.6,7,5.2,7.4,5.8.4.5,1.2,1,1.8,1s1.4.5,1.8,1.1,1.4,1.4,2.2,1.7c.8.4,3.8,2.1,6.5,3.7,2.8,1.7,6.6,3.8,8.5,4.8,1.9.9,3.8,2.1,4.2,2.7.4.5,1.1,1,1.5,1.1,2.9.3,6.2,1.8,6.7,3,.3.8,1.4,1.4,2.4,1.4s2.2.4,2.7.8c.6.5,5.1,2.4,10,4.2,5,1.8,10.6,4,12.5,4.8,3.8,1.7,5,2,9.2,2.7,1.5.2,3.5.8,4.5,1.3,1,.6,3.2,1.3,4.8,1.6,1.7.3,7.3,1.4,12.6,2.5,5.2,1,11.8,2.2,14.5,2.5s7.6.9,10.9,1.3c11.4,1.3,51.8.5,54.4-1.2.6-.3,2.6-.6,4.6-.7,1.9,0,3.5-.4,3.5-.7s1.2-.7,2.8-.8c6.7-.4,9.2-.9,9.2-1.6s.8-.7,1.8-.6c.9,0,2,0,2.5,0,.4,0,.8,0,1,0,0,0,1.6-.5,3.2-1.1,3.1-1.2,7.1-2.2,9.3-2.3.6,0,1.2-.3,1.2-.6,0-.7,9.1-3.6,10.3-3.3.4,0,.7-.3.7-.9s.4-.8.8-.5c.5.3,2,0,3.5-.9,1.4-.7,2.8-1.1,3.1-.7.3.3.6,0,.6-.5,0-1,4.6-2.8,6.3-2.5.4,0,.7-.2.7-.8s.9-1,2-1,2-.5,2-1,.9-1,2-1,2-.5,2-1,.3-.9.8-.9c1.3.3,7.2-2.3,7.2-3.1s1.4-1.1,3-1.5c1.7-.4,3-1,3-1.3s2.1-1.8,4.8-3.2c2.6-1.4,5.3-3,6-3.7s1.8-1.3,2.3-1.3c1.1,0,3.1-1.5,5.7-4.3.9-.9,2.2-1.7,2.9-1.7s1.3-.5,1.3-1,.5-1,1-1,2.1-1.1,3.4-2.5c1.3-1.3,2.6-2.2,2.9-1.8.4.3.7,0,.7-.7s.3-1.1.6-.7c.8.8,3.3-1.6,2.7-2.6-.2-.4.3-.7,1.1-.7s1.6-.4,1.6-.9.9-1.3,2-1.6c1.1-.4,1.8-1.1,1.5-1.6-.4-.5-.2-.9.4-.9,1.1,0,16.2-14.9,20.2-19.9,1.3-1.6,2.7-2.7,3.1-2.5.4.3.8-.4.8-1.6s.4-1.9.8-1.6c.5.3,1.7-.6,2.7-2s2.9-3.7,4.2-5.2,2.3-3.1,2.3-3.5.5-.5,1-.2c.6.3,1-.3,1-1.4s.5-2.1,1-2.1,1-.7,1-1.6.4-1.3.9-1c.5.4,2.2-1.4,3.7-3.8,1.6-2.5,3.2-4.2,3.6-4,.4.3.8-.6.8-2s.6-2.6,1.5-2.6,1.5-.7,1.5-1.5.5-1.5,1-1.5,1-.9,1-2.1.5-1.7,1-1.4c.6.3,1,0,1-.9s.7-2.2,1.6-3c.9-.9,1.7-2.3,1.8-3.2s.7-1.9,1.3-2.2c1.1-.7,5.6-8.1,7.3-12,.5-1.2,1.5-2.2,2.1-2.2s.9-.3.6-.7c-.4-.3,0-1.7.8-3,.9-1.3,1.2-2.3.8-2.3s0-.5,1-1.1c.9-.5,1.7-1.9,1.7-2.9s.5-2.2,1-2.5c.6-.4.8-1,.5-1.5-.3-.4.2-1,1-1.4.8-.3,1.5-1.4,1.5-2.5s.5-2.3,1-2.6c.6-.3,1-1.5,1-2.5s.6-2.5,1.4-3.3,3.8-7.5,6.6-14.8c2.8-7.4,6.2-16.1,7.5-19.4s2.3-6.7,2.3-7.5c0-.8.7-3.2,1.7-5.3s1.5-4.1,1.1-4.4c-.3-.3,0-1.2.5-2,.6-.7.8-1.3.5-1.3s0-1,.5-2.3c1.2-2.1,2.7-7.9,3.3-12.2,0-1.1.5-2.9.9-4,.3-1.1.8-3.2,1.1-4.8.3-1.5,1-5.4,1.6-8.8.6-3.3,1.3-7.3,1.5-9,.3-1.6.7-4.4,1-6.2.6-3,1.2-9.6,1.9-19.3,0-2.2.6-4.6,1-5.2.4-.7.2-1.2-.5-1.2s-.8-.4,0-1.5c.7-.8.8-1.5.3-1.5s-.8-1.5-.4-3.8c.4-2,.7-8.7.7-14.9,0-6.2.3-10.8.7-10.4,1.5,1.5.7,58.6-.8,61.1-.3.5-.8,3.2-1.1,6.2-1,8.8-1.1,9.2-1.8,10.9-.4.9-.6,2-.5,2.5.4,1.5-1.4,11-2.5,13.5-.4.9-.6,2-.5,2.5.4,1.3-.9,7-4.1,17.6-.5,1.8-1.2,4.7-1.5,6.5-.3,1.7-1.4,5.2-2.5,7.8s-2,5.4-2,6.4-2.2,7.4-5,14.3c-2.7,6.9-5,13.1-5,13.7s-.4,1.1-.9,1.1-1.9,2.8-3.1,6.2c-1.3,3.5-2.9,7-3.6,7.8-1.1,1.3-2.4,4.2-3.5,7.5,0,.5-1.1,1.9-2.1,2.9-1,1.1-1.8,2.5-1.8,3.2,0,1.3-3.9,8.5-5.1,9.4-.3.3-.9,1.5-1.3,2.8-.4,1.2-1.2,2-1.7,1.7-.5-.4-.9.3-.9,1.4s-.5,2.3-1.1,2.6c-.5.4-1.5,1.7-2,2.8-2,4.4-3.6,6.7-4.2,6-.4-.3-.7,0-.7,1s-1,2.7-2.3,4.1c-1.2,1.3-2.9,3.7-3.7,5.3-.8,1.5-2.1,3.2-2.7,3.6-.7.4-1.3,1.5-1.3,2.3s-.4,1.3-.9,1c-.5-.4-1.5.7-2.3,2.4-.7,1.6-1.6,3-2,3s-.8.6-.8,1.2-1.4,2.4-3,3.7c-1.7,1.3-3,2.8-3,3.5s-1.3,2.4-3,3.9c-1.6,1.6-3,3.3-3,3.8s-.4.7-1,.4c-.5-.3-1,0-1,.7s-1.5,2.7-3.2,4.4c-1.8,1.8-4.5,4.6-6,6.3-1.6,1.7-2.8,2.9-2.8,2.6s-.6,0-1.4.7-1.2,1.6-1,2-.5.9-1.6,1.3c-1.1.3-2,1.2-2,1.9s-1.8,2.7-4.1,4.6c-2.2,1.8-5.4,4.6-6.9,6.2-1.6,1.5-3.5,2.8-4.4,2.8s-1.8.9-2.1,2.1c-.4,1.1-.9,1.8-1.2,1.5-.8-.8-3.2,1.8-2.5,2.8.3.5-.2.7-1.1.3-1.1-.4-1.7,0-1.7.9s-.4,1.2-1,.9c-.5-.3-1,0-1,.6s-.3,1-.6.6c-.3-.3-1.9,1-3.6,2.9-1.6,1.9-3.4,3.1-3.9,2.8s-.9.2-.9,1.1-.5,1.3-1.1,1c-.6-.4-1.8,0-2.8,1.1-.9,1.1-3.8,3.2-6.4,4.8-2.6,1.7-4.7,3.4-4.7,3.8s-.6.8-1.4.8-1.9.7-2.6,1.5-1.6,1.2-2.1.9-1.2,0-1.5,1c-.5,1.2-7.4,5.3-8.1,4.8-.2,0-1.2.6-2.2,1.5-3.2,2.9-5,4.3-5.6,4.3-1.3,0-4.2,1.5-5.9,2.9-1,.9-1.9,1.4-2,1.2-.2-.6-7.9,3.1-9.4,4.6-.8.7-1.8,1.1-2.3.8-.5-.4-.9-.2-.9.3s-1,1.3-2.2,1.7c-1.3.4-2.5.8-2.8.9-.3.2-1.8.9-3.5,1.6-1.6.7-3.4,1.4-4,1.5-.5.2-3.4,1.4-6.4,2.9-3,1.4-5.6,2.4-5.9,2.1-.2-.2-2.6.7-5.3,2.1-2.7,1.3-4.9,2.1-4.9,1.8s-.6-.2-1.2.4c-.7.6-3,1.3-5,1.7-2.1.4-3.8,1.1-3.8,1.7s-.4.7-.9.3c-.5-.3-1.3,0-1.6.5-.4.6-1.5.8-2.6.5-1.1-.4-1.9-.2-1.9.5s-.8,1-2,.7c-1.1-.3-2.2-.2-2.5.3-.3.4-2.2,1.1-4.2,1.6-2.8.5-4.9,1.1-6.3,1.7-3.1,1.2-8.6,2.4-10.2,2.1-1,0-1.8.2-1.8.6s-.8.9-1.7.9c-3.6,0-9.8,1.2-10.1,2,0,.5-1.7.7-3.3.5-1.7-.2-3.6,0-4.3.3-.6.4-2.4.8-4.1.8s-3.4.3-4,.6c-.5.3-2.5.5-4.2.4-1.8,0-3.3,0-3.3.4s-2.5.6-5.5.6-5.5.2-5.5.5-6.3.5-14,.5-14,.3-14,.6c0,.8-5.3.4-6.8-.5-.7-.4-1.2-.3-1.2.2,0,1-5,.9-6.8-.2-.7-.4-1.2-.2-1.2.4s-.5.8-1.2.4c-.6-.4-3.6-.8-6.7-.9s-9.2-.6-13.6-1-8.9-.9-10-.9c-1.1,0-2.4-.4-3-.7-.5-.3-2.3-.6-4-.7-4.3-.3-5.8-.7-7.2-1.5-.8-.5-1.3-.3-1.3.3s-.7.7-2.2,0c-1.3-.7-3.6-1.4-5.3-1.5-1.6-.2-4.1-.6-5.5-1-1.4-.3-3.4-.7-4.5-.9s-2.1-.4-2.2-.5c-.2-.2-.7-.4-1.3-.5-.5,0-1.3-.4-1.7-.5-.5,0-1.2-.2-1.7,0s-1.6,0-2.5-.5c-1.9-.8-3.9-1.4-6.6-1.8-1.1-.2-2-.4-2-.5,0-.2-.8-.4-1.7-.6s-3.1-1-4.7-1.8c-1.7-.8-3.1-1.1-3.3-.7s-2.1,0-4.3-1c-3.4-1.5-6.7-2.9-8.5-3.5-.3,0-1.3-.5-2.2-.8-1-.4-2.6-1-3.5-1.4-1-.3-2-.7-2.3-.8s-1.3-.5-2.2-.8c-1-.4-2.6-1-3.5-1.4-1-.3-2-.7-2.3-.7-.3,0-1.4-.7-2.5-1.3s-2.4-1.2-3-1.3c-2.8-.6-13.2-5.5-21-9.8-1.7-.9-3.7-1.8-4.5-2-.7-.2-2.6-1.2-4.2-2.3-1.5-1.1-2.8-1.7-2.8-1.3s-.7,0-1.6-.7-2.5-1.8-3.5-2.4c-5.6-3.1-19.4-12-19.7-12.7-.2-.4-1-.8-1.7-.8s-1.8-.6-2.2-1.3c-.4-.6-1.5-1.7-2.4-2.2-4.3-2.7-10.5-6.9-11.5-7.9-2.6-2.5-5.5-4.6-6.2-4.6s-2.1-1.5-3.9-3.3-4.6-4.4-6.3-5.7c-11.9-9.6-38.3-36.2-41.3-41.6-.5-.8-2.6-3.4-4.8-5.7-2.1-2.3-4.1-5-4.5-6-.3-.9-.9-1.7-1.3-1.7s-1.6-1.6-2.7-3.5c-1-1.9-2.1-3.5-2.4-3.5s-1.4-1.6-2.4-3.5c-1.1-1.9-2.2-3.5-2.5-3.5s-1.5-1.7-2.6-3.8c-1.1-2-2.2-3.9-2.5-4.2-1-1-3.1-4.5-3.6-6.3-.4-.9-.9-1.7-1.3-1.7s-1.8-2.2-3.2-5c-1.3-2.7-2.7-5-3-5s-1.2-1.5-2-3.3c-.7-1.7-1.6-3.4-1.9-3.7-1.1-.9-16-31.5-16-32.8s-.4-1.2-.9-1.2-1.2-1.2-1.5-2.6c-.4-1.4-1.6-4.5-2.6-6.8-1.8-3.9-6.9-17-7.4-19.1-.2-.6-.8-2.3-1.4-3.8-.7-1.5-1.5-4-1.8-5.5-.4-1.5-1-3.2-1.5-3.7-.4-.6-3.3-10.5-6.3-22-4.8-18.4-6.8-27.4-8.2-37.7-.2-1.6-.8-5.6-1.3-9-.6-3.5-1.3-9.9-1.7-14.3-.3-4.4-.7-9.6-.9-11.5-.6-5.3-.5-33.4,0-43,.6-10.4,3.4-32.3,5.5-42,.5-2.5,1.6-8.6,2.5-13.5,4.4-24.8,4.3-24.6,3.7-8-.7,22-.7,63,0,78,.8,13.4,1.1,17.9,2.1,27.7.3,3.2.8,8.4,1.1,11.5.3,3.2.8,7.1,1.1,8.8.3,1.6.7,4.3.9,6,.2,1.6.4,3,.5,3,.2,0,1.3,6.9,1.4,9.2,0,1.3.5,2.3.9,2.3s.5.4.2,1c-.7,1.1,6.8,29.9,9,34.7.8,1.7,1.5,3.6,1.5,4.3s.6,2.4,1.4,3.8c.7,1.5,3.7,7.5,6.7,13.4,2.9,6,5.7,10.8,6.1,10.8s.8.6.8,1.4,1.1,2.5,2.5,4c1.3,1.5,2.9,3.5,3.4,4.4,1.1,2,4.9,2.6,6.8,1,.7-.6,1.3-.7,1.3-.4s.7,0,1.6-.8c.8-.9,2-1.4,2.4-1.1.5.3,3-.3,5.4-1.5,2.5-1.1,5-2,5.5-2s1.1-.5,1.1-1,.9-1,2-1,2-.4,2-1,.3-.9.8-.8c1.1.4,9-3,9.7-4.2.3-.5,1.5-1,2.6-1s1.9-.5,1.9-1,.6-1,1.4-1,1.9-.7,2.6-1.5c.7-.9,1.5-1.3,1.7-1.1.3.3,2.7-1.1,5.4-3s5.1-3.4,5.4-3.4,1.1-.5,1.8-1.1c1.1-.9,3.4-2.4,9.2-6.1,1.1-.7,2.2-1.5,2.5-1.8s2.5-2.1,5-4c5.7-4.5,8.1-6.6,18.5-16.8,4.7-4.5,8.5-7.9,8.5-7.5s1-.9,2.3-3,2.6-3.5,3-3.1.7,0,.7-.9.5-1.7,1-1.7,1-.4,1-1c0-1,2-3.7,5.5-7.4,1.2-1.1,2.4-2.9,2.8-3.9s1.1-1.5,1.7-1.2c.5.3,1-.3,1-1.4s.5-2.1,1-2.1,1-.7,1-1.6.4-1.3.9-1,1.1-.2,1.5-1.2c.3-.9,1.5-3.1,2.6-4.7,1.1-1.7,2.3-3.7,2.6-4.5.4-.8,1.3-2.2,2.1-3.2.8-.9,1.6-2.4,1.7-3.3s.7-2,1.3-2.3c.5-.4,1.6-2.4,2.2-4.5.7-2,1.6-3.7,2-3.7s1.3-1.7,2-3.8c.8-2,2.3-5,3.3-6.5,1.1-1.5,2.1-3.3,2.2-4,0-1.2,2.1-6.5,3.7-10.2,2.5-5.7,4.9-13.3,4.9-15.2s.4-2.4.9-2.7c.7-.5,1.8-4.4,2.6-9.6,0-.3.3-1,.7-1.5.3-.6.9-3.5,1.3-6.5s1.2-5.8,1.7-6.1c.6-.4.8-1.4.5-2.2-.3-.9-.2-3.1.4-4.9.5-1.9,1.1-6.3,1.4-9.9.3-3.5.7-7.8.9-9.4.5-3.1.9-14.3.6-16,0-.6,0-4.3,0-8.4,0-4.1-.4-11.5-1-16.5s-1.2-10.8-1.5-13c-.2-2.1-.9-5.6-1.4-7.7-.6-2.2-.8-4.4-.5-4.9s0-1.1-.5-1.5-.8-1.1-.5-1.6c.4-.5.3-1.5-.2-2.2-.4-.6-.8-1.7-.9-2.2-.4-2.2-3.5-14.1-4.1-15.5-.3-.8-.7-2-.8-2.5,0-.6-.6-2.1-1.2-3.5s-1.4-4-1.8-5.8c-.3-1.7-1.1-3.2-1.6-3.2s-.9-.9-.9-1.9-.4-2.2-.9-2.6c-.5-.3-1.2-1.9-1.6-3.5-.4-1.7-1.1-3-1.6-3s-.9-.7-.9-1.5c0-1.9-6.9-16.3-8.1-17.1-.5-.3-.9-1.2-.9-2s-.8-2.7-1.9-4.2c-2.8-4.2-5.4-8.2-7.4-11.6-1.1-1.7-3.7-5.4-5.8-8.2s-3.9-5.4-3.9-5.7-.8-1.5-1.7-2.5c-1-1.1-4.3-4.7-7.3-8.2-9.4-10.7-28.2-29-29.9-29s-1.3-.9-2.1-2-1.8-2-2.2-2-1.7-.8-2.7-1.8c-3.7-3.3-5-4.2-6.1-4.2s-1.3-.7-1.6-1.5c-.4-.8-1-1.5-1.6-1.5s-2.4-1.1-4.2-2.5-3.7-2.5-4.1-2.5-1.7-.8-2.7-1.7c-1.6-1.4-5.8-2.9-5.8-2s.5,1.8,1,3.7c1.2,3.9,3,15.2,3.5,22,.2,2.5.6,7.2.9,10.5,2.1,22.5,2.2,91.6,0,114-.2,2.7-.7,8.9-1.1,13.7-.3,4.7-1,10.1-1.4,12l-.8,3.3-.2-4c0-2.2-.4-8.5-.6-14-.5-14-1.4-31.2-1.9-36.5-1-10.6-3.1-25.6-3.9-26.8-.3-.5-.8-3.1-1.1-5.8-.9-7.8-8.3-34.4-12-42.9-.7-1.7-1.7-4.1-2.3-5.5-2.7-6.7-11-22.9-14.4-28.2-2.1-3.2-3.8-6.1-3.8-6.4,0-1.6-12.8-17.1-21-25.5-10.1-10.2-13.5-12.9-17.2-13.4-3.6-.5-9.9-1.4-13.8-2-16.9-2.7-57.6-2.3-66.7.6-1.8.6-3.7.8-4.2.5-.5-.4-1.2-.2-1.6.4s-1,.8-1.3.6c-.4-.2-3.5.1-6.9.8-3.4.8-6.5,1.1-6.8.8s-.5,0-.5.5-.8,1-1.7.8c-1-.1-2.4.2-3,.8-.7.5-1.3.7-1.3.4s-1.6.1-3.5.9-3.6,1.3-3.7,1.2c-.5-.3-11.3,3.5-12.4,4.3-.6.5-1.9.7-2.8.3-.9-.3-1.6-.1-1.6.5s-.9,1.1-2,1.1-2,.4-2,.9-1.1,1.2-2.5,1.5c-1.4.4-5.1,1.9-8.3,3.3-3.1,1.5-5.9,2.8-6.2,2.8-1.8.5-4.7,2.1-5.8,3.2-.8.7-1.8,1.1-2.3.8-.5-.4-.9-.1-.9.4s-.7,1.1-1.5,1.1-1.5.4-1.5.9-1.2,1.2-2.6,1.5c-1.4.4-3.5,1.6-4.7,2.7s-4.2,3.1-6.7,4.6c-2.5,1.4-5.7,3.7-7.2,5-1.4,1.4-3.1,2.2-3.7,1.9-.6-.4-1.1,0-1.1.8s-.5,1.6-1.1,1.6c-1,0-6.4,4.5-9.8,8.2-.8,1-2.1,1.8-2.8,1.8s-1.3.5-1.3,1.1-.4.8-.8.5c-.5-.3-1.5.5-2.3,1.6-1.6,2.4-11.9,12.9-11.9,12.1s-.7.2-1.5,1.1c-.8.8-1.5,1.8-1.5,2.2s-1.7,2.4-3.7,4.4c-5.3,5.3-9.3,9.9-9.3,10.8s-.9,1.4-2,2.2-2,2-2,2.7-.4,1.3-1,1.3-1,.7-1,1.6-.4,1.2-1,.9c-.5-.3-1,.1-1,.9s-.4,1.6-1,1.6-1,.7-1,1.5-.7,1.5-1.5,1.5-1.5.9-1.5,2.1-.4,1.7-1,1.4c-.5-.3-1,.3-1,1.4s-.4,2.1-.8,2.3c-1.2.5-9.2,11.6-9.2,12.8s-.4,1-1,1-1,.7-1,1.5-.7,1.8-1.5,2.1c-.8.4-1.5,1.5-1.5,2.5s-.7,2.2-1.5,2.5c-.8.4-1.5,1.4-1.5,2.4s-.6,2.5-1.4,3.2c-.7.8-1.7,2.4-2,3.6-.4,1.2-1.1,2.2-1.6,2.2s-1.4,1.8-2,4-1.4,3.8-1.9,3.6c-.4-.3-1.6,2-2.6,5s-2.2,5.4-2.6,5.4-1.1,1-1.4,2.2c-.4,1.3-1.3,3.6-2,5.3-.7,1.6-1.6,3.8-1.9,4.8s-1,1.5-1.6,1.2c-.5-.3-1,.2-1,1.2,0,1.6-2.5,9-4.9,14.8-2.9,6.9-3.4,8.2-3.7,10-.6,3.8-1.5,6.7-3.5,11-1,2.4-7.9,29.4-7.7,30.3.1.4-.1,1.4-.5,2.2-.9,2.4-1.9,7.3-1.9,9.7s-.4,2.3-.8,2.3-.8,1.7-.9,3.7c-.1,3.7-.4,6.9-1.6,14.8-.9,6.6-1.7,16.6-1.9,23.5,0,3.6-.5,6.8-1.1,7.2-.6.5-.4,1.2.5,1.8.8.5,1,1,.5,1s-.9,2.3-.8,5.7c.5,10.5.4,19.5-.1,20.1-.3.3-.6-2.1-.7-5.4-.2-12-.4-14.4-1.2-14.4s-.5-.5-.2-1c.3-.6.8-7.9,1.1-16.3.6-22,1-27.3,2.9-38.2.2-1.1.6-4.3.9-7.2.4-2.9,1.1-7.4,1.7-10,.5-2.6,1.2-5.9,1.5-7.3s.7-3.6.9-5c.6-3.6,2.5-11.3,3.2-13,.3-.8.5-1.8.5-2.2-.1-.4.5-2.5,1.3-4.5.8-2.1,1.7-5.1,1.9-6.8.5-2.7,2.4-8.1,6.2-17.5,1.2-3,2.1-6.4,2.3-9.3.1-.5.6-.5,1.1-.2.6.3,1,0,1-.7,0-2.3,7.1-20.1,9.1-23,1.1-1.5,1.8-2.8,1.4-2.8s.2-1.1,1.1-2.5,1.2-2.5.8-2.5-.1-.5.9-1.1c.9-.5,1.7-1.6,1.7-2.4s1.8-4.5,4-8.4,4-7.5,4-8.1.5-.8,1-.5c.6.3,1,0,1-.8s.6-2,1.4-2.6c.8-.7,1.8-2.6,2.1-4.2.4-1.6,1-2.7,1.5-2.4.4.3,1.1-.6,1.4-2,.4-1.4,1.1-2.5,1.6-2.5s1-.5,1-1.1,1.1-2.2,2.5-3.5,2.5-3,2.5-3.9.5-1.3,1-1c.6.3,1-.3,1-1.4s.3-2.1.8-2.1,1.6-1.6,2.6-3.5c1.1-1.9,2.3-3.5,2.8-3.5s.8-.7.8-1.6.5-1.2,1-.9c.6.3,1,.1,1-.5s1.4-2.4,3-4c1.7-1.6,3-3.1,3-3.4s1.4-1.8,3-3.6c1.7-1.8,3-3.9,3-4.7s.4-1.2.9-.8c.5.3,2-.9,3.2-2.7,2.7-3.8,15.1-16.3,22.6-22.7,2.9-2.5,4.9-4.9,4.6-5.4-.3-.6-.1-.7.5-.3.7.4,1.2.3,1.2-.2s1.1-1.4,2.5-2,2.5-1.9,2.5-2.8.3-1.5.6-1.1c.4.3,2.3-.9,4.3-2.8s4.1-3.5,4.6-3.5,1.6-.9,2.3-2,1.9-2,2.7-2,1.8-.6,2.2-1.4c1.1-1.9,14-10.5,14.7-9.8s.6-.2.6-1.1.8-1.7,2.5-1.7,2.4-.5,2.3-1.3c-.2-.6.3-1.1,1-.9.7.1,1.5-.5,1.8-1.3.4-.8,1.2-1.5,1.9-1.5s2.4-.9,3.7-2c1.4-1,2.8-1.6,3.2-1.3.3.3.6.1.6-.5s.9-1.4,2.1-1.7c2.1-.7,8.2-4.4,10.9-6.7.8-.7,1.5-1.1,1.5-.8,0,.7,12.5-5.5,12.5-6.2s.7-.8,1.5-.8,3.4-.9,5.5-2c2.2-1.1,4-1.7,4-1.3s.4.3.8-.3c1-1.4,8.4-4.9,10-4.6.6.2,1.2-.2,1.2-.9s.8-.9,2-.6c1.1.3,2,.2,2-.3s1.4-1.3,5-2.4c.3-.1,1.1-.5,1.8-1,.7-.4,1.9-.5,2.7-.2s1.5.1,1.5-.4.9-1,2-1,2-.5,2-1.1.7-.8,1.6-.5c.9.4,2.2.2,2.9-.4,1.1-1,2.6-1.4,8-2.4.6-.1,1.6-.5,2.3-1,.7-.4,1.9-.5,2.7-.2.7.2,1.5.1,1.7-.4.3-1,15.2-5,19.9-5.3,1.6-.1,2.9-.5,2.9-1s.3-.6.8-.5c.4.1,3.2-.2,6.2-.7,6.6-1,6.1-1,13-1.9,3-.4,6.5-.8,7.8-.9,1.2-.1,2.2-.4,2.2-.7s1.8-.5,4-.4c2.2,0,4-.2,4-.5s2.6-.6,5.8-.5c3.1,0,6.7-.2,7.9-.5,3.4-.9,27.6-.7,29.1.2h0Z"/>
  <path class="cls-1" d="M133.8,1354.5c.2,6.4-.1,8.4-1.7,11-2.8,4.5-10.2,9.7-19.3,13.5-4.3,1.8-7.8,3.6-7.8,4s1.2,1.1,2.7,1.4c1.8.5,1.4,1.2-1.2,2.1-2.2.8-12.3,3.6-22.5,6.3-19.3,5-30,8.6-30,10s1.2,1.1,2.8,1.4c1.5.4,4.9,1.9,7.6,3.2,6,3.1,10.9,2.9,21-1,7.9-3.1,8.8-2.6,8.4,3.8l-.3,3.9-14,4.7c-15.2,5-26.5,9.8-26.5,11.1s1.5.9,3.3.9,5.9.7,9.2,1.5c8.4,2,12.1,1.8,20.3-.9l7.2-2.5v3.9c0,3-.5,4.2-2.1,5-1.1.7-10.5,4-20.7,7.5-22.2,7.5-28.5,10.1-27.7,11.5.3.5,1.2,1,2,1s4.3,1.6,7.9,3.5c9.4,5,13.5,4.8,22.4-.9,9.6-6.3,18.3-10,19.3-8.4.5.7,2.7,7.1,5,14.2,4.6,14.4,4.9,13.3-4.1,16.7-9.4,3.5-10.3,3.5-13.3-.4-1.5-2-2.7-3.8-2.7-4.1s2.6-1.4,5.8-2.6c8.6-3.2,10.2-4.5,10.2-8.3s-3.4-7.7-6.9-7.7-3.1-.5-4.1-1c-2.4-1.3-7,.4-7,2.5s-7.8,10.2-16.6,16.2c-4.6,3.1-8.4,6.1-8.4,6.6s1.7.7,4.3.3c2.3-.4,6.3-1,9-1.3l4.7-.6v8.8l-10.2,4.4c-5.7,2.4-17,7.7-25.1,11.8-13.5,6.7-16.8,9.3-11.7,9.3s4.9,1.6,8.6,3.5c9.1,4.7,11.9,4.6,18.4-.9,4.5-3.8,17.5-11.6,19.4-11.6s.8,5.4,0,10.2c-.6,3.6-1.3,4.2-12.8,11.2-15.3,9.3-19.4,11.3-25.8,13-2.9.7-5.4,1.8-5.6,2.4s1.8,2.6,4.4,4.4c2.6,1.8,6.3,4.6,8.1,6.2,2.8,2.4,3.9,2.8,7.1,2.3,2-.4,3.9-1.2,4.1-1.9.9-2.9,12-11.7,18.4-14.6.4-.2.7,2.6.7,6.2,0,8.1-1.3,9.2-8.5,7-2.7-.8-5.2-1.1-5.7-.6-1.7,1.7,17.5,26.5,20.2,26,.8-.2,2.4-2.1,3.4-4.2,1.6-3.2,2.1-7.6,2.8-24,1.1-22.8-.5-19.2,12.2-28.6,3.3-2.5,7-6,8.2-7.8,2.3-3.3,4.7-12,3.8-13.4-.3-.4-5,2.2-10.5,5.9-5.4,3.6-10.1,6.4-10.3,6.2s0-3.3.3-6.8l.6-6.4,11.8-5c6.5-2.7,12-4.8,12.1-4.6.2.2,3.3,7,6.9,15.2l6.5,14.7-7.8,11.8c-7.5,11.4-16.4,20.9-23,24.9-8.2,4.8,4.1,5.1,13.5.3,5-2.5,18.5-11.9,26.2-18.2.8-.7,1.7,0,2.9,2.4,5.5,10.7,24.6,30.6,37.7,39.1,12.3,8.1,17.7,10.1,26.9,10.2,4.2,0,8-.3,8.3-.7.4-.4-.8-4.5-2.8-9-4.8-11.3-5.6-14.8-6.4-26.1-.3-5.3-.9-9.7-1.3-9.7s-1.2,3-1.9,6.6c-1.3,6.5-6,17.2-8.4,19.2-2.2,1.8-29-22.7-38.4-35-8.1-10.7-8-9.3-2.3-18.5,5.7-9.3,6.7-12.7,5.1-17.5-1.5-4.5-8.3-10-11.8-9.6-2.3.3-2.8,1.1-4.3,6.6-1,3.5-2.2,6.8-2.7,7.3-1.1,1.1-8.8-17.5-7.9-19,1.7-2.7,14.9-3.9,27.6-2.6,9,.9,10.5,0,9.4-6.1-1.1-5.9-3.3-7.4-10.9-7.4h-6.5l.7-4.5c.5-4.1.3-4.7-2.9-7.9-3.7-3.7-8-5.2-17.5-6.2-4.4-.5-6.3-.3-6.3.4s3.7,5.1,8.2,9.9l8.2,8.7-7.8,1.9c-9,2.2-8.8,2.3-10.7-5.8-.6-2.7-2-7.4-3.1-10.2-1.7-4.8-2.3-5.4-6.1-6.4l-4.2-1.2,5.5-1.4c4.1-1,9.5-1.2,21.1-.8,15.9.7,23.2-.2,24.2-2.8.2-.7.2-3-.2-5.2-.5-3.5-1.2-4.3-5.1-6.3-2.4-1.2-6-2.2-8-2.2-1.9,0-5.4-.5-7.8-.9-3.4-.7-5.4-.4-10,1.4-3.1,1.3-7.7,2.6-10.1,3l-4.4.7.8-4.8c.4-2.7.8-4.9.8-5,0,0,6.6-2.1,14.5-4.5,8.6-2.6,14.2-4.8,14.2-5.6,0-3.1-3.3-9.1-5.6-10.1-2-1-3.7-.7-9.7,1.7-3.9,1.6-8.7,3.2-10.5,3.6l-3.3.7.3-5.4.3-5.3,5-1.2c2.8-.6,7.9-1.2,11.5-1.2,10.2-.2,20.3-3.8,18.1-6.5-.5-.6-1.1-2.5-1.3-4.1-.3-2.7-.7-3.1-4.5-3.6s-7.2-1.9-4.6-1.9,21.8-13.2,24.5-15.7c4.7-4.2-.1-10-12.5-15.2-11.2-4.6-11.3-4.6-10.9,4.6h0Z"/>
  <path class="cls-1" d="M524.6,1348.8c-3.2,1-6.3,2.3-6.8,2.8s1.5,1.8,5.2,3.1c7.7,2.8,13.1,8,16.9,16.2,3.5,7.4,6.4,18,5.3,19-.4.4-5.4,1.7-11.1,2.9-18.9,4-33.1,8.7-33.1,11s3.4,2.8,7.6,5.2,8.5,4.9,9.7,5.6c4.2,2.5,16.8-.2,46.7-10,20.8-6.8,23.6-7,33.7-2.4l5.5,2.6-4.9,5.6c-2.6,3.2-6.4,6.4-8.3,7.2l-3.5,1.6,4.5.7c5.7,1,11.7.3,20-2.3,4.1-1.3,9.9-2.1,15.5-2.3,13.5-.3,15.3-1.9,11.6-10.1-6.6-14.4-18.2-18.5-53.1-18.6h-16.6c0,0,.9-7.1.9-7.1.6-4.9.6-8.2-.3-11-2.3-7.9-14.5-16.8-27.7-20.2-7.3-1.9-10.4-1.8-17.7.5h0Z"/>
  <path class="cls-1" d="M956,1348.9c-1.9,1.1-4.8,2.5-6.3,3.2-1.6.6-3,2.2-3.4,3.6-.5,2,0,3.2,3.6,6.2l4.2,3.8.2,28.3c0,15.6-.2,30.9-.6,34l-.8,5.8-8.2,2.4c-4.5,1.4-14.3,3.6-21.7,5-18.1,3.4-33,8.5-33,11.2s2.4,2.9,5.3,4.8c2.8,1.9,6.5,5.1,8.1,7.1,5.1,6.5,12.4,9.3,17.5,6.6.9-.6,6.4-1.9,12.2-3.1,5.7-1.1,11.2-2.3,12.3-2.6,1.6-.5,1.7-.2,1.1,2.8-1.3,5.8-9.5,26-14.7,35.8-14.3,27.2-30.3,45.1-52.1,58.2l-8,4.8h7.1c16.6,0,27.3-4.7,47.5-21,4.1-3.3,7.7-6,8-6,.9,0,5.6,11.7,7.5,18.8,1.1,4,2.8,8.2,3.8,9.3.9,1,4.9,3.5,8.7,5.4,7.9,4,9.7,3.7,12.4-2.1,1.5-3,1.5-4.1.5-8-.7-2.6-1.5-7.2-1.9-10.4-.5-5.4-.9-6.1-4.7-8.8-2.2-1.6-7.5-4.6-11.6-6.7-4.1-2-7.7-3.9-7.9-4.1s.9-2.3,2.6-4.7c4.6-6.3,8.8-15.2,12.9-27.2l3.8-10.8,1.8,3.9c15.7,34.3,25.5,52.7,38,71l6.8,10.1,7.4.7c10.4.9,17.8,3,27.1,7.6,9.1,4.4,13.2,5.6,22.5,6.5l6.5.6-3.1-2.8c-1.6-1.5-8.2-7.4-14.5-13-15.7-13.9-46.7-45.6-57-58.3-17.4-21.3-27.6-38.2-30-49.8-1.3-6.3-1-6.6,5.5-7.6,2.2-.4,9.5-3.4,16.1-6.7,11.8-5.8,20.7-8.5,24.2-7.2,1,.4,2.9,1.5,4.2,2.5,3.3,2.5,7.6,2.3,9.5-.4,1.2-1.6,1.6-4.7,1.6-11.1s0-9-3.1-11.9c-3-3-3.1-3.1-10.7-2.5-4.2.3-16.2,2.6-26.7,5.1-10.4,2.4-19.2,4.3-19.4,4-.2-.2,1.3-9.5,3.3-20.6,7.1-39.7,8-52.4,4.2-56.6-1-1.2-3.5-2.2-6.2-2.5s-5.4-1.3-6.8-2.6l-2.2-2.1-3.4,2.1h0Z"/>
  <path class="cls-1" d="M1445,1347.9c0,.5-1.5,1.9-3.3,2.9l-3.4,2,2.6,5.3c2.5,5.1,2.6,5.7,2.6,25.2s-.3,21.2-.7,22.6c-.7,2.5-1.5,2.8-12.5,4.9-6.5,1.2-12.2,2.6-12.6,3-1.9,1.7,11.1,8.7,17.8,9.7,5.3.7,5.1,0,3,15.2-.8,5.8-2.1,10.8-2.8,11.3-.6.4-2.8.8-4.7.8-4.9,0-8,1-8,2.5,0,2.5,4.1,6.4,10.5,9.9,6.1,3.5,6.6,3.6,11.2,2.6,2.6-.6,8.1-2.4,12.2-4.1,4.1-1.6,8-2.8,8.8-2.5,3.1,1.2-.3,14.9-7.3,28.9-3.8,7.4-10,16.7-11.3,16.7s-1.8-1.9-3.1-4.3c-5.8-10.2-16.6-25.2-23.7-32.7-9.4-10.1-13.5-12.4-17.2-10.1-1.2.8-.9,1.6,1.7,4.5,8,9.2,12.3,16.9,26.5,48.3l5.6,12.3-10.1,10.5c-5.5,5.8-13.7,13.3-18.1,16.6l-8,6-1.3-3c-2.5-6-10-7.3-27.1-4.8-9.4,1.5-9.4,2.2-.6-9.3,4.2-5.4,7.1-8.2,10.6-9.9,3.6-1.8,4.7-2.9,4.7-4.7,0-4.3-2.2-7.2-8.1-10.5-3.2-1.9-5.9-3.7-5.9-4.1s1.8-.9,4-1.3c4.8-.8,7.2-2.9,6.8-5.9,0-1.1.9-4.6,2.4-7.6,1.4-3,3.3-7.6,4.2-10.2,1-2.7,3.2-6,5.3-7.8l3.6-3.2-2.3-4.8c-2.4-5.2-9.2-13-11.3-13s-3.7,2.2-3.7,4.6-1,2.5-8.7,4.2c-12.8,3-18.7,4-28.8,5.2-17.5,2-38.5,8.8-38.5,12.4s3.4,4.2,9.5,6.2c2.7.9,5.1,1.7,5.2,1.8s.7,6.2,1.4,13.6c1.2,14.8,3.1,20.9,7.8,25.5l2.9,2.6.7-4.7c1-6.9,1.3-7.2,6.2-8,2.4-.3,8.5-1.9,13.4-3.4l8.9-2.8,2.1,3.5c1.9,3.1,2,3.9,1,9.1-.6,3.2-2.7,9.3-4.6,13.7s-3.5,8.8-3.5,9.7-2.4,2.4-8.9,4.5l-8.9,2.9-.7-5c-.7-5.8-3.2-11.1-7.1-15s-11.8-7.6-15.2-7.6h-2.4l2.6,3c2.6,3.2,5.6,11.5,5.6,15.8s2.8,8.9,5.7,11.1c1.3,1.1,2,2.2,1.6,2.4-.5.3-9.7,4.4-20.6,9.1s-20.8,9.1-22,9.7l-2.1,1.2,2.5,1.9c4.2,3.5,11.9,6.9,16.8,7.5,4.5.5,5.4.2,15.2-5.7,15.7-9.3,36.8-19.5,44.5-21.4,7.7-2,27.4-3.4,27.4-2s-2.1,2-4.7,3.4l-4.8,2.5,5.7.3c12,.6,30.7-8.6,58-28.7,2.3-1.7,1.5-2.6,14.3,16.4,5.2,7.7,12.3,16.8,15.8,20.3l6.3,6.2,8.4,1c4.7.5,11.6,1,15.3,1,6.7,0,20.3,3.6,23.5,6.2.7.6,1.5.8,1.9.5,1-1.1-14-15.7-20.7-20.2-3.6-2.3-10.8-6.4-16-9-16.1-8-24.6-15-32.8-26.8l-4-5.7,13.5-29.3c7.4-16,15.2-32.7,17.4-37.1,5.9-11.8,5.1-16.7-2.9-17.9-2.1-.4-5.6-2-7.7-3.7-4.9-3.9-8.6-3.9-15.8,0l-5.7,3.1v-3.9c0-4.2,1.7-16.7,2.6-19.6.7-2.3,7.6-5.4,21.4-9.7,13.7-4.2,22-8.5,22-11.5s-2-8.5-3.9-9.4c-.9-.5-7.2-.7-14.1-.5l-12.5.3-5.1,5.7c-2.8,3.1-5.5,5.5-6.1,5.3-1.5-.6,1.3-13.2,4.2-18.9,4.4-8.8,4.9-12.8,2.6-21.1-1.1-4-2.7-7.9-3.4-8.6-.8-.8-4-1.8-7.3-2.3-3.2-.4-7.1-1.3-8.6-1.9-1.9-.7-2.8-.7-2.8,0h0ZM1376.5,1474.5c-2.5,6.2-4.5,12.6-4.5,14.7,0,5.4-1.6,7.3-8.7,10-9.5,3.6-23.2,7.6-26.1,7.6h-2.4l.7-9.8c.4-5.3.8-9.8.9-9.8.4-.4,35.4-13.3,37.1-13.7,3.5-.8,3.7-.7,3,1h0Z"/>
  <path class="cls-1" d="M1351,1349.5c-2.9.5-6,3-6,4.8s1.1,1.7,2.4,2.3c3.1,1.4,3.6,4.4,3.6,23.6v16.2l-14.9,3.7c-8.3,2-15.7,3.7-16.5,3.7-3.5,0-1.1,1.9,7.5,6,6.9,3.3,10.9,4.5,15.8,4.9l6.6.6.3,8.8.3,8.8-5.3,2.3c-2.9,1.3-12.9,5.1-22.3,8.4-9.3,3.3-18.6,6.7-20.5,7.6l-3.5,1.4,3,1.2c1.7.6,5.3,2,8,3.1,8.2,3.1,13.5,2.6,23.9-2.5,19.1-9.3,36.3-13.6,54.1-13.6s16.5-1.4,16.5-6-5.1-9.7-9.9-11c-3.9-1-11.6-.2-22.9,2.6-3.5.9-6.5,1.4-6.7,1.2-.3-.2,0-4.4.8-9.3,1.2-8.6,1.3-8.8,4.4-10.2,1.8-.7,6.5-2,10.3-2.8,8.2-1.7,11.5-3.2,15.3-7s3.5-6.2.2-7.7c-1.3-.6-2.7-1.9-3-3-1-2.8-6-2.3-15,1.7-4.4,1.9-8.6,3.5-9.3,3.5-1.8,0-.9-5.7,2.9-17.6,4.9-15.3,3.8-18.8-7.4-23.9-5-2.4-7.4-2.7-12.7-1.8h0Z"/>
  <path class="cls-1" d="M59,1354.7c0,.6.4,1.1.9,1.1s4.3,3.2,8.4,7c6,5.6,8.3,8.7,11.1,14.5,3.6,7.5,5.6,9.5,9.8,9.5s4.8-1.9,4.8-7.6-3.3-12-12.3-18c-7.3-4.8-22.7-9.3-22.7-6.5Z"/>
  <path class="cls-1" d="M478,1404.3c0,.2.9,2.3,2.1,4.5,3.3,6.3,2.1,20.8-2.5,29.8-3.7,7.2-2.7,17.9,2,23.5,4.2,4.9,8.9,8,11.2,7.3,3.6-1.2,6.6-5.6,7.8-11.5.7-3.2,2.4-8.8,3.9-12.4,3.8-9.5,5.1-18.7,3.1-22.4-4.8-9.1-17.4-19.3-23.8-19.3s-3.8.2-3.8.5h0Z"/>
  <path class="cls-1" d="M530.5,1448.8c3.9,7.7,6.7,19.6,6,25-.8,5.5-5.9,16.6-8.1,17.4-.9.3-18.3,2.5-38.8,4.7-20.4,2.2-37.8,4.3-38.6,4.6-1,.3-.4,1,2.1,2.3,4.5,2.4,10.1,8.5,12.4,13.7,1.7,4,1.9,4.1,5.9,3.6,2.3-.3,10.2-2.1,17.6-4s16.4-3.7,20-4l6.5-.6-5.7,6.2c-6,6.4-7.2,8.9-6.6,13.7.3,2.7.6,2.9,3.8,2.5,12.3-1.2,18.4-.4,29.3,3.9,5.9,2.4,10.7,4.6,10.7,5,0,1.5-18.4,21.2-24.2,26-3.5,2.8-11.7,7.8-18.3,11.1l-12,6,8.5-.6c13.2-1.1,26.5-4.1,34.4-7.8,7.7-3.7,19.1-12.3,27.4-20.7,2.9-2.9,5.8-5,6.5-4.7,3.2,1.2,17.1,13.3,23.7,20.7,6.3,7,17.3,16.4,20.7,17.7.6.3,2.5-.5,4.1-1.7,2.7-2,3.9-2.2,12.6-1.8,5.3.2,9.6,0,9.6-.3s-1.6-2.6-3.5-5.1c-6.8-9-16.5-16.4-38.9-29.8-12.1-7.4-22.2-13.4-22.3-13.5-.2,0,1.1-2.7,2.8-5.9s4.6-9.9,6.4-14.9l3.3-9.2h16.9c18.7.2,28.9,1.9,36.8,6,3.6,2,5,2.2,7.1,1.5,1.4-.6,3.6-1,5-1,3.5,0,5.1-3.9,3.4-8-2.8-6.8-21.3-20-27.9-20s-3.5.7-4.5,1.5c-2.2,1.6-19.5,2-27.1.7l-4-.8,2.8-2.7c6.7-6.9-.2-18.5-17.7-29.6-6.1-3.8-8.4-3.9-9.2-.6-.4,1.8.2,3.8,2.5,7.4,3.1,4.8,3.2,5.1,2.5,13.2-1.1,13.6-.4,12.9-13.8,12.9h-11.4l2.9-6c1.7-3.3,4.2-6.9,5.6-8,2.3-1.8,2.5-2.4,1.9-6.4-1.5-9.9-15-21.3-28.4-24.1l-3.3-.7,2.6,5.2h0ZM561.8,1508.4c2.8.4,5.2,1.1,5.2,1.6,0,1.4-8.4,14.1-10.3,15.6-1.4,1.2-3,.9-10.9-1.7-5.1-1.6-11-3.3-13.1-3.7l-3.9-.7,5.3-5.3c4.6-4.6,5.8-5.4,9.8-5.7,8.6-.7,12.6-.7,17.9,0h0Z"/>
  <path class="cls-1" d="M139.5,1665.7c-8.2,3.8-12.1,11.3-13.8,26.2-2.1,18.9,1.5,36.4,8.9,42.9,8.9,7.8,23.8,5.6,29.5-4.4l2.4-4.1.3,5.7c.3,5,.6,5.8,2.2,5.8s2-.8,2-18.5v-18.5h-12.5c-11.8,0-12.5,0-12.5,2s.8,2,9.8,2.2l9.7.3-.2,7.2c-.2,8.3-3.1,16.2-7.1,19.3-6.5,5.2-15.8,4.5-21-1.4-5.2-6-6.7-12.2-6.7-28.6s1.4-22.4,6.3-28.2c9.1-10.8,24.6-6,27,8.4.6,3.4,1.2,4.4,3,4.6,1.8.3,2.2,0,2.2-2.5,0-7.8-5.2-16.2-11.7-18.9-4.6-2-13.1-1.7-17.8.5h0Z"/>
  <path class="cls-1" d="M1515.5,1665.5c-10.2,5.3-14.5,16.2-14.5,36.3s1.4,19.9,4.2,25.5c4.4,8.7,9.3,11.8,18.8,11.9,8.1,0,13.1-2.2,17.1-7.7,4.4-6.1,6-12.8,6.6-26.7,1.1-27.8-6.4-41.1-23.1-41-3.6,0-7.4.7-9.1,1.7h0ZM1531.7,1669.5c7.6,3.6,11.3,14.1,11.3,32.3s-5.7,33.4-18.5,33.4-18.5-10.3-18.5-33.4,1.7-21.4,5.3-26.8c4.3-6.6,13.2-9,20.4-5.5h0Z"/>
  <path class="cls-1" d="M0,1701.3c0,35.7,0,36.5,2,36.5s2-.8,2.2-31.8l.3-31.7,15.7,31.7c15.5,31.4,15.7,31.8,18.7,31.8h3.1v-73h-5l-.2,31.8-.3,31.7-15.4-31.7c-14.9-30.7-15.5-31.8-18.3-31.8H0v36.5Z"/>
  <path class="cls-1" d="M254,1701.3v36.5h18.5c17.8,0,18.5,0,18.5-2s-.8-2-15.7-2.2l-15.8-.3v-31l14.3-.3c13.3-.2,14.2-.4,14.2-2.2s-.9-2-14.2-2.2l-14.3-.3-.3-13.8-.3-13.7h31.1v-5h-36v36.5h0Z"/>
  <path class="cls-1" d="M372,1701.3v36.5h18c17.3,0,18,0,18-2s-.7-2-15.5-2h-15.5v-32h14c13.3,0,14,0,14-2s-.7-2-14-2h-14v-28h30v-5h-35v36.5Z"/>
  <path class="cls-1" d="M589.6,1700.1c-6,19.3-11.1,35.8-11.4,36.5-.3,1,.3,1.3,2.3,1,2.6-.3,3-1,6-10.8l3.1-10.5,13.6-.3,13.6-.3.6,2.8c.4,1.6,1.9,6.5,3.3,11,2.3,7.5,2.8,8.3,5,8.3s2.4-.4,2.1-1.8c-.3-.9-5.1-17.3-10.8-36.5l-10.4-34.7h-6.1l-10.9,35.3h0ZM609.4,1691.2c3.1,10.4,5.6,19.3,5.6,19.7s-5.4.9-12.1.9-12-.3-11.6-1.3c.2-.6,1.7-5.3,3.1-10.2,6.8-22.6,8.8-28.7,9.1-28.3.2.2,2.9,8.8,5.9,19.2h0Z"/>
  <path class="cls-1" d="M707,1701.2v36.6h5l.2-31.6.3-31.7,15.2,31.4c14.7,30.4,15.3,31.4,18.2,31.7l3.1.3v-36.5c0-35.9,0-36.6-2-36.6s-2,.7-2,32.2-.3,31.8-.7,31.4c-.5-.4-7.6-14.8-15.9-31.9-14.8-30.7-15.1-31.2-18.2-31.5l-3.2-.3v36.5h0Z"/>
  <path class="cls-1" d="M834,1701.2v36.6h5l.2-31.7.3-31.6,15.3,31.4,15.2,31.4,3.5.3,3.5.3v-73.1h-5v32.2c0,17.7-.3,31.8-.7,31.5-.3-.4-7.4-14.7-15.8-31.9-14.9-30.8-15.1-31.3-18.3-31.6l-3.2-.3v36.5h0Z"/>
  <path class="cls-1" d="M1051,1667.3c0,1.7,3.2,2.5,9.5,2.5h9.5v68h5v-68h9.5c6.3,0,9.5-.8,9.5-2.5v-2.5h-43v2.5Z"/>
  <path class="cls-1" d="M1184.7,1665.5c-.3.5-5.3,16.3-11.1,35.3-5.9,19-10.9,35.1-11.1,35.8-.4.9.3,1.2,2.2,1,2.5-.3,2.9-1.1,6-11.1l3.4-10.7h26.6l3.3,11c3,9.9,3.6,11,5.7,11s2.3-.5,2.3-1-4.8-17-10.7-36.5l-10.6-35.5h-2.8c-1.5,0-3,.3-3.2.7h0ZM1194,1692.6c2.9,10,5.1,18.4,4.8,18.7s-5.7.4-12,.3l-11.4-.3,4.8-16c2.6-8.8,5.3-17.8,5.9-20,.8-2.8,1.3-3.5,1.9-2.5.4.8,3.1,9.7,6,19.8h0Z"/>
  <path class="cls-1" d="M1292,1701.3v36.5h5v-73h-5v36.5Z"/>
  <path class="cls-1" d="M1383,1701.3v36.5h5v-26.3l4.1-5.5c3.4-4.5,4.3-5.2,5.4-4.1.7.8,5.8,9.2,11.4,18.6,9.5,16.1,10.4,17.3,13.1,17.3h2.9l-12.5-21.1-12.5-21,11-14.8c6.1-8.1,11.1-15.1,11.1-15.5s-1.1-.6-2.4-.6c-2,0-5.1,3.5-17,19.7l-14.6,19.6v-39.3h-5v36.5h0Z"/>
</svg>