<?xml version="1.0" encoding="UTF-8"?>
<svg id="Layer_1" data-name="Layer 1" xmlns="http://www.w3.org/2000/svg" viewBox="0 0 299.97 299.97">
  <defs>
    <style>
      .cls-1 {
        fill: #fff;
        stroke-width: 0px;
      }
    </style>
  </defs>
  <path class="cls-1" d="M225.52,0H74.44C33.33,0,0,33.33,0,74.44v151.08c0,41.11,33.33,74.44,74.44,74.44h151.08c41.11,0,74.44-33.33,74.44-74.44V74.44C299.97,33.33,266.64,0,225.52,0ZM274.74,226.1c0,26.86-21.78,48.64-48.64,48.64H73.86c-26.86,0-48.64-21.78-48.64-48.64V73.86c0-26.86,21.78-48.64,48.64-48.64h152.24c26.86,0,48.64,21.78,48.64,48.64v152.24Z"/>
  <path class="cls-1" d="M149.98,74.14c-41.89,0-75.84,33.95-75.84,75.84s33.95,75.84,75.84,75.84,75.84-33.95,75.84-75.84-33.95-75.84-75.84-75.84ZM149.98,201.97c-28.71,0-51.99-23.28-51.99-51.99s23.28-51.99,51.99-51.99,51.99,23.28,51.99,51.99-23.28,51.99-51.99,51.99Z"/>
  <circle class="cls-1" cx="231.82" cy="67.53" r="17.66"/>
</svg>