<?xml version="1.0" encoding="UTF-8"?>
<svg id="Layer_1" data-name="Layer 1" xmlns="http://www.w3.org/2000/svg" viewBox="0 0 2338.37 1930.42">
  <defs>
    <style>
      .cls-1 {
        fill: #231f20;
      }

      .cls-1, .cls-2 {
        stroke-width: 0px;
      }

      .cls-2 {
        fill: #fff;
      }
    </style>
  </defs>
  <circle class="cls-2" cx="1170.79" cy="619.42" r="607.4"/>
  <path class="cls-1" d="M1137.79.52c-3.3.2-13.4,1-22.5,1.9-61.1,5.7-120.2,20-176.4,42.5-27.3,11-65.3,30.3-92.1,46.7-74.4,45.6-140,108.9-189.5,182.7-21,31.3-46.1,78.9-59.8,113.5-31.1,78.5-45.6,158.6-43.9,242,.7,29.4,1.3,37.8,4.8,66,25.5,204.5,155.6,385.9,341.4,476.1,70,34,136.7,52.5,218,60.6,25.3,2.5,80.8,2.5,106,0,109.3-10.9,203-44,291-102.7,49.2-32.9,96.1-75.6,134-122,67.1-82.3,111.7-179.7,130-283.9,14-80.1,12.4-157.5-5-238.6-28.4-132.3-103-255.1-208-342.5C1454.09,49.92,1312.29-1.08,1168.29.02c-13.5.1-27.2.3-30.5.5ZM1210.79,39.32c130.2,12.5,254,66.4,351.4,152.9,61.5,54.7,119.5,143.1,151.5,231.2,27.6,75.9,41.6,164.3,35.7,225.9-7.2,75.4-24.1,140.5-53.1,204.5-33.3,73.3-84.8,145.4-136,190-105.5,92-232.8,144.5-371.4,153-38.6,2.4-96.4-4.2-148.6-17.1-24.3-6-64.1-19.1-86.5-28.3-72-29.9-141.4-75.4-191.6-125.5-67.6-67.7-122.9-164.4-149.8-262.1-15.9-57.6-23.9-120.7-21.2-165.9,8.5-140.8,66.3-276.8,161.6-380.1,37.9-41.1,102.9-87.9,163-117.5,74.7-36.7,149.6-56.5,237.5-62.9,9.7-.7,41.3.4,57.5,1.9h0Z"/>
  <path class="cls-1" d="M1117.79,46.42c-8.2.9-15.1,2-15.3,2.5s-2,.9-4,1c-4,0-26.3,3.6-24.7,3.9.6,0-5.2,1.2-12.9,2.6-7.6,1.3-14.4,2.8-15,3.2-.6.5-5.1,1.7-10.1,2.7-4.9,1-9.2,2.1-9.5,2.5s-4.1,1.5-8.5,2.5c-4.4.9-9.3,2.3-11,3-1.6.8-5.7,2.1-9,3.1-3.3.9-6.2,2-6.5,2.4s-3.9,1.7-8,2.9c-4.1,1.3-7.9,2.6-8.5,3.1-.5.4-3.5,1.5-6.5,2.5s-5.7,2.1-6,2.5-3,1.5-6,2.5c-3,.9-6.4,2.3-7.5,2.9-1.1.7-4.4,2.1-7.2,3.1-2.9,1.1-5.3,2.3-5.3,2.7s-.5.8-1.2.8c-1.3,0-30,14-30.8,15-.3.3-2.5,1.4-5,2.4s-5.2,2.3-6,3-4.9,2.9-9,5-8.2,4.4-9,5.1-3.1,2.1-5,3c-1.9,1-3.7,2.1-4,2.5s-2.4,1.7-4.7,2.9c-2.4,1.2-4.3,2.5-4.3,3s-1.8,1.6-4,2.6-4,2.1-4,2.4-2,1.7-4.5,3.1-4.5,2.8-4.5,3.2-.8.9-1.8,1.2c-1,.4-2.7,1.4-3.8,2.4-2.9,2.5-9.5,7.5-12.7,9.5s-3.7,2.6-4.8,3.5c-1,.9-3.1,2.7-4.6,3.9-14.8,11.8-18.3,14.7-21.4,17.8s-4.1,3.5-4.7,3.5-1.2.6-1.2,1.4-1.3,2.3-2.9,3.2c-1.7,1-2.8,2.1-2.5,2.6.3.4.1.8-.5.8s-5.1,3.9-10,8.7c-4.9,4.9-9.8,9.5-10.8,10.4-4.8,4.4-27.9,31.6-36,42.5-1.2,1.6-4.3,5.7-7,9.2-2.6,3.5-5.2,7.1-5.8,8.1-.5.9-2.7,4-4.7,6.8-2.1,2.8-3.8,5.6-3.8,6.2s-.4,1.1-.9,1.1-1.9,1.9-3.1,4.2c-1.2,2.4-3,5.2-4,6.3s-2.1,3-2.5,4.2c-.3,1.3-1.1,2.3-1.6,2.3s-1.3,1-1.8,2.2c-.5,1.3-2.1,4-3.6,6.2-3.7,5.4-8.5,14.6-8.5,16.2s-.4,1.4-.8,1.4-1.9,2.4-3.3,5.2c-1.3,2.9-2.7,5.5-3,5.8-.9.7-14.6,29-15.4,31.7-.3,1.3-1,2.3-1.5,2.3s-1.1,1.2-1.5,2.7c-.3,1.6-1.9,5.5-3.4,8.8-1.6,3.3-3.4,7.8-4.1,10s-1.6,4.2-2,4.5c-.3.3-1.4,3.1-2.4,6.2-1,3.2-2.1,5.8-2.6,5.8s-1.8,3.7-3,8.2c-1.3,4.6-2.7,8.5-3.1,8.8s-1.5,3.7-2.5,7.5c-.9,3.9-2,7.2-2.4,7.5s-1.7,4.8-3,10c-1.2,5.2-2.6,9.9-3,10.5-.4.5-1.6,4.8-2.5,9.5-1,4.7-2.2,9-2.6,9.5-.4.6-1.7,6.6-3,13.5-1.2,6.9-2.5,12.9-2.9,13.5-.5.5-1.6,7.1-2.5,14.5-1,7.4-2.1,14.4-2.6,15.5-3.3,7.4-5.9,69.9-4,97,1.5,21.8,3,36.5,4,39,.5,1.1,1.6,8,2.6,15.4.9,7.4,2.1,14.2,2.6,15,.5.9,1.8,6.7,2.8,12.8,1.1,6.2,2.4,12.1,3,13,.5,1,1.7,5.6,2.6,10.3s2,8.9,2.5,9.5c.4.5,1.8,5.3,3,10.5,1.3,5.2,2.6,9.7,3,10s1.3,3,2,6,1.8,6.4,2.3,7.5c.6,1.1,1,2.4.9,2.9-.2.4.2,1.3.7,2,.5.6,1.7,3.7,2.6,6.8.9,3.2,2,6,2.5,6.3.4.3,1.6,3.1,2.6,6.3,1,3.1,2.1,5.9,2.4,6.2.4.3,1.3,2.3,2,4.5s2.3,6,3.5,8.5,3,6.9,3.9,9.7c1,2.9,2.2,5.3,2.7,5.3s.9.5.9,1.1c0,1.3,14,30.2,15,30.9.4.3,1.7,2.7,2.9,5.5,1.2,2.7,2.6,5.2,3.2,5.5.5.4,1.1,1.7,1.4,3,.2,1.2,1.1,3,2,4,.8.9,1.5,2,1.5,2.5s1.8,3.6,4,7.1,4,6.8,4,7.4.7,1.3,1.5,1.6,1.7,1.6,2.1,2.7c.3,1.2,1.4,3.1,2.4,4.2s2.8,3.9,4,6.2c1.2,2.4,2.6,4.3,3,4.3s1.1.9,1.5,1.9c.3,1.1,2.1,3.9,4,6.3,1.9,2.3,3.5,4.7,3.5,5.1s2,3.4,4.5,6.5c2.5,3.2,9.3,11.8,15.2,19.2s12.5,15.7,14.7,18.4c5.8,7,31.6,32.9,34.8,35,1.5,1,2.6,2.2,2.3,2.6-.2.4.7,1.2,2,1.8,1.4.7,2.5,1.7,2.5,2.4s.9,1.8,1.9,2.3c1.1.6,5,3.7,8.8,7s8.6,7.3,10.7,9c2.1,1.6,4.9,4,6.2,5.2,1.4,1.3,2.8,2.3,3.2,2.3s2.3,1.4,4.2,3,3.8,3,4.2,3,1.3.7,2.2,1.5c2.3,2.3,10.1,8.1,12.7,9.5,1.3.7,2.6,1.6,2.9,2,.6.7,17.7,12,25.3,16.6,2.6,1.6,6.5,4,8.5,5.3,5.3,3.4,16.5,9.1,18,9.1s1.2.4,1.2.9,2,1.7,4.5,2.8c2.5,1,4.5,2.1,4.5,2.4s2.6,1.7,5.8,3c3.1,1.3,6.3,2.9,7,3.6s3.1,1.8,5.2,2.4c2.2.7,4,1.6,4,2s2.9,1.8,6.5,3.1c3.6,1.2,6.5,2.6,6.5,3s2.4,1.4,5.3,2.4c2.8.9,6.1,2.3,7.2,3,1.1.6,4.6,2,7.8,3,3.1,1,5.7,2.1,5.7,2.5s2.9,1.5,6.4,2.5c3.6,1,6.2,2.2,6,2.6-.3.4,0,.8.8.8,1.8,0,15.2,4.2,15.8,5s3.4,1.4,7,2.4c3.6.9,7.9,2.3,9.5,3.1,1.7.7,5.7,1.8,9,2.5s6.5,1.6,7,2c.6.5,5.7,1.8,11.5,3s11.4,2.6,12.5,3.1c1.9.9,7.3,2,34.5,6.9,5.8,1.1,13.9,2.3,18,2.6,4.1.4,7.7,1,8,1.4,2.8,4,119,3.8,119-.2s1.7-.8,3.8-.8c5,0,30.2-3.8,32.7-4.9,1.1-.5,6.7-1.7,12.5-2.6,5.8-1,10.7-2,11-2.4.3-.3,5.7-1.6,12-2.9s11.9-2.7,12.5-3.1c.5-.5,4.4-1.6,8.5-2.6s7.7-2.1,8-2.4c.3-.4,3-1.3,6-2s7.3-2.2,9.5-3.1c2.2-1,7-2.6,10.7-3.6s6.5-2.1,6.3-2.5c-.3-.3,2.5-1.4,6-2.4,3.6-.9,6.5-2,6.5-2.4s2.6-1.5,5.8-2.5c3.1-1,6.6-2.3,7.7-3s4.3-2.1,7-3.1c2.8-1,5.2-2.1,5.5-2.5.3-.3,3.3-1.7,6.8-2.9,3.4-1.3,6.2-2.7,6.2-3s2.3-1.5,5-2.5c2.8-1,5-2.1,5-2.5s2.3-1.5,5-2.5c2.8-1,5.6-2.4,6.3-3s3.1-2,5.5-3c2.3-1.1,4.2-2.2,4.2-2.6s1.7-1.2,3.8-1.9c2-.8,4.4-1.9,5.2-2.6s3.1-2,5-2.9,5.1-2.6,7-3.8c7.4-4.5,14.5-9.2,15-9.8.3-.4,2-1.5,3.8-2.4,3-1.5,16.8-11,19.9-13.6.7-.6,2.8-2,4.8-3.1,1.9-1.2,3.5-2.5,3.5-2.9s.8-1.1,1.8-1.4c1-.4,2.7-1.4,3.8-2.4,1-1,3.5-2.9,5.4-4.2,1.9-1.4,4.3-3.2,5.2-4,1-.8,3-2.5,4.5-3.7,8.6-6.9,9.3-7.6,24.1-21.1,22.9-20.9,41.6-41.1,56.2-60.6,1.9-2.6,4-5.2,4.5-5.9,5-6,11.5-15.2,23.9-33.9,15.1-22.6,14.7-21.9,28.4-47.8,1.9-3.6,4.3-8.3,5.3-10.5,1.1-2.2,2.4-4.7,2.9-5.5.6-.8,1.4-2.5,1.9-3.6.5-1.2,2.5-5.5,4.4-9.5,1.9-4.1,4.7-10.1,6.2-13.4s3.5-7.8,4.6-10.1c1-2.2,1.9-4.6,1.9-5.3s1.1-3.5,2.5-6.3c1.4-2.7,2.5-5.4,2.5-5.9s1.1-3.2,2.4-6.1,3.2-8,4.1-11.3c1-3.3,2.1-6.5,2.6-7,.4-.6,1.5-4.2,2.5-8,.9-3.9,2-7.2,2.4-7.5s1.8-5,3-10.5c1.3-5.5,2.6-10.5,3-11,.4-.6,1.5-4.8,2.5-9.5.9-4.7,2.1-9.3,2.6-10.2.5-1,1.8-7.3,3-14,1.1-6.8,2.4-13,2.9-14,.5-.9,1.6-8.1,2.6-16,.9-7.8,2-15.2,2.5-16.3,3.9-9.3,3.9-108.6,0-118-.4-1.1-1.5-8.5-2.4-16.3-1-7.9-2.1-15.1-2.6-16-.4-1-1.8-7.5-3-14.7-1.3-7.1-2.6-13.6-3.1-14.5-.4-.8-1.5-5.1-2.5-9.5-.9-4.4-2-8.5-2.4-9-.4-.6-1.7-5.5-3-11-1.2-5.5-2.6-10.2-3-10.5s-1.5-3.6-2.4-7.5c-1-3.8-2.1-7.4-2.6-8-.4-.5-1.6-3.9-2.5-7.5-1-3.6-2.4-7.6-3-9-.7-1.4-1.7-3.6-2.2-5-.6-1.4-1.9-4.5-3.1-7-1.1-2.5-2.5-6.3-3.2-8.5s-1.9-5.1-2.6-6.5c-2.2-4.1-8-17.2-9.5-21.3-.7-2-1.6-3.7-1.9-3.7s-1.2-1.7-1.8-3.9c-.7-2.1-1.9-4.4-2.7-5.1s-1.5-1.6-1.5-2.1c0-1.1-4.1-9.9-5.2-11.4-.4-.6-2.4-4.2-4.4-8-10.7-20.5-9.7-18.8-24-40.5-2.7-4.1-5.2-8.2-5.7-9-.4-.8-2.1-3.3-3.8-5.5-1.6-2.2-4.2-5.8-5.7-8-6-8.9-19.1-25.7-29.1-37.4-5.8-6.8-12.2-14.2-14.1-16.5-1.9-2.2-3.9-4.3-4.3-4.4-.4-.2-5.1-4.6-10.4-9.8s-10-9.4-10.5-9.4-.6-.5-.3-1c.3-.6.2-1-.4-1s-5.1-3.9-10.3-8.6c-5.1-4.8-10.4-9.4-11.8-10.3-1.3-.9-3.4-2.5-4.6-3.6-3.7-3.4-17.8-14.2-24.4-18.7-1.4-1-4.3-3.1-6.5-4.7-2.2-1.7-5.7-4-7.7-5.1-2.1-1.1-3.8-2.4-3.8-2.9s-1.2-1.3-2.7-2c-1.6-.7-6.4-3.6-10.8-6.5-12.4-8.2-18.1-11.6-19.2-11.6s-1.6-.7-2.3-1.5-3-2-5.1-2.7c-2.2-.6-3.9-1.4-3.9-1.8s-2.4-1.7-5.2-3.1c-2.9-1.3-5.5-2.7-5.8-3-.5-.6-25.1-12.7-34-16.6-2.5-1.2-7-3.2-10-4.6-3-1.3-7.3-3-9.5-3.7s-4.2-1.6-4.5-2-3-1.5-6-2.5c-3-.9-7.3-2.5-9.5-3.5-2.2-1.1-6.1-2.4-8.7-3.1-2.7-.6-4.8-1.5-4.8-1.9s-3.3-1.6-7.2-2.5c-4-1-7.5-2.1-7.8-2.5s-5-1.8-10.5-3.1-10.2-2.6-10.5-3-4.1-1.4-8.5-2.4c-4.4-.9-8.9-2-10-2.5-2.5-1.2-22.7-5-26.1-5s-2.3-.4-2-.8c.3-.5-5.7-1.6-13.2-2.6s-14.6-2.2-15.7-2.6c-8.5-3.6-92.7-5.2-121-2.4h-.1ZM1197.79,51.82c19.4,1.3,34.6,3,37,3.9,1.1.5,7.9,1.6,15,2.5,7.2,1,13.4,2.1,14,2.7.5.5,2,.9,3.3.9,3.2,0,22.2,3.8,24.7,5,1.1.5,4.7,1.4,8,2,3.3.7,7.4,1.8,9,2.5,1.7.7,7,2.3,12,3.5,4.9,1.2,9.4,2.5,10,2.9.5.5,3.5,1.4,6.5,2.1s6.4,1.8,7.5,2.4c1.1.7,4.3,1.8,7,2.5,2.8.7,6.8,2,9,3.1,2.2,1,5.8,2.4,8,3,2.2.7,5.6,2.1,7.5,3.1,1.9,1.1,3.9,1.9,4.4,1.9s3.7,1.3,7,2.9c3.4,1.6,8.4,3.9,11.1,5.1,11.4,5.2,32.1,15.4,33.5,16.6.8.6,3.4,1.7,5.7,2.3,2.3.7,4.5,1.6,4.8,2.1s2.5,1.9,4.8,3c9.9,4.8,27.3,15.5,37.2,22.9,2.2,1.7,5.6,4,7.5,5.1s5.3,3.4,7.5,5.1c2.2,1.6,5.1,3.7,6.5,4.7,6.9,4.7,22.2,16.8,38.8,30.7,25.6,21.4,59.5,59,78.4,87,1.5,2.2,4.1,5.8,5.7,8,1.7,2.2,3.4,4.7,3.8,5.5.7,1.4,5.3,8.5,12.9,19.9,1.6,2.4,3.4,5.2,4,6.2.6,1.1,1.7,2.7,2.5,3.6.8,1,2.3,3.4,3.2,5.3,1,1.9,3.7,6.9,6.1,10.9,2.4,4.1,4.2,8.1,3.9,8.8s0,1.3.7,1.3.9.4.6.9,0,1.2,1,1.5c.8.3,1.3,1,1,1.5s0,1.1.9,1.5c.8.3,1.2,1.2.9,2.1-.3.8,0,1.5.6,1.5s.8.4.5,1c-.3.5-.2,1,.4,1s.8.6.5,1.4c-.3.7,0,1.6.9,1.9s2,2.6,2.7,5.1,1.6,4.6,1.9,4.6,1.3,1.7,2,3.7c1.5,4.1,7.3,17.2,9.5,21.3.7,1.4,1.9,4.3,2.6,6.5s2.6,6.8,4.1,10.2c1.6,3.4,2.9,6.7,2.9,7.3s.6,2.1,1.4,3.3c.7,1.2,2.1,5.1,3.1,8.7.9,3.6,2.1,6.9,2.5,7.5.5.5,1.6,3.9,2.5,7.5s2.2,7.8,3,9.5c.7,1.6,2.1,6.6,3,11,1,4.4,2.1,8.4,2.5,9,.4.5,1.5,4.6,2.4,9,1,4.4,2.1,8.7,2.5,9.5.5.9,1.8,7.4,3.1,14.5,1.2,7.2,2.6,13.7,3,14.7.5.9,1.6,8.1,2.6,16,.9,7.8,2,15.2,2.4,16.3,1.4,3.3,3,23.6,3.7,45.5.6,20.6-1.7,61.1-3.7,64.9-.5.9-1.6,8.1-2.5,15.9-.9,7.9-2,15.1-2.5,16-.5,1-1.8,7.2-2.9,14-1.2,6.7-2.5,13-3,14-.5.9-1.7,5.5-2.6,10.2-1,4.7-2.1,8.9-2.5,9.5-.4.5-1.5,4.6-2.5,9-.9,4.4-2.3,9.3-3,11-.8,1.6-2.1,5.9-3,9.5s-2,6.9-2.5,7.5c-.4.5-1.7,4.4-3,8.5-1.2,4.1-2.5,7.9-3,8.5-.4.5-1.3,2.8-2,5-.7,2.1-2.4,6-3.6,8.6-1.3,2.6-2.4,5.3-2.4,6s-.9,3.1-1.9,5.3c-5.3,11.2-8.9,19.5-10.2,22.8-.7,2.1-1.6,3.8-1.9,3.8s-1.3,1.9-2,4.2c-.7,2.4-2,4.8-2.8,5.5-.8.6-1.1,1.6-.7,2.2.3.6,0,1.1-.5,1.1s-.8.4-.5,1c.3.5,0,1-.5,1s-.9.7-.6,1.5c.3.9,0,1.8-.9,2.1-.8.4-1.2,1-.9,1.5s-.2,1.2-1,1.5c-.9.3-1.3,1-1,1.5s0,.9-.3.9-.9.9-1,2c0,1.6-2.1,5.5-6.8,13.1-.5.9-2.2,3.8-3.8,6.5-1.5,2.7-3.5,6.1-4.5,7.5-.9,1.4-3,4.6-4.6,7-1.7,2.4-5.9,8.8-9.5,14.2-12.7,19-15.7,23.3-20.1,28.9-2.5,3.2-6.1,7.8-8,10.3-10.9,14.5-32.3,38.8-43.1,49-11,10.4-45.6,39.1-53.5,44.5-1.3.8-6.8,4.8-12.4,8.8-5.5,4-12.6,9.1-15.8,11.2-3.1,2.2-7.9,5.5-10.7,7.4-2.7,2-6.3,4.1-8,4.7-1.6.7-3.8,1.9-4.7,2.7-1.9,1.6-6.1,4-13.5,7.7-2.9,1.5-5.5,3-5.8,3.5-.2.4-2,1.1-3.9,1.4-1.9.4-3.9,1.3-4.5,2s-3.3,2.1-5.9,3.1-5.4,2.3-6.2,3c-.8.6-3.1,1.8-5,2.5s-4.2,1.9-5,2.5c-.8.7-3.7,2.1-6.5,3.1-2.7,1-6.3,2.6-8,3.5-1.6.9-4.1,2-5.5,2.4s-3.2,1.3-4,2-3.8,2-6.6,2.9-6.8,2.5-9,3.6c-2.1,1.1-4.5,2-5.4,2s-3.2.9-5.2,1.9c-2,1.1-6.4,2.7-9.9,3.6s-6.8,2-7.4,2.5c-.5.4-3.9,1.6-7.5,2.5s-7.8,2.3-9.5,3c-1.6.7-5.5,1.8-8.5,2.5s-6,1.6-6.5,2.1c-.6.4-6.2,1.8-12.5,3.1s-11.7,2.6-12,3-5.1,1.5-10.5,2.4c-5.5.9-10.7,2-11.7,2.4-1.9,1.1-29.2,5-34.2,5s-3.7.4-4,.9c-1.1,1.7-30.5,3.6-55.6,3.6s-51.5-1.7-54.9-3.5c-.9-.5-6.5-1.4-12.6-2-6-.6-14.1-1.8-18-2.5-3.8-.8-12.2-2.3-18.5-3.5s-11.7-2.5-12-2.9-5.4-1.7-11.5-3c-6-1.2-11.4-2.6-12-3.1-.5-.4-3.7-1.3-7-2s-7.3-1.8-9-2.5c-1.6-.7-5.7-2.1-9-3s-6.4-2-7-2.4c-.5-.5-3.9-1.6-7.5-2.5-3.6-1-7.4-2.3-8.5-3s-4-1.8-6.5-2.5-5.4-1.8-6.5-2.5-4.5-2.1-7.5-3.1-6.2-2.3-7-3-3.3-1.8-5.5-2.5-4.7-1.8-5.5-2.5c-.8-.6-3.7-2-6.5-3-2.7-1-5.7-2.3-6.5-3s-3-1.7-4.9-2.4c-1.9-.6-4.2-1.7-5-2.5-.9-.7-3.7-2.1-6.3-3.1s-5.3-2.4-5.9-3.1-2.6-1.6-4.5-2c-1.9-.3-3.7-1-3.9-1.4-.3-.5-2.9-2-5.8-3.4-4.8-2.4-7.3-3.8-19.7-11.1-9-5.2-12.1-7.2-14.3-9.1-2.4-2.1-12-8.8-17-11.8-1.8-1.1-5.8-4-8.9-6.5s-7.8-6.2-10.5-8.1c-32.6-23.6-61.8-52-88.6-86-5.8-7.4-11.8-14.9-13.2-16.6-1.4-1.8-3.1-4.3-3.8-5.6-.6-1.3-2.9-4.6-5-7.3-4.1-5.4-13.3-19-15.7-23.4-.8-1.5-2.6-4.3-4-6.1-3-4.2-4-5.7-12.2-19.9-3.3-5.6-7.8-14.9-7.7-15.8,0-.3-.6-1-1.5-1.5s-1.4-1.3-1.1-1.9c.4-.5.2-.9-.4-.9s-.8-.6-.5-1.4c.3-.7-.2-1.6-1.1-2-.9-.3-1.3-1-1-1.6.3-.5.1-1-.5-1s-.8-.5-.5-1c.3-.6.1-1-.5-1s-.8-.5-.5-1c.3-.6.2-1-.4-1s-.8-.6-.5-1.4c.3-.7-.2-2-1-2.9-.9-.9-1.6-2-1.6-2.5,0-1.3-4.1-10.6-4.9-11.2-.4-.3-1.6-3-2.8-6-2.8-7.3-7-17.5-9.4-22.7-1-2.4-1.9-4.6-1.9-5s-.7-2.2-1.6-3.8c-.9-1.7-2.5-5.9-3.5-9.5-1.1-3.6-2.6-7.6-3.3-9s-1.9-5-2.6-8-1.6-6-2-6.5c-.5-.6-1.8-4.8-2.9-9.5-1.2-4.7-2.6-9.4-3.1-10.5-.6-1.1-1.7-5.4-2.5-9.5-.9-4.1-2.2-9.3-3-11.5s-2.2-8.5-3.1-14-2-10.5-2.4-11c-.5-.6-1.6-7.1-2.5-14.5-1-7.4-2.1-14.4-2.6-15.5-1.7-4.3-5-45.5-5-64,.1-19.1,3.2-59.8,5-64,.5-1.1,1.6-8.1,2.6-15.5.9-7.4,2-14,2.5-14.5.4-.6,1.7-6.6,2.9-13.5,1.3-6.9,2.6-12.9,3-13.5.4-.5,1.6-4.8,2.6-9.5,1-4.6,2.2-9.1,2.6-10,.5-.8,1.8-5.3,3-10,1.1-4.7,2.4-9,2.9-9.5.4-.6,1.3-3.5,2-6.5s1.8-6.4,2.4-7.5c.7-1.1,2.1-4.9,3-8.5,1-3.5,2.7-8,3.7-9.9,1-2,1.9-3.9,1.9-4.3s1.1-3.1,2.4-6,2.7-6.4,3.1-7.8,2-5.2,3.6-8.5c1.5-3.3,3.1-7.2,3.4-8.8.4-1.5,1.1-2.7,1.5-2.7s1.8-2.8,3.1-6.3c1.2-3.4,2.7-6.5,3.1-6.8.5-.3,1-1.6,1.1-2.7.1-1.2.5-2.2,1-2.2s.5-.5.2-1c-.3-.6-.1-1,.5-1s.8-.5.5-1c-.3-.6.1-1.3.9-1.6.9-.3,1.3-1,1-1.5s0-.9.6-.9,1-.7.6-1.5c-.3-.8-.1-1.5.5-1.5s.7-.5.4-1c-.3-.6-.1-1,.5-1s.9-.4.5-.9c-.3-.5-.1-1.2.4-1.6.5-.3,2.1-2.9,3.5-5.8,1.5-2.8,3.9-7.5,5.5-10.2,1.7-2.8,3.7-6.4,4.5-8.1s2.2-3.6,3-4.4c.9-.7,1.6-1.7,1.6-2.2s1.3-2.7,2.9-4.7c1.5-2,3.4-4.8,4.2-6.3s3.3-5.4,5.7-8.8c2.3-3.4,4.2-6.5,4.2-6.7,0-.3,1.7-2.8,3.7-5.6,2.1-2.8,4.3-5.9,4.8-6.9,3.2-5.5,29.4-38.4,39.3-49.3,25.6-28.1,61.7-58.8,94.9-80.8,5.6-3.8,10.5-7.2,10.8-7.8.4-.5,2.3-1.8,4.3-2.9,2-1.2,5.7-3.4,8.2-5,2.5-1.7,6.5-4,9-5.3,4.5-2.3,7.5-4,14.1-8.4,1.9-1.2,4.4-2.3,5.5-2.3s3-.7,4.4-1.4c3.8-2.2,29.7-15,36.5-18.1,3.3-1.5,7.6-3.5,9.5-4.5s5.3-2.3,7.5-3,4.9-1.9,6-2.5c1.1-.7,3.8-1.8,6-2.5s4.5-1.6,5-2c.6-.5,4.4-1.8,8.5-3,4.1-1.1,8.3-2.6,9.4-3.2,1-.5,4.2-1.7,7-2.5s6.5-2,8.1-2.8c1.7-.7,6.6-2.1,11-3,4.4-1,8.5-2.1,9-2.5.6-.4,4.6-1.5,9-2.4,4.4-1,8.7-2.1,9.6-2.6,2-1,14.3-3.6,21.9-4.6,3-.4,6-1,6.5-1.5,1.1-.8,20.7-3.9,25.2-3.9s3.3-.4,3.9-.9c.8-.9,25.3-3.5,40.4-4.4,12.7-.8,37.5-.6,50.5.3h0Z"/>
  <path class="cls-1" d="M1174.29,87.52c0,.4-6.2.8-13.8.8s-15.1.2-16.9.6-3.6.2-4.2-.4c-.7-.7-1.1-.8-1.1,0s-.6,1.1-1.2,1.1c-3.8,0-20.9,1.5-24.8,2-2.5.4-6.3.7-8.5.7s-4.3.4-4.6.9c-.5.7-7.8,1.8-12.6,1.9-1.3,0-2.3.3-2.3.7s-1.8.7-4,.7-4,0-4,.5-.6.6-1.2.7c-1.6,0-5.7.9-8.3,1.5-7.8,2-11.8,2.7-12.3,2.2-.3-.2-1,0-1.6.4-.6.6-2.3,1.2-3.6,1.4-1.4.2-3.2.7-4,1-1.6.7-9.3,2.6-12.5,3.1-1.1.2-2.2.5-2.5.6-.3.2-.9.4-1.5.5-.5,0-1.8.5-2.7.8-2.5,1-4.7,1.6-5.3,1.7-.3,0-2.1.7-4.1,1.5s-4,1.2-4.5.9-.9,0-.9.6-.4.9-.9.5c-.5-.3-1.2,0-1.5.4-.4.5-2.4,1.2-4.6,1.6s-4,1.1-4,1.5-.9.7-2,.5-2,0-2,.7-.7.8-1.5.4c-.8-.3-1.5,0-1.5.4s-.9,1-2,1-2,.5-2,1.1-.8,1-1.7.9c-2.6-.3-6.3,1.1-6.3,2.2s-.7.8-1.5.4c-.8-.3-1.5,0-1.5.4s-.9,1-2,1-2,.4-2,.9-1,1.1-2.2,1.4c-4.9,1.2-12.3,4.3-13.1,5.5-.5.7-1.2,1-1.7.7s-1.1-.1-1.5.5c-.3.5-1.5,1-2.6,1s-1.9.4-1.9.9-1.2,1.2-2.7,1.6c-4.2,1-15.3,6.6-15.3,7.7s-.4.7-.9.4-2.5.5-4.5,1.9-4.8,2.8-6.2,3.1c-1.4.4-2.8,1.3-3.1,2-.3.8-1.3,1.4-2.3,1.4s-2.2.5-2.5,1c-.4.6-1.1.8-1.6.5-.5-.4-.9.1-.9,1s-.4,1.4-.8,1.1c-.5-.3-3.3,1-6.3,2.9-2.9,1.9-5.7,3.5-6.2,3.5s-3.2,1.8-6.2,4-5.9,4-6.5,4-1,.4-1,.9-1.4,1.4-3,2c-1.7.5-3.3,1.7-3.6,2.6-.3.8-1.2,1.5-2,1.5s-1.4.4-1.4,1-.7,1-1.5,1-1.5.4-1.5,1-.7,1-1.5,1-1.9.8-2.4,1.7c-.6,1-1.1,1.5-1.1,1.1s-.9,0-2.1,1c-1.1.9-3.3,2.7-4.7,3.9-1.5,1.3-3.2,2.3-3.9,2.3s-1.8.8-2.5,1.8c-.7.9-2.9,2.9-4.8,4.3-1.9,1.5-4.5,3.7-5.7,4.8-1.3,1.2-2.3,1.9-2.3,1.5s-.7-.1-1.5.6-1.2,1.7-.8,2.3c.3.5.2.7-.3.4-.6-.3-3.3,1.5-6.1,4.1s-6.2,5.5-7.5,6.5c-5.3,4-19.5,17.3-26.5,24.8-1.8,1.9-3.7,3.8-4.2,4.4-3,3-11.3,12.1-13.7,15-1.5,1.9-3.2,3.2-3.6,2.9s-.8.1-.8.8-.9,2.1-2,3.1c-1.2,1-1.8,2.3-1.4,3,.4.6.4.9-.1.5-.9-.8-3.5,1.5-3.5,3.1s-.4,1.1-.8,1.1-1.5,1.1-2.2,2.5c-.7,1.3-1.7,2.2-2.2,1.9-.4-.3-.8.1-.8.9s-1.1,2.4-2.5,3.7c-1.3,1.2-2.2,2.7-1.9,3.1.3.5.1.9-.5.9s-1.8,1.3-2.7,2.9c-1,1.7-2.1,2.8-2.6,2.5-.4-.3-.8.2-.8,1s-.9,2.6-2,3.8c-4.4,5-5,5.9-5,7.4s-.4,1.2-1,.9c-.5-.3-1-.2-1,.4s-1.8,3.6-4,6.8-4.6,6.6-5.3,7.7c-.6,1-1.8,2.4-2.5,3.2-.7.7-1.3,1.7-1.3,2.1s-2.7,5.1-6,10.4c-3.2,5.3-5.9,10.2-5.9,10.8s-.4,1-.9.7c-.5-.4-1.2.8-1.6,2.5s-1.3,3.3-2.1,3.6-1.2.9-.9,1.3-.6,2.3-1.9,4.3c-2.2,3.3-3.6,6.2-3.6,7.9s-.9,1.7-1.9,2.7-2.2,3.3-2.6,5-1,2.9-1.5,2.6c-.4-.3-1.1.7-1.4,2.3-.4,1.5-2.5,6.3-4.7,10.7-2.1,4.4-4.1,9.1-4.4,10.3-.2,1.3-2.3,6.1-4.5,10.9-5.6,11.6-6.3,13.3-6.6,16.8-.1,1.6-1.5,5.7-3,9-2.7,6.2-4.2,10.3-5,14.3-.3,1.3-1.4,4.7-2.4,7.5-1.1,2.9-2,6.1-2,7.2s-.4,2.5-1,3.1-1.2,2.5-1.4,4.4c-.3,1.9-.5,3.5-.6,3.5s-.3.7-.5,1.5c-1.1,4.3-2.4,9.8-2.9,12-.3,1.4-.9,4-1.5,5.7-.5,1.8-.7,3.3-.4,3.3s0,.6-.6,1.4c-.7.8-1.1,2-1,2.8.2.7-.1,3.1-.5,5.3-1.1,5.3-1.5,7.3-2.1,11.5-.3,1.9-.9,5.7-1.5,8.5-.5,2.7-1.2,7.7-1.6,11-.8,7.1-.9,7.7-1.7,13.5-.4,2.5-1,8.1-1.3,12.5s-.8,10-1,12.5c-1.3,16-.6,66.6,1.1,77.5.6,3.4,1.4,11.7,1.9,19,.2,2.7.8,8,1.5,11.8.6,3.7,1.3,7.9,1.5,9.5.2,1.5.6,4.3,1,6.2.3,1.9.8,4.6,1,6,1.4,7.8,9,38.5,9.6,38.8.4.2.6,1.2.3,2.2-.3,1.1,0,2,.6,2s.8.7.5,1.5c-.4.8-.2,2.1.4,2.8.5.6,1.2,2.5,1.6,4.2,1.5,6.8,4,14.5,4.8,14.5s.5.7.2,1.5c-.4.8-.2,2.1.4,2.8s1.6,3.4,2.2,6c.7,2.6,1.7,4.7,2.2,4.7s.6.9.3,2c-.4,1.1-.2,2,.4,2s1.1.6,1.1,1.2c0,1.7,3.7,11.1,9.5,24.3,1.4,3.3,3,6.9,3.5,8,.7,1.8,4.4,10.1,7.3,16.2.6,1.3,1.4,2.3,1.9,2.3s.8.9.8,1.9.4,2.2.9,2.6c.5.3,1.2,1.8,1.6,3.4.3,1.6,1.2,3.2,2,3.4.7.3,1.6,1.9,2,3.6s1,3.3,1.5,3.6,2.3,3.4,4,6.8c1.8,3.4,3.8,6.9,4.6,7.8.8.8,1.4,2.3,1.4,3.2s.4,1.7.8,1.7,1.9,1.9,3.2,4.2c1.3,2.4,3.4,5.7,4.7,7.4s2.3,3.6,2.3,4.2.5,1.2,1,1.2,1,.6,1,1.3,1,2.3,2.3,3.7c1.2,1.4,2.8,3.7,3.4,5.2.7,1.6,1.7,2.8,2.2,2.8s1.4,1.3,2.1,3c.7,1.6,1.5,3,1.9,3s1.5,1.5,2.6,3.2c1,1.8,2.9,4.4,4.2,5.8s2.3,2.8,2.3,3.2c0,.6,1.8,2.9,6.8,8.5,1.2,1.4,2.2,3,2.2,3.5s.5.6,1,.3c.6-.3,1,0,1,.7s1.2,2.7,2.8,4.4c1.5,1.6,3.9,4.6,5.4,6.5,1.4,1.9,6.1,7,10.2,11.3,4.2,4.3,7.6,8.3,7.6,8.8s.5.6,1,.3c.6-.3,1,0,1,.4,0,1,15.5,17.1,16.3,17.1s3.6,3.2,7.5,7.1c4,3.9,7.2,6.9,7.2,6.6s1.8,1.1,4,3.3,4,3.6,4,3.2,1,.4,2.3,1.8c1.8,2.1,8.5,7.6,17.5,14.5.7.5,2.1,1.7,3.1,2.5.9.9,3.3,2.6,5.2,3.8s4.3,3,5.3,4.1,2.2,1.8,2.6,1.6c.4-.3,1,.2,1.4,1,.3.8,1.2,1.5,2.1,1.5s1.5.4,1.5.8,1.6,1.7,3.5,2.8c1.9,1,3.5,2.2,3.5,2.6s.7.8,1.5.8,1.8.7,2.1,1.5c.4.8,1,1.3,1.4,1,.5-.3,1.4,0,2.2.7.7.7,2.9,2.2,4.8,3.2,1.9,1.1,3.8,2.4,4.2,3,.3.5,1.3,1.1,2.1,1.2s3.3,1.6,5.7,3.3,4.8,3.1,5.5,3.1,2,.9,3,2,2.1,1.7,2.6,1.5c.4-.3,1.3,0,2.1.8,1.1,1.1,2.5,1.9,5.6,2.9.4,0,1.5.9,2.5,1.8,1,.8,2.1,1.6,2.5,1.6,2.5.5,5.2,1.8,5.2,2.5s1.8,1.4,4,2c2.2.7,4.5,1.8,5.1,2.6.6.7,1.5,1.3,2,1.3s4.4,1.7,8.7,3.7c4.2,2.1,8.2,3.8,8.8,3.9s2.7.9,4.5,1.7c4.2,1.8,6.8,2.7,7.3,2.4.2,0,1.3.7,2.5,1.7,1.2,1.1,2.1,1.5,2.1,1.1s.8,0,1.8.7c.9.8,4.2,2.3,7.2,3.2,14.9,4.7,26.4,8.9,26.8,9.8.2.4.9.5,1.6.2.6-.2,3.2.3,5.6,1.2,2.5.9,5.8,1.8,7.3,2s3.8.9,5,1.6,3.3,1.4,4.7,1.5c2.2.3,2.9.5,5,1.2.7.3,7.5,1.9,15.5,3.7,6.3,1.4,8.6,1.9,13.5,2.8.8,0,2.9.6,4.5,1,1.7.3,4.6.9,6.5,1.2,3.3.5,5.9.9,10.5,1.8,3.3.7,11.7,1.8,16,2.1,2.2.2,4,.4,4,.5s2,.3,4.5.5c2.5.3,6.5.7,9,1.1,2.5.3,7,.7,10,1,8.2.7,71,1,71,.4s3.5-.7,7.8-.9c14-.4,15.2-.5,15.2-1.1s1.8-.5,4-.5,4-.2,4-.5,1-.6,2.3-.6c1.2,0,3.8-.4,5.7-.8s5.1-.9,7-1.1c4.8-.5,10.9-1.4,14.5-2,1.7-.3,4.4-.7,6-1,5.1-.8,8.9-1.6,10.5-2.2.8-.3,2.4-.7,3.6-.8,1.1-.2,3.8-.8,6-1.4,4.3-1.1,9.1-2.1,11.4-2.4.8,0,1.7-.5,2-.9s1.9-.9,3.5-1.2c1.7-.3,4.5-1,6.3-1.5,1.7-.5,3.2-.8,3.2-.5s1,0,2.3-.8c2.6-1.4,2.1-1.3,7.5-2.3,2.3-.4,4.2-1.1,4.2-1.6s.8-.9,1.8-.9,6.2-1.7,11.7-3.6c5.5-2,12.3-4.4,15-5.4,4.6-1.6,9.2-3.5,18.2-7.6,1.7-.8,3.8-1.4,4.6-1.4s1.9-.5,2.2-1c.4-.6,1-.8,1.5-.5s1.2,0,1.5-.5c.9-1.5,15.7-8.4,17.3-8.2.6.2,1.2-.2,1.2-.8s.6-1,1.3-1,1.9-.6,2.6-1.3c.6-.6,1.5-1.2,1.9-1.3,1.6,0,9.2-3.9,9.2-4.6s1.6-1.2,3.5-1.8,3.5-1.6,3.5-2.1.6-.9,1.4-.9,2.5-.9,3.9-2,3-2,3.5-2c1,0,10.5-5.9,12.9-8,.7-.5,1.9-1,2.8-1s1.5-.4,1.5-1,1.1-1.2,2.5-1.6c1.4-.3,3.1-1.4,3.8-2.4s2.1-2,3.2-2.2,1.9-1,1.7-1.7c0-.7.2-1,.7-.7s1.4,0,2.1-.9,1.7-1.5,2.2-1.5,2.3-1.3,4.1-3c1.8-1.6,4-3,5-3s1.5-.5,1.2-1c-.3-.6,0-1,.9-1s1.6-.5,1.6-1,.7-1,1.5-1,1.5-.5,1.5-1,.5-1,1.1-1,3.1-1.7,5.4-3.8c5.9-5.3,8.4-7.2,9.3-7.2s3-2.1,5.8-4.8c2.7-2.6,6.7-6,8.9-7.6s6.9-5.9,10.5-9.5,8.2-8,10.3-9.7c2-1.7,3.3-3.4,2.9-3.8s-.2-.6.3-.5c1.4.5,6.5-3.1,6.5-4.6s1.6-2.6,3.5-4.4c1.9-1.7,3.5-3.6,3.5-4.2s.5-.7,1-.4c.6.3,1,.2,1-.3,0-1.3,8.8-10.1,9.4-9.4.3.3.6,0,.6-1,0-1.9,3.5-6,4.4-5.1.3.3.6,0,.6-.8s.8-2.2,1.8-3.1c.9-.9,2.8-3.2,4.2-5.2,1.4-1.9,3.1-3.6,3.8-3.6s1.2-.6,1-1.2c-.5-1.5,1.5-3.8,3.2-3.8s.9-.4.5-.9c-.3-.6,0-1.3.8-1.8.7-.4,2-2,2.9-3.4s2.3-3.2,3-4c2.8-3,6.9-8.9,6.1-8.9s0-.5,1-1.1c.9-.5,1.7-1.7,1.7-2.5s.4-1.3.9-1,1.6-1,2.5-2.9,2.1-3.5,2.6-3.5,1-.9,1-2.1.4-1.8.9-1.5,1.2-.5,1.5-1.9c.4-1.4,1.1-2.5,1.6-2.5s1-.7,1-1.5.4-1.5,1-1.5,1.2-1.1,1.6-2.5c.3-1.4,1-2.3,1.4-2s1.1-.6,1.4-2c.4-1.4,1.1-2.5,1.6-2.5s1-.7,1-1.5.9-2.4,2-3.5c1.2-1.2,1.8-2.5,1.5-3-.4-.6,0-1.3.9-1.6s1.6-1.4,1.6-2.4.9-2.7,2-4,2-2.9,2-3.7.4-1.2,1-.8c.5.3,1.4-1.3,2-3.5s1.5-4,2-4,1.1-1.4,1.5-3.1,1.3-3.3,2-3.5c.7-.3,1.5-1.8,1.8-3.3.3-1.6,1.2-3.5,2-4.3.8-.7,2.2-3.7,3.1-6.6,1-2.8,2.2-5.2,2.7-5.2s.8-.4.5-.9c-.4-.5-.2-1.1.2-1.3.5,0,2.1-3.7,3.7-7.8,1.5-4.1,3.4-7.9,4.2-8.3.7-.4,1.3-1.6,1.3-2.6s.3-2.1.8-2.5c.4-.4.7-1.1.8-1.4,0-.4.3-1.4.6-2.2.4-.8.9-2.4,1.4-3.5.4-1.1.8-2.2.8-2.5s.7-1.4,1.3-2.5,1.1-2.2,1.1-2.5.6-1.9,1.2-3.5c.7-1.7,1.3-3.5,1.4-4,0-.6,1-2.7,1.9-4.9.9-2.1,1.5-4.2,1.2-4.6s.8-4,2.5-7.9c1.6-3.9,3.1-8.3,3.3-9.9.4-2.6.6-3.3,2.3-7.7.4-1.1.8-2.8.9-3.7s.7-3,1.3-4.5,1.1-3.5,1.1-4.3c0-1.5,1.9-9.1,2.9-12,.3-.8.7-2.2.8-3,.5-2.7,1.2-5.5,1.5-5.5s.3-.9.5-2,.6-3.8,1-6c.3-2.2.8-4.9.9-6,.2-1.1.4-2,.5-2,.3,0,.8-2.7,1.5-8,.3-2.2.8-5.1,1.1-6.5.4-1.4.8-4.1.9-6,.2-1.9.4-3.7.5-4,.2-.3.4-1.9.5-3.5,0-1.7.5-3.7.8-4.5s.5-2.6.3-4c0-1.4,0-3,.3-3.5.3-.6.7-2.6.7-4.5s.5-6.4.8-10c1.3-13.6,2.1-46.3,1.2-47.8-.3-.6-.2-1.4.4-1.7.6-.4.8-1.5.5-2.6-.4-1-.8-7.6-1.1-14.6-.5-12.9-.8-17.3-1.8-27.3-.4-3-.8-8-1.1-11s-.8-6.9-1-8.5c-.3-1.7-.7-4.8-1-7-.2-2.2-.9-5.5-1.4-7.3s-.8-3.9-.5-4.7c.3-.7,0-1.6-.5-2-.6-.3-.9-1-.7-1.4.3-.4,0-2.3-.4-4.2s-1.2-5-1.4-7c-.3-2-1.1-6.3-2-9.5-.8-3.2-1.7-7.8-2.1-10.1-.4-2.4-1.1-4.5-1.5-4.8-.5-.3-.7-1.2-.4-1.9.3-.8,0-1.7-.5-2.1-.6-.3-.9-1.1-.5-1.6.3-.5,0-1.7-.7-2.5-.6-.8-.9-1.7-.6-2.1.4-.3.3-1.1,0-1.7-.5-.6-1.9-5-3.2-9.9-1.2-4.8-2.6-8.7-3-8.7s-.6-.9-.3-2,0-2-.6-2-1.1-.9-1.1-2c0-1.9-2.3-8.8-3.9-12-.5-.9-1.2-3-1.6-4.9-.4-1.8-1.3-4.4-2.1-5.9s-1.4-3.3-1.4-4-.4-1.2-1-1.2-1-.8-1-1.8-.3-2.2-.7-2.6c-.4-.3-.8-1.4-.9-2.4-.2-2-2.6-8.5-3.4-9.2-.3-.3-1.4-2.5-2.4-5s-3.4-7.6-5.4-11.5c-4.6-9.3-4.8-9.5-6.3-13-.7-1.7-2.1-4.2-3-5.6-1-1.4-2.1-3.8-2.5-5.3-.3-1.5-1.3-3-2-3.3-.8-.3-1.4-1.3-1.4-2.2s-.9-2.7-2-4.1-2-3.1-2-3.8-.4-1.2-.8-1.2-1.4-1.6-2.2-3.5-1.7-3.5-2.1-3.5-1-.8-1.3-1.8c-.7-2-1-2.4-10.1-16.7-3.8-6.1-7.9-12.1-9.2-13.4s-2.3-3-2.3-3.8-.4-1.1-1-.8c-.5.3-1,.1-1-.5,0-1.4-9.2-14-10.2-14s-.8-.6-.8-1.3-1.3-2.6-2.8-4.3c-1.5-1.8-4.9-6-7.7-9.4-2.7-3.4-7.1-8.5-9.7-11.3-2.6-2.9-4.8-5.6-4.8-6s-.4-.5-1-.2c-.5.3-1,.2-1-.4s-1.6-2.6-3.5-4.7c-1.9-2-3.5-4.1-3.5-4.6s-.4-.6-1-.3c-.5.3-1,.2-1-.3,0-1.2-12.3-13.7-13.2-13.4-.4.1-1-.7-1.3-1.8-.4-1.1-1.1-2-1.6-2s-4.1-3.2-8-7c-3.9-3.9-7.2-7-7.5-7s-1.2-.8-2.2-1.8c-3.7-3.5-9.2-8.2-9.6-8.2s-1.7-1.3-3.4-2.8c-1.6-1.6-4.3-3.8-5.9-5-13.7-10.6-17.2-13.2-18.1-13.2s-1.2-.7-1.6-1.5c-.3-.8-1.2-1.5-2-1.5s-1.6-.3-1.8-.8c0-.4-2.3-2.1-4.8-3.7-2.5-1.7-5-3.7-5.7-4.5s-1.3-1.1-1.3-.7-1.8-.6-4-2.3-4-2.8-4-2.4-.9-.2-2.1-1.4c-1.1-1.2-2.4-2-3-1.7-.5.4-.9.2-.9-.4,0-.9-2.8-2.8-7.7-5-1.3-.6-2.3-1.5-2.3-2.1s-.9-1-2-1-2.3-.7-2.6-1.5c-.4-.8-1-1.3-1.4-1s-2.4-.6-4.4-2c-2-1.3-3.6-2.2-3.6-1.8s-.8-.1-1.7-.9c-1-.8-3.4-2.2-5.3-3.2-1.9-.9-4.2-2.1-5-2.5-2-1.2-25.3-12.6-26-12.7-.3,0-1.2-.3-2-.6-.8-.4-2.4-.9-3.5-1.4-1.1-.4-2.4-.8-2.8-.8-.4-.1-1.1-.7-1.6-1.4-.4-.7-1.4-1.5-2.2-1.6-.8-.2-2.7-.9-4.4-1.5-1.6-.7-6.5-2.6-10.9-4.2-4.3-1.6-8.4-3.3-9-3.6-.6-.4-1.6-.8-2.3-.9s-2.6-.9-4.2-1.7c-1.7-.8-3.1-1.1-3.3-.7-.2.5-2,0-4.1-1s-4.1-1.9-4.5-1.9-2-.6-3.7-1.2c-1.6-.7-4.3-1.4-6-1.6-1.6-.3-4.6-1.3-6.7-2.3-2-1-3.8-1.4-4-1s-1.9,0-3.8-.8-4.6-1.6-5.9-1.8-3.1-.6-4-1-2.5-.8-3.7-.9-3-.5-4-1c-1-.4-2.8-.9-3.9-1.1-5.8-.8-8.5-1.3-9.4-1.8-.5-.4-3.1-.9-5.7-1.2-2.7-.3-5.5-.9-6.4-1.3-.8-.4-3.3-.9-5.4-1-2.2,0-4.3-.4-4.8-.7s-2.3-.7-4.1-1c-1.8-.2-4.8-.6-6.7-.9-3.7-.6-10.5-1.5-13-1.7-.8,0-2.1-.5-2.7-1.1-.9-.6-1.3-.6-1.3.2s-.6.9-1.7.3c-1-.4-3.1-.8-4.8-.7-1.6,0-3.6-.2-4.2-.8-.9-.6-1.3-.5-1.3.3s-.3,1-1.5,0-1.5-1-1.5,0-.4.9-1.2.3c-.7-.6-3.1-1-5.4-1s-4.6-.3-5.2-.7c-.7-.4-1.2-.2-1.2.4s-.4.9-.8.6c-.5-.3-7.1-.8-14.6-1.1-7.6-.2-14.2-.7-14.7-1.1-.5-.3-.9-.2-.9.3h0l-.1-.1ZM1031.09,239.12c.6.5,1.2.4,1.2-.1s1.7-.7,3.8-.6c2,.2,6.9.6,10.7.8,3.9.2,7,.5,7,.6,0,.2,10.5,1,13.7,1.1,1,0,2,.4,2.3,1,.4.5,1.1.9,1.6.9s.7-.5.3-1.2c-.5-.7-.3-.8.6-.3.7.4,2.3.9,3.4,1.1,1.2.1,3.7.5,5.6.9s4.5.9,5.8,1c1.3.2,2.9.9,3.7,1.5,1.1.9,1.5.9,1.5.1s.6-.9,1.8-.2c1.6.8,5.1,1.7,11.5,2.6,1.5.3,3.7,1,4.8,1.6s2.3.8,2.6.5c.3-.2,2.7.4,5.4,1.5,2.7,1,5.3,1.8,5.7,1.7,1.1-.3,8.4,2.3,11,3.8,1.4.9,2.2,1.1,2.2.4s.7-.4,1.6.4c.8.9,2.1,1.7,2.7,1.7,4,.5,5.5.8,8.2,1.9,1.7.6,3.1,1,3.1.8s1,.4,2,1.2c2.1,1.7,6.1,3.7,11.4,5.5,2.8,1,4.8,1.8,6.5,2.8,1.1.6,3.8,1.9,6,2.9s4.7,2.3,5.5,2.8c.8.6,2.6,1.5,4,2,1.4.6,3.2,1.5,4,2,.8.6,2.5,1.4,3.8,2,1.2.5,2.2,1.4,2.2,2s.8,1,1.9,1,2.4.7,3.1,1.5c.6.8,2.1,1.7,3.3,2.1s2.7,1.3,3.5,2c.7.8,1.8,1.2,2.3.9.5-.4.9-.2.9.4s1.1,1.6,2.3,2.3c5.8,3.2,12.7,8.1,12.7,8.9s.9.9,2,.9,2,.4,2,.9,3,3.1,6.8,5.7c7.7,5.5,10.9,8.2,16.9,14,2.3,2.3,4.4,3.9,4.7,3.7.2-.3,1.2.7,2.1,2.1,1,1.4,2.1,2.3,2.6,2s.9-.1.9.4,2.7,3.6,6,6.8,6.4,6.3,7,6.9c2.7,2.7,10.8,11.7,13,14.5,2.2,2.9,4,5.1,8.2,10,.7.8,3.3,4.1,5.7,7.5,2.4,3.3,4.7,6.2,5.1,6.5.3.3,1.5,2.1,2.6,4,1,1.9,2.2,3.7,2.5,4,1.2,1.1,9.9,15.1,9.9,16s.4,1,.9,1,1.3,1,1.7,2.2c.4,1.3,2,4.2,3.5,6.5,1.6,2.3,2.9,4.8,2.9,5.6s.3,1.7.8,1.9c.9.4,7.3,13.3,9.9,20,1,2.7,2.1,4.8,2.6,4.8s.7.6.7,1.4,1.3,4.4,3,7.9c3.1,6.6,3.7,9.3,2.1,8.3-.5-.4-1.1-.1-1.3.5-.2.5-1.7,1.1-3.3,1.2-1.7.2-3.5.6-4,.9-.6.3-2.8.9-5,1.3s-4.9,1.2-6,1.8-2.7,1.2-3.5,1.3c-2.5.3-12.8,4.3-19.3,7.4-3.3,1.6-6.4,2.7-6.9,2.4-.4-.3-.8,0-.8.5s-.9,1.1-1.9,1.1-2.1.7-2.5,1.5c-.3.8-1.1,1.5-1.8,1.5-2,.1-8.9,3.6-8.3,4.2.3.3-.6.9-2.1,1.2-2.6.7-7,3.4-11.1,7-1.3,1.1-2.3,1.6-2.3,1.2,0-.7-1.5.4-7.6,5.4-.7.5-1.5.6-1.8.3-.3-.4-.6-.1-.6.5s-1.6,2-3.5,3.2c-3.7,2.3-6.3,4.3-12.2,9.7-2,1.8-4,3.3-4.5,3.3s-.7.3-.5.7c.3.5,0,1.4-.9,2.1s-1.4,1-1.4.6-.9,0-2,1.1-2,2.2-2,2.6-2.9,3.9-6.5,7.5c-3.6,3.7-6.5,7-6.5,7.5s-.7.9-1.6.9-1.2.5-.9,1c.7,1.2-2,4.2-2.9,3.3-.3-.4-.6.3-.6,1.5s-.6,2.2-1.2,2.2c-1.3,0-5.8,6.3-5.8,8s-.7,1-1.5,1.4c-.8.3-1.5,1.2-1.5,2.1s-.3,1.5-.7,1.5-1.7,1.8-2.7,4c-1.1,2.2-2.3,4-2.8,4s-.8.7-.8,1.5-.7,1.8-1.5,2.3c-.9.4-1.7,1.9-2,3.2-.2,1.3-.8,2.6-1.3,2.9-.9.6-2.3,3.7-2.8,5.9,0,.8-1,2.2-1.9,3.2s-2.1,3.5-2.7,5.6c-.5,2.2-1.8,5-2.7,6.4-2.6,3.8-11.2,27.8-11.5,32,0,1.4-.5,3.1-.9,3.8-.9,1.3-5.5,23.7-6.1,29.2-1.5,14.3-1.9,21.9-1.9,31.5,0,13,1.3,29.2,2.7,36,0,.5.5,2.3.9,4,.3,1.6.9,4.8,1.2,7,.8,5.8,6.6,27.8,7.6,29.1.5.6.7,1.3.4,1.6s0,1.8,1,3.4c.8,1.6,1.5,3.5,1.5,4.1s.5,1.3,1.1,1.3.9.8.8,1.7c0,1,.3,2.9.8,4.3,2.3,5.5,7.4,15.9,11.1,22.5,7.1,12.7,8.4,15,9.8,16.6.8.8,1.4,2,1.4,2.5s.8,1.9,1.8,3c1,1,2.7,3.4,3.7,5.1,1.1,1.8,2.3,3.3,2.7,3.3s1.2.8,1.6,1.9c.8,2.1,8.2,10.9,16.2,19.3,3,3.2,6,6.2,6.5,6.8,3,3.3,11.6,10.6,11.9,10.2.3-.2.9.6,1.6,1.7.6,1.2,1.7,2.1,2.5,2.1s1.5.4,1.5.9,3,3.1,6.8,5.8c3.7,2.6,7,5.2,7.4,5.8.4.5,1.2,1,1.8,1s1.4.5,1.8,1.1,1.4,1.4,2.2,1.7c.8.4,3.8,2.1,6.5,3.7,2.8,1.7,6.6,3.8,8.5,4.8,1.9.9,3.8,2.1,4.2,2.7.4.5,1.1,1,1.5,1.1,2.9.3,6.2,1.8,6.7,3,.3.8,1.4,1.4,2.4,1.4s2.2.4,2.7.8c.6.5,5.1,2.4,10,4.2,5,1.8,10.6,4,12.5,4.8,3.8,1.7,5,2,9.2,2.7,1.5.2,3.5.8,4.5,1.3,1,.6,3.2,1.3,4.8,1.6,1.7.3,7.3,1.4,12.6,2.5,5.2,1,11.8,2.2,14.5,2.5s7.6.9,10.9,1.3c11.4,1.3,51.8.5,54.4-1.2.6-.3,2.6-.6,4.6-.7,1.9,0,3.5-.4,3.5-.7s1.2-.7,2.8-.8c6.7-.4,9.2-.9,9.2-1.6s.8-.7,1.8-.6h3.5s1.6-.5,3.2-1.1c3.1-1.2,7.1-2.2,9.3-2.3.6,0,1.2-.3,1.2-.6,0-.7,9.1-3.6,10.3-3.3.4,0,.7-.3.7-.9s.4-.8.8-.5c.5.3,2,0,3.5-.9,1.4-.7,2.8-1.1,3.1-.7.3.3.6,0,.6-.5,0-1,4.6-2.8,6.3-2.5.4,0,.7-.2.7-.8s.9-1,2-1,2-.5,2-1,.9-1,2-1,2-.5,2-1,.3-.9.8-.9c1.3.3,7.2-2.3,7.2-3.1s1.4-1.1,3-1.5c1.7-.4,3-1,3-1.3s2.1-1.8,4.8-3.2c2.6-1.4,5.3-3,6-3.7s1.8-1.3,2.3-1.3c1.1,0,3.1-1.5,5.7-4.3.9-.9,2.2-1.7,2.9-1.7s1.3-.5,1.3-1,.5-1,1-1,2.1-1.1,3.4-2.5c1.3-1.3,2.6-2.2,2.9-1.8.4.3.7,0,.7-.7s.3-1.1.6-.7c.8.8,3.3-1.6,2.7-2.6-.2-.4.3-.7,1.1-.7s1.6-.4,1.6-.9.9-1.3,2-1.6c1.1-.4,1.8-1.1,1.5-1.6-.4-.5-.2-.9.4-.9,1.1,0,16.2-14.9,20.2-19.9,1.3-1.6,2.7-2.7,3.1-2.5.4.3.8-.4.8-1.6s.4-1.9.8-1.6c.5.3,1.7-.6,2.7-2s2.9-3.7,4.2-5.2,2.3-3.1,2.3-3.5.5-.5,1-.2c.6.3,1-.3,1-1.4s.5-2.1,1-2.1,1-.7,1-1.6.4-1.3.9-1c.5.4,2.2-1.4,3.7-3.8,1.6-2.5,3.2-4.2,3.6-4,.4.3.8-.6.8-2s.6-2.6,1.5-2.6,1.5-.7,1.5-1.5.5-1.5,1-1.5,1-.9,1-2.1.5-1.7,1-1.4c.6.3,1,0,1-.9s.7-2.2,1.6-3c.9-.9,1.7-2.3,1.8-3.2s.7-1.9,1.3-2.2c1.1-.7,5.6-8.1,7.3-12,.5-1.2,1.5-2.2,2.1-2.2s.9-.3.6-.7c-.4-.3,0-1.7.8-3,.9-1.3,1.2-2.3.8-2.3s0-.5,1-1.1c.9-.5,1.7-1.9,1.7-2.9s.5-2.2,1-2.5c.6-.4.8-1,.5-1.5-.3-.4.2-1,1-1.4.8-.3,1.5-1.4,1.5-2.5s.5-2.3,1-2.6c.6-.3,1-1.5,1-2.5s.6-2.5,1.4-3.3,3.8-7.5,6.6-14.8c2.8-7.4,6.2-16.1,7.5-19.4s2.3-6.7,2.3-7.5.7-3.2,1.7-5.3,1.5-4.1,1.1-4.4c-.3-.3,0-1.2.5-2,.6-.7.8-1.3.5-1.3s0-1,.5-2.3c1.2-2.1,2.7-7.9,3.3-12.2,0-1.1.5-2.9.9-4,.3-1.1.8-3.2,1.1-4.8.3-1.5,1-5.4,1.6-8.8.6-3.3,1.3-7.3,1.5-9,.3-1.6.7-4.4,1-6.2.6-3,1.2-9.6,1.9-19.3,0-2.2.6-4.6,1-5.2.4-.7.2-1.2-.5-1.2s-.8-.4,0-1.5c.7-.8.8-1.5.3-1.5s-.8-1.5-.4-3.8c.4-2,.7-8.7.7-14.9s.3-10.8.7-10.4c1.5,1.5.7,58.6-.8,61.1-.3.5-.8,3.2-1.1,6.2-1,8.8-1.1,9.2-1.8,10.9-.4.9-.6,2-.5,2.5.4,1.5-1.4,11-2.5,13.5-.4.9-.6,2-.5,2.5.4,1.3-.9,7-4.1,17.6-.5,1.8-1.2,4.7-1.5,6.5-.3,1.7-1.4,5.2-2.5,7.8s-2,5.4-2,6.4-2.2,7.4-5,14.3c-2.7,6.9-5,13.1-5,13.7s-.4,1.1-.9,1.1-1.9,2.8-3.1,6.2c-1.3,3.5-2.9,7-3.6,7.8-1.1,1.3-2.4,4.2-3.5,7.5,0,.5-1.1,1.9-2.1,2.9-1,1.1-1.8,2.5-1.8,3.2,0,1.3-3.9,8.5-5.1,9.4-.3.3-.9,1.5-1.3,2.8-.4,1.2-1.2,2-1.7,1.7-.5-.4-.9.3-.9,1.4s-.5,2.3-1.1,2.6c-.5.4-1.5,1.7-2,2.8-2,4.4-3.6,6.7-4.2,6-.4-.3-.7,0-.7,1s-1,2.7-2.3,4.1c-1.2,1.3-2.9,3.7-3.7,5.3-.8,1.5-2.1,3.2-2.7,3.6-.7.4-1.3,1.5-1.3,2.3s-.4,1.3-.9,1c-.5-.4-1.5.7-2.3,2.4-.7,1.6-1.6,3-2,3s-.8.6-.8,1.2-1.4,2.4-3,3.7c-1.7,1.3-3,2.8-3,3.5s-1.3,2.4-3,3.9c-1.6,1.6-3,3.3-3,3.8s-.4.7-1,.4c-.5-.3-1,0-1,.7s-1.5,2.7-3.2,4.4c-1.8,1.8-4.5,4.6-6,6.3-1.6,1.7-2.8,2.9-2.8,2.6s-.6,0-1.4.7-1.2,1.6-1,2-.5.9-1.6,1.3c-1.1.3-2,1.2-2,1.9s-1.8,2.7-4.1,4.6c-2.2,1.8-5.4,4.6-6.9,6.2-1.6,1.5-3.5,2.8-4.4,2.8s-1.8.9-2.1,2.1c-.4,1.1-.9,1.8-1.2,1.5-.8-.8-3.2,1.8-2.5,2.8.3.5-.2.7-1.1.3-1.1-.4-1.7,0-1.7.9s-.4,1.2-1,.9c-.5-.3-1,0-1,.6s-.3,1-.6.6c-.3-.3-1.9,1-3.6,2.9-1.6,1.9-3.4,3.1-3.9,2.8s-.9.2-.9,1.1-.5,1.3-1.1,1c-.6-.4-1.8,0-2.8,1.1-.9,1.1-3.8,3.2-6.4,4.8-2.6,1.7-4.7,3.4-4.7,3.8s-.6.8-1.4.8-1.9.7-2.6,1.5-1.6,1.2-2.1.9-1.2,0-1.5,1c-.5,1.2-7.4,5.3-8.1,4.8-.2,0-1.2.6-2.2,1.5-3.2,2.9-5,4.3-5.6,4.3-1.3,0-4.2,1.5-5.9,2.9-1,.9-1.9,1.4-2,1.2-.2-.6-7.9,3.1-9.4,4.6-.8.7-1.8,1.1-2.3.8-.5-.4-.9-.2-.9.3s-1,1.3-2.2,1.7c-1.3.4-2.5.8-2.8.9-.3.2-1.8.9-3.5,1.6-1.6.7-3.4,1.4-4,1.5-.5.2-3.4,1.4-6.4,2.9-3,1.4-5.6,2.4-5.9,2.1-.2-.2-2.6.7-5.3,2.1-2.7,1.3-4.9,2.1-4.9,1.8s-.6-.2-1.2.4c-.7.6-3,1.3-5,1.7-2.1.4-3.8,1.1-3.8,1.7s-.4.7-.9.3c-.5-.3-1.3,0-1.6.5-.4.6-1.5.8-2.6.5-1.1-.4-1.9-.2-1.9.5s-.8,1-2,.7c-1.1-.3-2.2-.2-2.5.3-.3.4-2.2,1.1-4.2,1.6-2.8.5-4.9,1.1-6.3,1.7-3.1,1.2-8.6,2.4-10.2,2.1-1,0-1.8.2-1.8.6s-.8.9-1.7.9c-3.6,0-9.8,1.2-10.1,2,0,.5-1.7.7-3.3.5-1.7-.2-3.6,0-4.3.3-.6.4-2.4.8-4.1.8s-3.4.3-4,.6c-.5.3-2.5.5-4.2.4-1.8,0-3.3,0-3.3.4s-2.5.6-5.5.6-5.5.2-5.5.5-6.3.5-14,.5-14,.3-14,.6c0,.8-5.3.4-6.8-.5-.7-.4-1.2-.3-1.2.2,0,1-5,.9-6.8-.2-.7-.4-1.2-.2-1.2.4s-.5.8-1.2.4c-.6-.4-3.6-.8-6.7-.9s-9.2-.6-13.6-1-8.9-.9-10-.9-2.4-.4-3-.7c-.5-.3-2.3-.6-4-.7-4.3-.3-5.8-.7-7.2-1.5-.8-.5-1.3-.3-1.3.3s-.7.7-2.2,0c-1.3-.7-3.6-1.4-5.3-1.5-1.6-.2-4.1-.6-5.5-1-1.4-.3-3.4-.7-4.5-.9s-2.1-.4-2.2-.5c-.2-.2-.7-.4-1.3-.5-.5,0-1.3-.4-1.7-.5-.5,0-1.2-.2-1.7,0s-1.6,0-2.5-.5c-1.9-.8-3.9-1.4-6.6-1.8-1.1-.2-2-.4-2-.5,0-.2-.8-.4-1.7-.6s-3.1-1-4.7-1.8c-1.7-.8-3.1-1.1-3.3-.7s-2.1,0-4.3-1c-3.4-1.5-6.7-2.9-8.5-3.5-.3,0-1.3-.5-2.2-.8-1-.4-2.6-1-3.5-1.4-1-.3-2-.7-2.3-.8s-1.3-.5-2.2-.8c-1-.4-2.6-1-3.5-1.4-1-.3-2-.7-2.3-.7s-1.4-.7-2.5-1.3-2.4-1.2-3-1.3c-2.8-.6-13.2-5.5-21-9.8-1.7-.9-3.7-1.8-4.5-2-.7-.2-2.6-1.2-4.2-2.3-1.5-1.1-2.8-1.7-2.8-1.3s-.7,0-1.6-.7-2.5-1.8-3.5-2.4c-5.6-3.1-19.4-12-19.7-12.7-.2-.4-1-.8-1.7-.8s-1.8-.6-2.2-1.3c-.4-.6-1.5-1.7-2.4-2.2-4.3-2.7-10.5-6.9-11.5-7.9-2.6-2.5-5.5-4.6-6.2-4.6s-2.1-1.5-3.9-3.3-4.6-4.4-6.3-5.7c-11.9-9.6-38.3-36.2-41.3-41.6-.5-.8-2.6-3.4-4.8-5.7-2.1-2.3-4.1-5-4.5-6-.3-.9-.9-1.7-1.3-1.7s-1.6-1.6-2.7-3.5c-1-1.9-2.1-3.5-2.4-3.5s-1.4-1.6-2.4-3.5c-1.1-1.9-2.2-3.5-2.5-3.5s-1.5-1.7-2.6-3.8c-1.1-2-2.2-3.9-2.5-4.2-1-1-3.1-4.5-3.6-6.3-.4-.9-.9-1.7-1.3-1.7s-1.8-2.2-3.2-5c-1.3-2.7-2.7-5-3-5s-1.2-1.5-2-3.3c-.7-1.7-1.6-3.4-1.9-3.7-1.1-.9-16-31.5-16-32.8s-.4-1.2-.9-1.2-1.2-1.2-1.5-2.6c-.4-1.4-1.6-4.5-2.6-6.8-1.8-3.9-6.9-17-7.4-19.1-.2-.6-.8-2.3-1.4-3.8-.7-1.5-1.5-4-1.8-5.5-.4-1.5-1-3.2-1.5-3.7-.4-.6-3.3-10.5-6.3-22-4.8-18.4-6.8-27.4-8.2-37.7-.2-1.6-.8-5.6-1.3-9-.6-3.5-1.3-9.9-1.7-14.3-.3-4.4-.7-9.6-.9-11.5-.6-5.3-.5-33.4,0-43,.6-10.4,3.4-32.3,5.5-42,.5-2.5,1.6-8.6,2.5-13.5,4.4-24.8,4.3-24.6,3.7-8-.7,22-.7,63,0,78,.8,13.4,1.1,17.9,2.1,27.7.3,3.2.8,8.4,1.1,11.5.3,3.2.8,7.1,1.1,8.8.3,1.6.7,4.3.9,6,.2,1.6.4,3,.5,3,.2,0,1.3,6.9,1.4,9.2,0,1.3.5,2.3.9,2.3s.5.4.2,1c-.7,1.1,6.8,29.9,9,34.7.8,1.7,1.5,3.6,1.5,4.3s.6,2.4,1.4,3.8c.7,1.5,3.7,7.5,6.7,13.4,2.9,6,5.7,10.8,6.1,10.8s.8.6.8,1.4,1.1,2.5,2.5,4c1.3,1.5,2.9,3.5,3.4,4.4,1.1,2,4.9,2.6,6.8,1,.7-.6,1.3-.7,1.3-.4s.7,0,1.6-.8c.8-.9,2-1.4,2.4-1.1.5.3,3-.3,5.4-1.5,2.5-1.1,5-2,5.5-2s1.1-.5,1.1-1,.9-1,2-1,2-.4,2-1,.3-.9.8-.8c1.1.4,9-3,9.7-4.2.3-.5,1.5-1,2.6-1s1.9-.5,1.9-1,.6-1,1.4-1,1.9-.7,2.6-1.5c.7-.9,1.5-1.3,1.7-1.1.3.3,2.7-1.1,5.4-3s5.1-3.4,5.4-3.4,1.1-.5,1.8-1.1c1.1-.9,3.4-2.4,9.2-6.1,1.1-.7,2.2-1.5,2.5-1.8s2.5-2.1,5-4c5.7-4.5,8.1-6.6,18.5-16.8,4.7-4.5,8.5-7.9,8.5-7.5s1-.9,2.3-3,2.6-3.5,3-3.1.7,0,.7-.9.5-1.7,1-1.7,1-.4,1-1c0-1,2-3.7,5.5-7.4,1.2-1.1,2.4-2.9,2.8-3.9s1.1-1.5,1.7-1.2c.5.3,1-.3,1-1.4s.5-2.1,1-2.1,1-.7,1-1.6.4-1.3.9-1,1.1-.2,1.5-1.2c.3-.9,1.5-3.1,2.6-4.7,1.1-1.7,2.3-3.7,2.6-4.5.4-.8,1.3-2.2,2.1-3.2.8-.9,1.6-2.4,1.7-3.3s.7-2,1.3-2.3c.5-.4,1.6-2.4,2.2-4.5.7-2,1.6-3.7,2-3.7s1.3-1.7,2-3.8c.8-2,2.3-5,3.3-6.5,1.1-1.5,2.1-3.3,2.2-4,0-1.2,2.1-6.5,3.7-10.2,2.5-5.7,4.9-13.3,4.9-15.2s.4-2.4.9-2.7c.7-.5,1.8-4.4,2.6-9.6,0-.3.3-1,.7-1.5.3-.6.9-3.5,1.3-6.5s1.2-5.8,1.7-6.1c.6-.4.8-1.4.5-2.2-.3-.9-.2-3.1.4-4.9.5-1.9,1.1-6.3,1.4-9.9.3-3.5.7-7.8.9-9.4.5-3.1.9-14.3.6-16v-8.4c0-4.1-.4-11.5-1-16.5s-1.2-10.8-1.5-13c-.2-2.1-.9-5.6-1.4-7.7-.6-2.2-.8-4.4-.5-4.9s0-1.1-.5-1.5-.8-1.1-.5-1.6c.4-.5.3-1.5-.2-2.2-.4-.6-.8-1.7-.9-2.2-.4-2.2-3.5-14.1-4.1-15.5-.3-.8-.7-2-.8-2.5,0-.6-.6-2.1-1.2-3.5s-1.4-4-1.8-5.8c-.3-1.7-1.1-3.2-1.6-3.2s-.9-.9-.9-1.9-.4-2.2-.9-2.6c-.5-.3-1.2-1.9-1.6-3.5-.4-1.7-1.1-3-1.6-3s-.9-.7-.9-1.5c0-1.9-6.9-16.3-8.1-17.1-.5-.3-.9-1.2-.9-2s-.8-2.7-1.9-4.2c-2.8-4.2-5.4-8.2-7.4-11.6-1.1-1.7-3.7-5.4-5.8-8.2s-3.9-5.4-3.9-5.7-.8-1.5-1.7-2.5c-1-1.1-4.3-4.7-7.3-8.2-9.4-10.7-28.2-29-29.9-29s-1.3-.9-2.1-2-1.8-2-2.2-2-1.7-.8-2.7-1.8c-3.7-3.3-5-4.2-6.1-4.2s-1.3-.7-1.6-1.5c-.4-.8-1-1.5-1.6-1.5s-2.4-1.1-4.2-2.5-3.7-2.5-4.1-2.5-1.7-.8-2.7-1.7c-1.6-1.4-5.8-2.9-5.8-2s.5,1.8,1,3.7c1.2,3.9,3,15.2,3.5,22,.2,2.5.6,7.2.9,10.5,2.1,22.5,2.2,91.6,0,114-.2,2.7-.7,8.9-1.1,13.7-.3,4.7-1,10.1-1.4,12l-.8,3.3-.2-4c0-2.2-.4-8.5-.6-14-.5-14-1.4-31.2-1.9-36.5-1-10.6-3.1-25.6-3.9-26.8-.3-.5-.8-3.1-1.1-5.8-.9-7.8-8.3-34.4-12-42.9-.7-1.7-1.7-4.1-2.3-5.5-2.7-6.7-11-22.9-14.4-28.2-2.1-3.2-3.8-6.1-3.8-6.4,0-1.6-12.8-17.1-21-25.5-10.1-10.2-13.5-12.9-17.2-13.4-3.6-.5-9.9-1.4-13.8-2-16.9-2.7-57.6-2.3-66.7.6-1.8.6-3.7.8-4.2.5-.5-.4-1.2-.2-1.6.4s-1,.8-1.3.6c-.4-.2-3.5.1-6.9.8-3.4.8-6.5,1.1-6.8.8s-.5,0-.5.5-.8,1-1.7.8c-1-.1-2.4.2-3,.8-.7.5-1.3.7-1.3.4s-1.6.1-3.5.9-3.6,1.3-3.7,1.2c-.5-.3-11.3,3.5-12.4,4.3-.6.5-1.9.7-2.8.3-.9-.3-1.6-.1-1.6.5s-.9,1.1-2,1.1-2,.4-2,.9-1.1,1.2-2.5,1.5c-1.4.4-5.1,1.9-8.3,3.3-3.1,1.5-5.9,2.8-6.2,2.8-1.8.5-4.7,2.1-5.8,3.2-.8.7-1.8,1.1-2.3.8-.5-.4-.9-.1-.9.4s-.7,1.1-1.5,1.1-1.5.4-1.5.9-1.2,1.2-2.6,1.5c-1.4.4-3.5,1.6-4.7,2.7s-4.2,3.1-6.7,4.6c-2.5,1.4-5.7,3.7-7.2,5-1.4,1.4-3.1,2.2-3.7,1.9-.6-.4-1.1,0-1.1.8s-.5,1.6-1.1,1.6c-1,0-6.4,4.5-9.8,8.2-.8,1-2.1,1.8-2.8,1.8s-1.3.5-1.3,1.1-.4.8-.8.5c-.5-.3-1.5.5-2.3,1.6-1.6,2.4-11.9,12.9-11.9,12.1s-.7.2-1.5,1.1c-.8.8-1.5,1.8-1.5,2.2s-1.7,2.4-3.7,4.4c-5.3,5.3-9.3,9.9-9.3,10.8s-.9,1.4-2,2.2-2,2-2,2.7-.4,1.3-1,1.3-1,.7-1,1.6-.4,1.2-1,.9c-.5-.3-1,.1-1,.9s-.4,1.6-1,1.6-1,.7-1,1.5-.7,1.5-1.5,1.5-1.5.9-1.5,2.1-.4,1.7-1,1.4c-.5-.3-1,.3-1,1.4s-.4,2.1-.8,2.3c-1.2.5-9.2,11.6-9.2,12.8s-.4,1-1,1-1,.7-1,1.5-.7,1.8-1.5,2.1c-.8.4-1.5,1.5-1.5,2.5s-.7,2.2-1.5,2.5c-.8.4-1.5,1.4-1.5,2.4s-.6,2.5-1.4,3.2c-.7.8-1.7,2.4-2,3.6-.4,1.2-1.1,2.2-1.6,2.2s-1.4,1.8-2,4-1.4,3.8-1.9,3.6c-.4-.3-1.6,2-2.6,5s-2.2,5.4-2.6,5.4-1.1,1-1.4,2.2c-.4,1.3-1.3,3.6-2,5.3-.7,1.6-1.6,3.8-1.9,4.8s-1,1.5-1.6,1.2c-.5-.3-1,.2-1,1.2,0,1.6-2.5,9-4.9,14.8-2.9,6.9-3.4,8.2-3.7,10-.6,3.8-1.5,6.7-3.5,11-1,2.4-7.9,29.4-7.7,30.3.1.4-.1,1.4-.5,2.2-.9,2.4-1.9,7.3-1.9,9.7s-.4,2.3-.8,2.3-.8,1.7-.9,3.7c-.1,3.7-.4,6.9-1.6,14.8-.9,6.6-1.7,16.6-1.9,23.5,0,3.6-.5,6.8-1.1,7.2-.6.5-.4,1.2.5,1.8.8.5,1,1,.5,1s-.9,2.3-.8,5.7c.5,10.5.4,19.5-.1,20.1-.3.3-.6-2.1-.7-5.4-.2-12-.4-14.4-1.2-14.4s-.5-.5-.2-1c.3-.6.8-7.9,1.1-16.3.6-22,1-27.3,2.9-38.2.2-1.1.6-4.3.9-7.2.4-2.9,1.1-7.4,1.7-10,.5-2.6,1.2-5.9,1.5-7.3s.7-3.6.9-5c.6-3.6,2.5-11.3,3.2-13,.3-.8.5-1.8.5-2.2-.1-.4.5-2.5,1.3-4.5.8-2.1,1.7-5.1,1.9-6.8.5-2.7,2.4-8.1,6.2-17.5,1.2-3,2.1-6.4,2.3-9.3.1-.5.6-.5,1.1-.2.6.3,1,0,1-.7,0-2.3,7.1-20.1,9.1-23,1.1-1.5,1.8-2.8,1.4-2.8s.2-1.1,1.1-2.5,1.2-2.5.8-2.5-.1-.5.9-1.1c.9-.5,1.7-1.6,1.7-2.4s1.8-4.5,4-8.4,4-7.5,4-8.1.5-.8,1-.5c.6.3,1,0,1-.8s.6-2,1.4-2.6c.8-.7,1.8-2.6,2.1-4.2.4-1.6,1-2.7,1.5-2.4.4.3,1.1-.6,1.4-2,.4-1.4,1.1-2.5,1.6-2.5s1-.5,1-1.1,1.1-2.2,2.5-3.5,2.5-3,2.5-3.9.5-1.3,1-1c.6.3,1-.3,1-1.4s.3-2.1.8-2.1,1.6-1.6,2.6-3.5c1.1-1.9,2.3-3.5,2.8-3.5s.8-.7.8-1.6.5-1.2,1-.9c.6.3,1,.1,1-.5s1.4-2.4,3-4c1.7-1.6,3-3.1,3-3.4s1.4-1.8,3-3.6c1.7-1.8,3-3.9,3-4.7s.4-1.2.9-.8c.5.3,2-.9,3.2-2.7,2.7-3.8,15.1-16.3,22.6-22.7,2.9-2.5,4.9-4.9,4.6-5.4-.3-.6-.1-.7.5-.3.7.4,1.2.3,1.2-.2s1.1-1.4,2.5-2,2.5-1.9,2.5-2.8.3-1.5.6-1.1c.4.3,2.3-.9,4.3-2.8s4.1-3.5,4.6-3.5,1.6-.9,2.3-2,1.9-2,2.7-2,1.8-.6,2.2-1.4c1.1-1.9,14-10.5,14.7-9.8s.6-.2.6-1.1.8-1.7,2.5-1.7,2.4-.5,2.3-1.3c-.2-.6.3-1.1,1-.9.7.1,1.5-.5,1.8-1.3.4-.8,1.2-1.5,1.9-1.5s2.4-.9,3.7-2c1.4-1,2.8-1.6,3.2-1.3.3.3.6.1.6-.5s.9-1.4,2.1-1.7c2.1-.7,8.2-4.4,10.9-6.7.8-.7,1.5-1.1,1.5-.8,0,.7,12.5-5.5,12.5-6.2s.7-.8,1.5-.8,3.4-.9,5.5-2c2.2-1.1,4-1.7,4-1.3s.4.3.8-.3c1-1.4,8.4-4.9,10-4.6.6.2,1.2-.2,1.2-.9s.8-.9,2-.6c1.1.3,2,.2,2-.3s1.4-1.3,5-2.4c.3-.1,1.1-.5,1.8-1,.7-.4,1.9-.5,2.7-.2s1.5.1,1.5-.4.9-1,2-1,2-.5,2-1.1.7-.8,1.6-.5c.9.4,2.2.2,2.9-.4,1.1-1,2.6-1.4,8-2.4.6-.1,1.6-.5,2.3-1,.7-.4,1.9-.5,2.7-.2.7.2,1.5.1,1.7-.4.3-1,15.2-5,19.9-5.3,1.6-.1,2.9-.5,2.9-1s.3-.6.8-.5c.4.1,3.2-.2,6.2-.7,6.6-1,6.1-1,13-1.9,3-.4,6.5-.8,7.8-.9,1.2-.1,2.2-.4,2.2-.7s1.8-.5,4-.4c2.2,0,4-.2,4-.5s2.6-.6,5.8-.5c3.1,0,6.7-.2,7.9-.5,3.4-.9,27.6-.7,29.1.2h0l.2-.2Z"/>
  <path class="cls-1" d="M202.14,1348.77c.3,9.67-.15,12.69-2.57,16.62-4.23,6.8-15.41,14.65-29.16,20.4-6.5,2.72-11.78,5.44-11.78,6.04s1.81,1.66,4.08,2.12c2.72.76,2.12,1.81-1.81,3.17-3.32,1.21-18.58,5.44-33.99,9.52-29.16,7.55-45.32,12.99-45.32,15.11s1.81,1.66,4.23,2.12c2.27.6,7.4,2.87,11.48,4.83,9.06,4.68,16.47,4.38,31.73-1.51,11.94-4.68,13.29-3.93,12.69,5.74l-.45,5.89-21.15,7.1c-22.96,7.55-40.04,14.81-40.04,16.77s2.27,1.36,4.99,1.36,8.91,1.06,13.9,2.27c12.69,3.02,18.28,2.72,30.67-1.36l10.88-3.78v5.89c0,4.53-.76,6.35-3.17,7.55-1.66,1.06-15.86,6.04-31.27,11.33-33.54,11.33-43.06,15.26-41.85,17.37.45.76,1.81,1.51,3.02,1.51s6.5,2.42,11.94,5.29c14.2,7.55,20.4,7.25,33.84-1.36,14.5-9.52,27.65-15.11,29.16-12.69.76,1.06,4.08,10.73,7.55,21.45,6.95,21.76,7.4,20.09-6.19,25.23-14.2,5.29-15.56,5.29-20.09-.6-2.27-3.02-4.08-5.74-4.08-6.19s3.93-2.12,8.76-3.93c12.99-4.83,15.41-6.8,15.41-12.54s-5.14-11.63-10.42-11.63-4.68-.76-6.19-1.51c-3.63-1.96-10.58.6-10.58,3.78s-11.78,15.41-25.08,24.47c-6.95,4.68-12.69,9.22-12.69,9.97s2.57,1.06,6.5.45c3.47-.6,9.52-1.51,13.6-1.96l7.1-.91v13.29l-15.41,6.65c-8.61,3.63-25.68,11.63-37.92,17.83-20.4,10.12-25.38,14.05-17.68,14.05s7.4,2.42,12.99,5.29c13.75,7.1,17.98,6.95,27.8-1.36,6.8-5.74,26.44-17.52,29.31-17.52s1.21,8.16,0,15.41c-.91,5.44-1.96,6.35-19.34,16.92-23.11,14.05-29.31,17.07-38.98,19.64-4.38,1.06-8.16,2.72-8.46,3.63s2.72,3.93,6.65,6.65c3.93,2.72,9.52,6.95,12.24,9.37,4.23,3.63,5.89,4.23,10.73,3.47,3.02-.6,5.89-1.81,6.19-2.87,1.36-4.38,18.13-17.68,27.8-22.06.6-.3,1.06,3.93,1.06,9.37,0,12.24-1.96,13.9-12.84,10.58-4.08-1.21-7.86-1.66-8.61-.91-2.57,2.57,26.44,40.04,30.52,39.28,1.21-.3,3.63-3.17,5.14-6.35,2.42-4.83,3.17-11.48,4.23-36.26,1.66-34.45-.76-29.01,18.43-43.21,4.99-3.78,10.58-9.06,12.39-11.78,3.47-4.99,7.1-18.13,5.74-20.24-.45-.6-7.55,3.32-15.86,8.91-8.16,5.44-15.26,9.67-15.56,9.37s0-4.99.45-10.27l.91-9.67,17.83-7.55c9.82-4.08,18.13-7.25,18.28-6.95.3.3,4.99,10.58,10.42,22.96l9.82,22.21-11.78,17.83c-11.33,17.22-24.78,31.58-34.75,37.62-12.39,7.25,6.19,7.7,20.4.45,7.55-3.78,27.95-17.98,39.58-27.5,1.21-1.06,2.57,0,4.38,3.63,8.31,16.17,37.16,46.23,56.96,59.07,18.58,12.24,26.74,15.26,40.64,15.41,6.35,0,12.09-.45,12.54-1.06.6-.6-1.21-6.8-4.23-13.6-7.25-17.07-8.46-22.36-9.67-39.43-.45-8.01-1.36-14.65-1.96-14.65s-1.81,4.53-2.87,9.97c-1.96,9.82-9.06,25.99-12.69,29.01-3.32,2.72-43.81-34.29-58.01-52.88-12.24-16.17-12.09-14.05-3.47-27.95,8.61-14.05,10.12-19.19,7.7-26.44-2.27-6.8-12.54-15.11-17.83-14.5-3.47.45-4.23,1.66-6.5,9.97-1.51,5.29-3.32,10.27-4.08,11.03-1.66,1.66-13.29-26.44-11.94-28.7,2.57-4.08,22.51-5.89,41.7-3.93,13.6,1.36,15.86,0,14.2-9.22-1.66-8.91-4.99-11.18-16.47-11.18h-9.82l1.06-6.8c.76-6.19.45-7.1-4.38-11.94-5.59-5.59-12.09-7.86-26.44-9.37-6.65-.76-9.52-.45-9.52.6s5.59,7.7,12.39,14.96l12.39,13.14-11.78,2.87c-13.6,3.32-13.29,3.47-16.17-8.76-.91-4.08-3.02-11.18-4.68-15.41-2.57-7.25-3.47-8.16-9.22-9.67l-6.35-1.81,8.31-2.12c6.19-1.51,14.35-1.81,31.88-1.21,24.02,1.06,35.05-.3,36.56-4.23.3-1.06.3-4.53-.3-7.86-.76-5.29-1.81-6.5-7.7-9.52-3.63-1.81-9.06-3.32-12.09-3.32s-8.16-.76-11.78-1.36c-5.14-1.06-8.16-.6-15.11,2.12-4.68,1.96-11.63,3.93-15.26,4.53l-6.65,1.06,1.21-7.25c.6-4.08,1.21-7.4,1.21-7.55,0,0,9.97-3.17,21.91-6.8,12.99-3.93,21.45-7.25,21.45-8.46,0-4.68-4.99-13.75-8.46-15.26-3.02-1.51-5.59-1.06-14.65,2.57-5.89,2.42-13.14,4.83-15.86,5.44l-4.99,1.06.45-8.16.45-8.01,7.55-1.81c4.23-.91,11.94-1.81,17.37-1.81,15.41-.3,30.67-5.74,27.34-9.82-.76-.91-1.66-3.78-1.96-6.19-.45-4.08-1.06-4.68-6.8-5.44s-10.88-2.87-6.95-2.87,32.93-19.94,37.01-23.72c7.1-6.35-.15-15.11-18.88-22.96-16.92-6.95-17.07-6.95-16.47,6.95h0Z"/>
  <path class="cls-1" d="M792.55,1340.16c-4.83,1.51-9.52,3.47-10.27,4.23s2.27,2.72,7.86,4.68c11.63,4.23,19.79,12.09,25.53,24.47,5.29,11.18,9.67,27.19,8.01,28.7-.6.6-8.16,2.57-16.77,4.38-28.55,6.04-50.01,13.14-50.01,16.62s5.14,4.23,11.48,7.86,12.84,7.4,14.65,8.46c6.35,3.78,25.38-.3,70.55-15.11,31.42-10.27,35.65-10.58,50.91-3.63l8.31,3.93-7.4,8.46c-3.93,4.83-9.67,9.67-12.54,10.88l-5.29,2.42,6.8,1.06c8.61,1.51,17.68.45,30.22-3.47,6.19-1.96,14.96-3.17,23.42-3.47,20.4-.45,23.11-2.87,17.52-15.26-9.97-21.76-27.5-27.95-80.22-28.1h-25.08l1.36-10.73c.91-7.4.91-12.39-.45-16.62-3.47-11.94-21.91-25.38-41.85-30.52-11.03-2.87-15.71-2.72-26.74.76h0Z"/>
  <path class="cls-1" d="M1444.29,1340.31c-2.87,1.66-7.25,3.78-9.52,4.83-2.42.91-4.53,3.32-5.14,5.44-.76,3.02,0,4.83,5.44,9.37l6.35,5.74.3,42.75c0,23.57-.3,46.68-.91,51.37l-1.21,8.76-12.39,3.63c-6.8,2.12-21.6,5.44-32.78,7.55-27.34,5.14-49.86,12.84-49.86,16.92s3.63,4.38,8.01,7.25c4.23,2.87,9.82,7.7,12.24,10.73,7.7,9.82,18.73,14.05,26.44,9.97,1.36-.91,9.67-2.87,18.43-4.68,8.61-1.66,16.92-3.47,18.58-3.93,2.42-.76,2.57-.3,1.66,4.23-1.96,8.76-14.35,39.28-22.21,54.09-21.6,41.09-45.78,68.14-78.71,87.93l-12.09,7.25h10.73c25.08,0,41.24-7.1,71.76-31.73,6.19-4.99,11.63-9.06,12.09-9.06,1.36,0,8.46,17.68,11.33,28.4,1.66,6.04,4.23,12.39,5.74,14.05,1.36,1.51,7.4,5.29,13.14,8.16,11.94,6.04,14.65,5.59,18.73-3.17,2.27-4.53,2.27-6.19.76-12.09-1.06-3.93-2.27-10.88-2.87-15.71-.76-8.16-1.36-9.22-7.1-13.29-3.32-2.42-11.33-6.95-17.52-10.12-6.19-3.02-11.63-5.89-11.94-6.19s1.36-3.47,3.93-7.1c6.95-9.52,13.29-22.96,19.49-41.09l5.74-16.32,2.72,5.89c23.72,51.82,38.52,79.62,57.41,107.26l10.27,15.26,11.18,1.06c15.71,1.36,26.89,4.53,40.94,11.48,13.75,6.65,19.94,8.46,33.99,9.82l9.82.91-4.68-4.23c-2.42-2.27-12.39-11.18-21.91-19.64-23.72-21-70.55-68.89-86.11-88.08-26.29-32.18-41.7-57.71-45.32-75.24-1.96-9.52-1.51-9.97,8.31-11.48,3.32-.6,14.35-5.14,24.32-10.12,17.83-8.76,31.27-12.84,36.56-10.88,1.51.6,4.38,2.27,6.35,3.78,4.99,3.78,11.48,3.47,14.35-.6,1.81-2.42,2.42-7.1,2.42-16.77s0-13.6-4.68-17.98c-4.53-4.53-4.68-4.68-16.17-3.78-6.35.45-24.47,3.93-40.34,7.7-15.71,3.63-29.01,6.5-29.31,6.04-.3-.3,1.96-14.35,4.99-31.12,10.73-59.98,12.09-79.16,6.35-85.51-1.51-1.81-5.29-3.32-9.37-3.78s-8.16-1.96-10.27-3.93l-3.32-3.17-5.14,3.17h0Z"/>
  <path class="cls-1" d="M2183.06,1338.8c0,.76-2.27,2.87-4.99,4.38l-5.14,3.02,3.93,8.01c3.78,7.7,3.93,8.61,3.93,38.07s-.45,32.03-1.06,34.14c-1.06,3.78-2.27,4.23-18.88,7.4-9.82,1.81-18.43,3.93-19.04,4.53-2.87,2.57,16.77,13.14,26.89,14.65,8.01,1.06,7.7,0,4.53,22.96-1.21,8.76-3.17,16.32-4.23,17.07-.91.6-4.23,1.21-7.1,1.21-7.4,0-12.09,1.51-12.09,3.78,0,3.78,6.19,9.67,15.86,14.96,9.22,5.29,9.97,5.44,16.92,3.93,3.93-.91,12.24-3.63,18.43-6.19,6.19-2.42,12.09-4.23,13.29-3.78,4.68,1.81-.45,22.51-11.03,43.66-5.74,11.18-15.11,25.23-17.07,25.23s-2.72-2.87-4.68-6.5c-8.76-15.41-25.08-38.07-35.81-49.4-14.2-15.26-20.4-18.73-25.99-15.26-1.81,1.21-1.36,2.42,2.57,6.8,12.09,13.9,18.58,25.53,40.04,72.97l8.46,18.58-15.26,15.86c-8.31,8.76-20.7,20.09-27.34,25.08l-12.09,9.06-1.96-4.53c-3.78-9.06-15.11-11.03-40.94-7.25-14.2,2.27-14.2,3.32-.91-14.05,6.35-8.16,10.73-12.39,16.01-14.96,5.44-2.72,7.1-4.38,7.1-7.1,0-6.5-3.32-10.88-12.24-15.86-4.83-2.87-8.91-5.59-8.91-6.19s2.72-1.36,6.04-1.96c7.25-1.21,10.88-4.38,10.27-8.91,0-1.66,1.36-6.95,3.63-11.48,2.12-4.53,4.99-11.48,6.35-15.41,1.51-4.08,4.83-9.06,8.01-11.78l5.44-4.83-3.47-7.25c-3.63-7.86-13.9-19.64-17.07-19.64s-5.59,3.32-5.59,6.95-1.51,3.78-13.14,6.35c-19.34,4.53-28.25,6.04-43.51,7.86-26.44,3.02-58.16,13.29-58.16,18.73s5.14,6.35,14.35,9.37c4.08,1.36,7.7,2.57,7.86,2.72s1.06,9.37,2.12,20.55c1.81,22.36,4.68,31.58,11.78,38.52l4.38,3.93,1.06-7.1c1.51-10.42,1.96-10.88,9.37-12.09,3.63-.45,12.84-2.87,20.24-5.14l13.45-4.23,3.17,5.29c2.87,4.68,3.02,5.89,1.51,13.75-.91,4.83-4.08,14.05-6.95,20.7-2.87,6.65-5.29,13.29-5.29,14.65s-3.63,3.63-13.45,6.8l-13.45,4.38-1.06-7.55c-1.06-8.76-4.83-16.77-10.73-22.66-5.89-5.89-17.83-11.48-22.96-11.48h-3.63l3.93,4.53c3.93,4.83,8.46,17.37,8.46,23.87s4.23,13.45,8.61,16.77c1.96,1.66,3.02,3.32,2.42,3.63-.76.45-14.65,6.65-31.12,13.75-16.47,7.1-31.42,13.75-33.24,14.65l-3.17,1.81,3.78,2.87c6.35,5.29,17.98,10.42,25.38,11.33,6.8.76,8.16.3,22.96-8.61,23.72-14.05,55.6-29.46,67.23-32.33,11.63-3.02,41.4-5.14,41.4-3.02s-3.17,3.02-7.1,5.14l-7.25,3.78,8.61.45c18.13.91,46.38-12.99,87.62-43.36,3.47-2.57,2.27-3.93,21.6,24.78,7.86,11.63,18.58,25.38,23.87,30.67l9.52,9.37,12.69,1.51c7.1.76,17.52,1.51,23.11,1.51,10.12,0,30.67,5.44,35.5,9.37,1.06.91,2.27,1.21,2.87.76,1.51-1.66-21.15-23.72-31.27-30.52-5.44-3.47-16.32-9.67-24.17-13.6-24.32-12.09-37.16-22.66-49.55-40.49l-6.04-8.61,20.4-44.27c11.18-24.17,22.96-49.4,26.29-56.05,8.91-17.83,7.7-25.23-4.38-27.04-3.17-.6-8.46-3.02-11.63-5.59-7.4-5.89-12.99-5.89-23.87,0l-8.61,4.68v-5.89c0-6.35,2.57-25.23,3.93-29.61,1.06-3.47,11.48-8.16,32.33-14.65,20.7-6.35,33.24-12.84,33.24-17.37s-3.02-12.84-5.89-14.2c-1.36-.76-10.88-1.06-21.3-.76l-18.88.45-7.7,8.61c-4.23,4.68-8.31,8.31-9.22,8.01-2.27-.91,1.96-19.94,6.35-28.55,6.65-13.29,7.4-19.34,3.93-31.88-1.66-6.04-4.08-11.94-5.14-12.99-1.21-1.21-6.04-2.72-11.03-3.47-4.83-.6-10.73-1.96-12.99-2.87-2.87-1.06-4.23-1.06-4.23,0h0v.15ZM2079.57,1530.07c-3.78,9.37-6.8,19.04-6.8,22.21,0,8.16-2.42,11.03-13.14,15.11-14.35,5.44-35.05,11.48-39.43,11.48h-3.63l1.06-14.81c.6-8.01,1.21-14.81,1.36-14.81.6-.6,53.48-20.09,56.05-20.7,5.29-1.21,5.59-1.06,4.53,1.51h0Z"/>
  <path class="cls-1" d="M2041.04,1341.22c-4.38.76-9.06,4.53-9.06,7.25s1.66,2.57,3.63,3.47c4.68,2.12,5.44,6.65,5.44,35.65v24.47l-22.51,5.59c-12.54,3.02-23.72,5.59-24.93,5.59-5.29,0-1.66,2.87,11.33,9.06,10.42,4.99,16.47,6.8,23.87,7.4l9.97.91.45,13.29.45,13.29-8.01,3.47c-4.38,1.96-19.49,7.7-33.69,12.69-14.05,4.99-28.1,10.12-30.97,11.48l-5.29,2.12,4.53,1.81c2.57.91,8.01,3.02,12.09,4.68,12.39,4.68,20.4,3.93,36.11-3.78,28.86-14.05,54.84-20.55,81.73-20.55s24.93-2.12,24.93-9.06-7.7-14.65-14.96-16.62c-5.89-1.51-17.52-.3-34.6,3.93-5.29,1.36-9.82,2.12-10.12,1.81-.45-.3,0-6.65,1.21-14.05,1.81-12.99,1.96-13.29,6.65-15.41,2.72-1.06,9.82-3.02,15.56-4.23,12.39-2.57,17.37-4.83,23.11-10.58s5.29-9.37.3-11.63c-1.96-.91-4.08-2.87-4.53-4.53-1.51-4.23-9.06-3.47-22.66,2.57-6.65,2.87-12.99,5.29-14.05,5.29-2.72,0-1.36-8.61,4.38-26.59,7.4-23.11,5.74-28.4-11.18-36.11-7.55-3.63-11.18-4.08-19.19-2.72h0Z"/>
  <path class="cls-1" d="M89.14,1349.08c0,.91.6,1.66,1.36,1.66s6.5,4.83,12.69,10.58c9.06,8.46,12.54,13.14,16.77,21.91,5.44,11.33,8.46,14.35,14.81,14.35s7.25-2.87,7.25-11.48-4.99-18.13-18.58-27.19c-11.03-7.25-34.29-14.05-34.29-9.82Z"/>
  <path class="cls-1" d="M722.15,1424.01c0,.3,1.36,3.47,3.17,6.8,4.99,9.52,3.17,31.42-3.78,45.02-5.59,10.88-4.08,27.04,3.02,35.5,6.35,7.4,13.45,12.09,16.92,11.03,5.44-1.81,9.97-8.46,11.78-17.37,1.06-4.83,3.63-13.29,5.89-18.73,5.74-14.35,7.7-28.25,4.68-33.84-7.25-13.75-26.29-29.16-35.96-29.16s-5.74.3-5.74.76h0Z"/>
  <path class="cls-1" d="M801.46,1491.24c5.89,11.63,10.12,29.61,9.06,37.77-1.21,8.31-8.91,25.08-12.24,26.29-1.36.45-27.65,3.78-58.62,7.1-30.82,3.32-57.11,6.5-58.32,6.95-1.51.45-.6,1.51,3.17,3.47,6.8,3.63,15.26,12.84,18.73,20.7,2.57,6.04,2.87,6.19,8.91,5.44,3.47-.45,15.41-3.17,26.59-6.04,11.18-2.87,24.78-5.59,30.22-6.04l9.82-.91-8.61,9.37c-9.06,9.67-10.88,13.45-9.97,20.7.45,4.08.91,4.38,5.74,3.78,18.58-1.81,27.8-.6,44.27,5.89,8.91,3.63,16.17,6.95,16.17,7.55,0,2.27-27.8,32.03-36.56,39.28-5.29,4.23-17.68,11.78-27.65,16.77l-18.13,9.06,12.84-.91c19.94-1.66,40.04-6.19,51.97-11.78,11.63-5.59,28.86-18.58,41.4-31.27,4.38-4.38,8.76-7.55,9.82-7.1,4.83,1.81,25.83,20.09,35.81,31.27,9.52,10.58,26.14,24.78,31.27,26.74.91.45,3.78-.76,6.19-2.57,4.08-3.02,5.89-3.32,19.04-2.72,8.01.3,14.5,0,14.5-.45s-2.42-3.93-5.29-7.7c-10.27-13.6-24.93-24.78-58.77-45.02-18.28-11.18-33.54-20.24-33.69-20.4-.3,0,1.66-4.08,4.23-8.91s6.95-14.96,9.67-22.51l4.99-13.9h25.53c28.25.3,43.66,2.87,55.6,9.06,5.44,3.02,7.55,3.32,10.73,2.27,2.12-.91,5.44-1.51,7.55-1.51,5.29,0,7.7-5.89,5.14-12.09-4.23-10.27-32.18-30.22-42.15-30.22s-5.29,1.06-6.8,2.27c-3.32,2.42-29.46,3.02-40.94,1.06l-6.04-1.21,4.23-4.08c10.12-10.42-.3-27.95-26.74-44.72-9.22-5.74-12.69-5.89-13.9-.91-.6,2.72.3,5.74,3.78,11.18,4.68,7.25,4.83,7.7,3.78,19.94-1.66,20.55-.6,19.49-20.85,19.49h-17.22l4.38-9.06c2.57-4.99,6.35-10.42,8.46-12.09,3.47-2.72,3.78-3.63,2.87-9.67-2.27-14.96-22.66-32.18-42.91-36.41l-4.99-1.06,3.93,7.86h0ZM848.75,1581.28c4.23.6,7.86,1.66,7.86,2.42,0,2.12-12.69,21.3-15.56,23.57-2.12,1.81-4.53,1.36-16.47-2.57-7.7-2.42-16.62-4.99-19.79-5.59l-5.89-1.06,8.01-8.01c6.95-6.95,8.76-8.16,14.81-8.61,12.99-1.06,19.04-1.06,27.04,0h0v-.15Z"/>
  <path class="cls-1" d="M210.75,1818.92c-12.39,5.74-18.28,17.07-20.85,39.58-3.17,28.55,2.27,54.99,13.45,64.81,13.45,11.78,35.96,8.46,44.57-6.65l3.63-6.19.45,8.61c.45,7.55.91,8.76,3.32,8.76s3.02-1.21,3.02-27.95v-27.95h-18.88c-17.83,0-18.88,0-18.88,3.02s1.21,3.02,14.81,3.32l14.65.45-.3,10.88c-.3,12.54-4.68,24.47-10.73,29.16-9.82,7.86-23.87,6.8-31.73-2.12-7.86-9.06-10.12-18.43-10.12-43.21s2.12-33.84,9.52-42.6c13.75-16.32,37.16-9.06,40.79,12.69.91,5.14,1.81,6.65,4.53,6.95,2.72.45,3.32,0,3.32-3.78,0-11.78-7.86-24.47-17.68-28.55-6.95-3.02-19.79-2.57-26.89.76h0Z"/>
  <path class="cls-1" d="M2289.57,1818.62c-15.41,8.01-21.91,24.47-21.91,54.84s2.12,30.06,6.35,38.52c6.65,13.14,14.05,17.83,28.4,17.98,12.24,0,19.79-3.32,25.83-11.63,6.65-9.22,9.06-19.34,9.97-40.34,1.66-42-9.67-62.09-34.9-61.94-5.44,0-11.18,1.06-13.75,2.57h0ZM2314.04,1824.67c11.48,5.44,17.07,21.3,17.07,48.8s-8.61,50.46-27.95,50.46-27.95-15.56-27.95-50.46,2.57-32.33,8.01-40.49c6.5-9.97,19.94-13.6,30.82-8.31h0Z"/>
  <path class="cls-1" d="M0,1872.71c0,53.93,0,55.14,3.02,55.14s3.02-1.21,3.32-48.04l.45-47.89,23.72,47.89c23.42,47.44,23.72,48.04,28.25,48.04h4.68v-110.29h-7.55l-.3,48.04-.45,47.89-23.27-47.89c-22.51-46.38-23.42-48.04-27.65-48.04H0v55.14Z"/>
  <path class="cls-1" d="M383.73,1872.71v55.14h27.95c26.89,0,27.95,0,27.95-3.02s-1.21-3.02-23.72-3.32l-23.87-.45v-46.83l21.6-.45c20.09-.3,21.45-.6,21.45-3.32s-1.36-3.02-21.45-3.32l-21.6-.45-.45-20.85-.45-20.7h46.98v-7.55h-54.39v55.14h0Z"/>
  <path class="cls-1" d="M562,1872.71v55.14h27.19c26.14,0,27.19,0,27.19-3.02s-1.06-3.02-23.42-3.02h-23.42v-48.34h21.15c20.09,0,21.15,0,21.15-3.02s-1.06-3.02-21.15-3.02h-21.15v-42.3h45.32v-7.55h-52.88v55.14Z"/>
  <path class="cls-1" d="M890.75,1870.89c-9.06,29.16-16.77,54.09-17.22,55.14-.45,1.51.45,1.96,3.47,1.51,3.93-.45,4.53-1.51,9.06-16.32l4.68-15.86,20.55-.45,20.55-.45.91,4.23c.6,2.42,2.87,9.82,4.99,16.62,3.47,11.33,4.23,12.54,7.55,12.54s3.63-.6,3.17-2.72c-.45-1.36-7.7-26.14-16.32-55.14l-15.71-52.42h-9.22l-16.47,53.33h0ZM920.66,1857.45c4.68,15.71,8.46,29.16,8.46,29.76s-8.16,1.36-18.28,1.36-18.13-.45-17.52-1.96c.3-.91,2.57-8.01,4.68-15.41,10.27-34.14,13.29-43.36,13.75-42.75.3.3,4.38,13.29,8.91,29.01h0Z"/>
  <path class="cls-1" d="M1068.11,1872.56v55.29h7.55l.3-47.74.45-47.89,22.96,47.44c22.21,45.93,23.11,47.44,27.5,47.89l4.68.45v-55.14c0-54.24,0-55.29-3.02-55.29s-3.02,1.06-3.02,48.65-.45,48.04-1.06,47.44c-.76-.6-11.48-22.36-24.02-48.19-22.36-46.38-22.81-47.14-27.5-47.59l-4.83-.45v55.14h0Z"/>
  <path class="cls-1" d="M1259.98,1872.56v55.29h7.55l.3-47.89.45-47.74,23.11,47.44,22.96,47.44,5.29.45,5.29.45v-110.44h-7.55v48.65c0,26.74-.45,48.04-1.06,47.59-.45-.6-11.18-22.21-23.87-48.19-22.51-46.53-22.81-47.29-27.65-47.74l-4.83-.45v55.14h0Z"/>
  <path class="cls-1" d="M1587.81,1821.34c0,2.57,4.83,3.78,14.35,3.78h14.35v102.73h7.55v-102.73h14.35c9.52,0,14.35-1.21,14.35-3.78v-3.78h-64.96v3.78Z"/>
  <path class="cls-1" d="M1789.8,1818.62c-.45.76-8.01,24.63-16.77,53.33-8.91,28.7-16.47,53.03-16.77,54.09-.6,1.36.45,1.81,3.32,1.51,3.78-.45,4.38-1.66,9.06-16.77l5.14-16.17h40.19l4.99,16.62c4.53,14.96,5.44,16.62,8.61,16.62s3.47-.76,3.47-1.51-7.25-25.68-16.17-55.14l-16.01-53.63h-4.23c-2.27,0-4.53.45-4.83,1.06h0ZM1803.85,1859.56c4.38,15.11,7.7,27.8,7.25,28.25s-8.61.6-18.13.45l-17.22-.45,7.25-24.17c3.93-13.29,8.01-26.89,8.91-30.22,1.21-4.23,1.96-5.29,2.87-3.78.6,1.21,4.68,14.65,9.06,29.91h0Z"/>
  <path class="cls-1" d="M1951.91,1872.71v55.14h7.55v-110.29h-7.55v55.14Z"/>
  <path class="cls-1" d="M2089.39,1872.71v55.14h7.55v-39.73l6.19-8.31c5.14-6.8,6.5-7.86,8.16-6.19,1.06,1.21,8.76,13.9,17.22,28.1,14.35,24.32,15.71,26.14,19.79,26.14h4.38l-18.88-31.88-18.88-31.73,16.62-22.36c9.22-12.24,16.77-22.81,16.77-23.42s-1.66-.91-3.63-.91c-3.02,0-7.7,5.29-25.68,29.76l-22.06,29.61v-59.37h-7.55v55.14h0Z"/>
</svg>